# Created by Kenney (www.kenney.nl)

mtllib Rubbel.mtl

g mergedBlocks

v 0.5 0.0747146 0.2788388
v 0.5 0.05029825 0.1877157
v -0.5 0.0747146 0.2788388
v -0.5 0.05029825 0.1877157
v 0.5 0.340076 0.11007
v 0.5 0.3918398 0.3032552
v 0.5 0.2469509 0.342078
v -0.5 0.2469509 0.342078
v 0.4 0.2469509 0.342078
v -0.1 0.2469509 0.342078
v 0.1 0.2469509 0.342078
v -0.4 0.2469509 0.342078
v -0.5 0.04282685 -0.4197237
v -0.5 0.1877157 -0.4585465
v -0.5 -0.0747146 -0.2788388
v -0.5 0.2394795 -0.2653614
v -0.5 -0.05029825 -0.1877157
v 0.5 -0.0747146 -0.2788388
v 0.5 0.04282685 -0.4197237
v -0.4 0.04282685 -0.4197237
v -0.1 0.04282685 -0.4197237
v 0.1 0.04282685 -0.4197237
v 0.4 0.04282685 -0.4197237
v -0.5 0.3918398 0.3032552
v -0.4 0.3918398 0.3032552
v 0.4 0.1877157 -0.4585465
v 0.5 0.1877157 -0.4585465
v -0.4 0.340076 0.11007
v -0.5 0.340076 0.11007
v 0.4 0.3918398 0.3032552
v 0.4 0.340076 0.11007
v 0.1 0.340076 0.11007
v 0.1 0.3918398 0.3032552
v -0.1 0.340076 0.11007
v -0.1 0.3918398 0.3032552
v 0.1 0.1877157 -0.4585465
v 0.1 0.2394795 -0.2653614
v -0.1 0.1877157 -0.4585465
v -0.1 0.2394795 -0.2653614
v 0.5 0.2394795 -0.2653614
v 0.4 0.2394795 -0.2653614
v -0.4 0.2394795 -0.2653614
v -0.4 0.1877157 -0.4585465
v -0.4 0.1951872 0.1488928
v -0.1 0.1951872 0.1488928
v 0.4 0.1951872 0.1488928
v 0.1 0.1951872 0.1488928
v 0.4 0.09459064 -0.2265385
v 0.5 -0.05029825 -0.1877157
v -0.4 0.09459064 -0.2265385
v 0.1 0.09459064 -0.2265385
v -0.1 0.09459064 -0.2265385
v 0.4829627 0.1294096 -0.2886751
v 0.2903142 0.07778954 0.08676291
v 0.4829627 0.1294096 0.2886751
v 0.2177357 0.05834216 0.2169073
v 1.157539E-13 3.101619E-14 0.5773503
v 0.07257856 0.01944738 0.3036702
v -0.07257856 -0.01944738 0.3036702
v -0.4829627 -0.1294096 0.2886751
v -0.2177357 -0.05834216 0.2169073
v -0.2903142 -0.07778954 0.08676291
v -0.2903142 -0.07778954 -0.08676291
v 0.2903142 0.07778954 -0.08676291
v 0.2177357 0.05834216 -0.2169073
v -1.303974E-13 -3.493993E-14 -0.5773503
v 0.07257856 0.01944738 -0.3036702
v -0.07257856 -0.01944738 -0.3036702
v -0.4829627 -0.1294096 -0.2886751
v -0.2177357 -0.05834216 -0.2169073
v -0.5606084 0.160368 -0.2886751
v -0.5217856 0.01547922 -0.1443376
v -0.5217856 0.01547922 0.1443376
v -0.5606084 0.160368 0.1443376
v -0.5606084 0.160368 0.2886751
v -0.5606084 0.160368 -0.1443376
v -0.4010449 0.04783162 -0.3608439
v -0.4398678 0.1927204 -0.3608439
v -0.1595636 0.1125364 -0.5051815
v -0.07764576 0.2897776 -0.5773503
v -0.1983864 0.2574252 -0.5051815
v 0.08191779 0.1772412 -0.5051815
v 0.04309491 0.32213 -0.5051815
v 0.3233991 0.241946 -0.3608439
v 0.4053169 0.4191872 -0.2886751
v 0.2845762 0.3868348 -0.3608439
v 0.4053169 0.4191872 0.1443376
v 0.4441398 0.2742984 0.1443376
v 0.4053169 0.4191872 0.2886751
v 0.4441398 0.2742984 -0.1443376
v 0.4053169 0.4191872 -0.1443376
v 0.3233991 0.241946 0.3608439
v 0.2845762 0.3868348 0.3608439
v 0.08191779 0.1772412 0.5051815
v -0.07764576 0.2897776 0.5773503
v 0.04309491 0.32213 0.5051815
v -0.1595636 0.1125364 0.5051815
v -0.1983864 0.2574252 0.5051815
v -0.4010449 0.04783162 0.3608439
v -0.4398678 0.1927204 0.3608439
v 0.2126685 0.3675672 0.08676291
v 0.1400899 0.3481198 0.2169073
v -0.005067207 0.309225 0.3036702
v -0.1502243 0.2703303 0.3036702
v -0.2953814 0.2314355 0.2169073
v -0.36796 0.2119881 0.08676291
v 0.2126685 0.3675672 -0.08676291
v 0.1400899 0.3481198 -0.2169073
v -0.005067207 0.309225 -0.3036702
v -0.1502243 0.2703303 -0.3036702
v -0.2953814 0.2314355 -0.2169073
v -0.36796 0.2119881 -0.08676291
v 0.1789128 0.203231 0.2169073
v 0.03375567 0.1643362 0.3036702
v 0.2514913 0.2226784 -0.08676291
v 0.2514913 0.2226784 0.08676291
v 0.03375567 0.1643362 -0.3036702
v 0.1789128 0.203231 -0.2169073
v -0.1114014 0.1254414 -0.3036702
v -0.2565585 0.08654666 -0.2169073
v -0.3291371 0.06709928 -0.08676291
v -0.3291371 0.06709928 0.08676291
v -0.1114014 0.1254414 0.3036702
v -0.2565585 0.08654666 0.2169073
v 0.4829629 -0.4294095 0.2886751
v 0.4829629 -0.4294095 -0.2886751
v 1.15754E-13 -0.3 0.5773503
v -1.310948E-13 -0.3 -0.5773503
v -0.4829629 -0.1705905 0.2886751
v -0.4829629 -0.1705905 -0.2886751
v 0.0258819 -0.2034074 0.6928203
v -0.5536737 -0.04811603 0.3464102
v 0.6054375 -0.3586988 0.3464102
v 0.6054375 -0.3586988 -0.3464102
v 0.0258819 -0.2034074 -0.6928203
v -0.5536737 -0.04811603 -0.3464102
v -0.5277918 0.04847658 -0.3464102
v -0.5277918 0.04847658 0.3464102
v 0.0517638 -0.1068148 0.6928203
v 0.6313193 -0.2621062 0.3464102
v 0.6313193 -0.2621062 -0.3464102
v 0.0517638 -0.1068148 -0.6928203
v 0.5881087 -0.1719239 0.3088367
v 0.0714148 -0.03347626 0.6176734
v 0.5881087 -0.1719239 -0.3088367
v 0.0714148 -0.03347626 -0.6176734
v -0.4452791 0.1049714 -0.3088367
v -0.4452791 0.1049714 0.3088367
v 0.258819 0.6659259 -1.443823E-15
v 0.4099047 0.0953427 -0.1695189
v 0.4099047 0.0953427 0.1695189
v 0.126294 0.1713359 0.3390379
v -0.1573166 0.2473292 0.1695189
v -0.1573166 0.2473292 -0.1695189
v 0.126294 0.1713359 -0.3390379

vn 0 -0.9659259 0.258819
vn 1 0 0
vn 0 -0.3446674 0.9387249
vn -1 0 0
vn 0 -0.7678531 -0.6406261
vn 0 0.258819 0.9659259
vn 0 -0.258819 -0.9659259
vn 0 0.9659259 -0.258819
vn 0.2588192 -0.9659254 0
vn -0.9659254 -0.2588192 0
vn -0.4829627 -0.1294096 -0.8660254
vn 0.4829627 0.1294096 -0.8660254
vn 0.9659254 0.2588192 0
vn 0.4829627 0.1294096 0.8660254
vn -0.4829627 -0.1294096 0.8660254
vn -0.2588192 0.9659254 0
vn 0.9376484 0.2512424 -0.2401923
vn -0.6697487 -0.1794588 0.7205767
vn 0.2678995 0.07178353 -0.9607689
vn 0.2678995 0.07178353 0.9607689
vn -0.6697487 -0.1794588 -0.7205767
vn 0.9376484 0.2512424 0.2401923
vn -0.9376484 -0.2512424 0.2401923
vn 0.6697487 0.1794588 -0.7205767
vn -0.2678995 -0.07178353 -0.9607689
vn -0.2678995 -0.07178353 0.9607689
vn 0.6697487 0.1794588 0.7205767
vn -0.9376484 -0.2512424 -0.2401923
vn 0.836516 0.224144 -0.5
vn 0.836516 0.224144 0.5
vn 0 0 1
vn -0.836516 -0.224144 0.5
vn -0.836516 -0.224144 -0.5
vn 0 0 -1
vn -0.258819 -0.9659259 0
vn -0.524519 -0.5915064 0.6123725
vn 0.1584937 -0.774519 0.6123725
vn 0.5000001 -0.8660254 0
vn 0.1584937 -0.774519 -0.6123725
vn -0.524519 -0.5915064 -0.6123725
vn -0.8660254 -0.5000001 0
vn -0.9659259 0.258819 0
vn -0.4829629 0.1294095 0.8660254
vn 0.4829629 -0.1294095 0.8660254
vn 0.9659259 -0.258819 0
vn 0.4829629 -0.1294095 -0.8660254
vn -0.4829629 0.1294095 -0.8660254
vn 0.53513 0.5303612 0.6575355
vn 0.9018228 0.4321062 0
vn 0.53513 0.5303612 -0.6575355
vn -0.1982557 0.7268713 -0.6575355
vn -0.5649484 0.8251262 0
vn -0.1982557 0.7268713 0.6575355
vn 0.9666847 0.2559702 0
vn 0.5477164 0.3682324 0.7512734
vn -0.2902202 0.5927568 0.7512734
vn -0.7091885 0.7050189 0
vn -0.2902202 0.5927568 -0.7512734
vn 0.5477164 0.3682324 -0.7512734
vn -0.1243712 0.8110189 -0.5716469
vn -0.4431659 0.8964397 0
vn 0.513218 0.6401774 0.5716469
vn 0.513218 0.6401774 -0.5716469
vn 0.8320127 0.5547566 0
vn -0.1243712 0.8110189 0.5716469

vt -0.5 -0.2886751
vt -0.5 -0.1943376
vt 0.5 -0.2886751
vt 0.5 -0.1943376
vt -0.1943376 0.3
vt -0.1943376 3.609557E-16
vt -0.3943376 0.3
vt -0.2886751 0
vt -0.3943376 0.15
vt 0.5 0
vt -0.5 0
vt 0.5 0.15
vt -0.5 0.15
vt 0.4 0.15
vt -0.1 0.15
vt 0.1 0.15
vt -0.4 0.15
vt -0.5 0.3
vt -0.4 0.3
vt 0.4 0.3943376
vt 0.5 0.3943376
vt 0.4 0.1943376
vt 0.5 0.1943376
vt -0.5 0.3943376
vt -0.4 0.3943376
vt -0.5 0.1943376
vt -0.4 0.1943376
vt -0.1 0.1943376
vt -0.1 0.3943376
vt 0.1 0.1943376
vt 0.1 0.3943376
vt -0.1 -0.3943376
vt -0.1 -0.1943376
vt 0.1 -0.3943376
vt 0.1 -0.1943376
vt -0.4 -0.1943376
vt -0.5 -0.3943376
vt -0.4 -0.3943376
vt 0.4 -0.1943376
vt 0.4 -0.3943376
vt 0.5 -0.3943376
vt -0.5 3.609557E-16
vt 0.5 3.609557E-16
vt 0.5 0.3
vt 0.4 0.3
vt 0.1 0.3
vt -0.1 0.3
vt -0.1943376 0.15
vt 0.1943376 0.15
vt 0.1943376 0.3
vt 0.3943376 0.15
vt 0.3943376 0.3
vt 0.2886751 0
vt 0.1943376 3.609557E-16
vt -0.5 0.2886751
vt 0.5 0.2886751
vt -0.4829628 0.2886751
vt -0.2903143 -0.08676291
vt -0.4829628 -0.2886751
vt -0.2177357 -0.2169073
vt -1.157539E-13 -0.5773503
vt -0.07257857 -0.3036702
vt 0.07257857 -0.3036702
vt 0.4829628 -0.2886751
vt 0.2177357 -0.2169073
vt 0.2903143 -0.08676291
vt 0.2903143 0.08676291
vt -0.2903143 0.08676291
vt -0.2177357 0.2169073
vt 1.303975E-13 0.5773503
vt -0.07257857 0.3036702
vt 0.07257857 0.3036702
vt 0.4829628 0.2886751
vt 0.2177357 0.2169073
vt -0.2886751 0.1603681
vt -0.1443376 0.01547922
vt -0.2886751 -0.1294096
vt 0.2886751 -0.1294096
vt 0.1443376 0.01547922
vt 0.1443376 0.1603681
vt 0.2886751 0.1603681
vt -0.1443376 0.1603681
vt 1.303975E-13 -3.493993E-14
vt 0.401045 0.04783163
vt 0.4829628 -0.1294096
vt 0.5606086 0.1603681
vt 0.4398679 0.1927205
vt 0.1595636 0.1125364
vt 0.07764578 0.2897777
vt 0.1983865 0.2574253
vt -0.4829628 0.1294096
vt -0.08191781 0.1772413
vt -0.04309493 0.3221301
vt -0.3233992 0.2419461
vt -0.405317 0.4191873
vt -0.2845763 0.3868349
vt -0.1443376 0.4191873
vt -0.1443376 0.2742985
vt -0.2886751 0.4191873
vt -0.2886751 0.1294096
vt 0.1443376 0.2742985
vt 0.2886751 0.1294096
vt 0.1443376 0.4191873
vt 0.2886751 0.4191873
vt 1.157539E-13 3.10162E-14
vt 0.3233992 0.2419461
vt 0.4829628 0.1294096
vt 0.405317 0.4191873
vt 0.2845763 0.3868349
vt 0.08191781 0.1772413
vt -0.07764578 0.2897777
vt 0.04309493 0.3221301
vt -0.4829628 -0.1294096
vt -0.1595636 0.1125364
vt -0.1983865 0.2574253
vt -0.401045 0.04783163
vt -0.5606086 0.1603681
vt -0.4398679 0.1927205
vt -0.405317 0.2886751
vt -0.2845763 0.3608439
vt -0.405317 0.1443376
vt -0.2126685 0.08676291
vt -0.1400899 0.2169073
vt -0.04309493 0.5051815
vt 0.07764578 0.5773503
vt 0.005067207 0.3036702
vt 0.1502244 0.3036702
vt 0.1983865 0.5051815
vt 0.2953815 0.2169073
vt 0.4398679 0.3608439
vt 0.3679601 0.08676291
vt 0.5606086 0.1443376
vt 0.5606086 0.2886751
vt -0.405317 -0.1443376
vt -0.2126685 -0.08676291
vt -0.405317 -0.2886751
vt -0.2845763 -0.3608439
vt -0.1400899 -0.2169073
vt -0.04309493 -0.5051815
vt 0.005067207 -0.3036702
vt 0.07764578 -0.5773503
vt 0.1502244 -0.3036702
vt 0.1983865 -0.5051815
vt 0.2953815 -0.2169073
vt 0.3679601 -0.08676291
vt 0.4398679 -0.3608439
vt 0.5606086 -0.1443376
vt 0.5606086 -0.2886751
vt -0.2177357 0.05834217
vt -0.1789128 0.203231
vt -0.07257857 0.01944739
vt -0.03375568 0.1643362
vt -0.08676291 0.07778956
vt -0.08676291 0.2226784
vt 0.08676291 0.07778956
vt 0.08676291 0.2226784
vt 0.07257857 0.01944739
vt 0.03375568 0.1643362
vt 0.2177357 0.05834217
vt 0.1789128 0.203231
vt -0.07257857 -0.01944739
vt -0.2177357 -0.05834217
vt -0.1114015 0.1254415
vt -0.2565586 0.08654668
vt 0.08676291 0.0670993
vt 0.08676291 -0.07778956
vt -0.08676291 0.0670993
vt -0.08676291 -0.07778956
vt 0.07257857 -0.01944739
vt 0.1114015 0.1254415
vt 0.2177357 -0.05834217
vt 0.2565586 0.08654668
vt -0.3233992 0.3608439
vt -0.08191781 0.5051815
vt -0.1789128 0.2169073
vt -0.03375568 0.3036702
vt -0.3036702 0.3092251
vt -0.3036702 0.1643362
vt -0.5051815 0.3221301
vt -0.5051815 0.1772413
vt 0.1400899 0.3481199
vt -0.4441399 0.1443376
vt -0.2514914 0.08676291
vt -0.4441399 -0.1443376
vt -0.2514914 -0.08676291
vt -0.2514914 0.2226784
vt -0.4441399 0.2742985
vt -0.2126685 0.3675673
vt 0.4441399 0.2742985
vt 0.2514914 0.2226784
vt 0.2126685 0.3675673
vt -0.3233992 -0.3608439
vt -0.1789128 -0.2169073
vt -0.08191781 -0.5051815
vt -0.03375568 -0.3036702
vt -0.1400899 0.3481199
vt 0.5051815 0.3221301
vt 0.5051815 0.1772413
vt 0.3036702 0.3092251
vt 0.3036702 0.1643362
vt 0.1114015 -0.3036702
vt 0.2565586 -0.2169073
vt 0.1595636 -0.5051815
vt 0.401045 -0.3608439
vt -0.5051815 0.1125364
vt -0.5051815 0.2574253
vt -0.3036702 0.1254415
vt -0.3036702 0.2703303
vt 0.2953815 0.2314355
vt 0.3291372 0.08676291
vt 0.5217857 0.1443376
vt 0.3291372 -0.08676291
vt 0.5217857 -0.1443376
vt 0.5217857 0.01547922
vt 0.3291372 0.0670993
vt 0.3679601 0.2119882
vt -0.3291372 0.0670993
vt -0.5217857 0.01547922
vt -0.3679601 0.2119882
vt 0.1114015 0.3036702
vt 0.1595636 0.5051815
vt 0.2565586 0.2169073
vt 0.401045 0.3608439
vt -0.2953815 0.2314355
vt 0.3036702 0.1254415
vt 0.3036702 0.2703303
vt 0.5051815 0.1125364
vt 0.5051815 0.2574253
vt -0.08676291 0.2119882
vt -0.2169073 0.2314355
vt -0.2169073 -0.05834217
vt 0.2169073 0.2314355
vt 0.2169073 0.08654668
vt 0.08676291 0.2119882
vt 0.2169073 -0.05834217
vt -0.2903143 -0.07778956
vt -0.005067207 0.3092251
vt -0.1502244 0.2703303
vt -0.2169073 0.05834217
vt -0.2169073 0.203231
vt -0.2169073 0.3481199
vt -0.08676291 0.3675673
vt 0.2903143 0.07778956
vt 0.2169073 0.05834217
vt 0.08676291 0.3675673
vt 0.2169073 0.3481199
vt 0.1502244 0.2703303
vt 0.005067207 0.3092251
vt -1.198373E-13 -0.5773503
vt 1.357193E-13 0.5773503
vt -1.443823E-13 -0.6928203
vt 0.6 -0.3464102
vt -0.6 -0.3464102
vt -0.6 0.3464102
vt 1.602643E-13 0.6928203
vt 0.6 0.3464102
vt -0.3464102 0.1
vt -0.3464102 0.2
vt 0.3464102 0.1
vt 0.3464102 0.2
vt 1.443823E-13 0.1
vt -0.6 0.1
vt 1.443823E-13 0.2
vt -0.6 0.2
vt 0.6 0.1
vt 0.6 0.2
vt 1.602643E-13 0.1
vt 1.602643E-13 0.2
vt 0.5349209 0.2759257
vt 1.270564E-13 0.2759257
vt 0.3088367 0.2759257
vt -0.3088367 0.2759257
vt 1.443823E-13 0.2759257
vt -0.5349209 0.2759257
vt 1.443823E-15 1
vt 0.1695189 0.4879628
vt -0.1695189 0.4879628
vt 0.2936154 0.4879628
vt 6.064056E-14 0.4879628
vt -7.219114E-15 1
vt -0.2936154 0.4879628
vt -1.443823E-15 1
vt 9.240466E-14 0.4879628
vt 7.219114E-15 1
vt 9.240466E-14 -0.3390379
vt 0.2936154 -0.1695189
vt 1.443823E-13 -0.6176734
vt 0.5349209 -0.3088367
vt 0.2936154 0.1695189
vt 0.5349209 0.3088367
vt -0.5349209 0.3088367
vt -1.270564E-13 0.6176734
vt -0.2936154 0.1695189
vt -6.064056E-14 0.3390379
vt -0.5349209 -0.3088367
vt -0.2936154 -0.1695189

usemtl bricks

f 3/3/1 2/2/1 1/1/1
f 2/2/1 3/3/1 4/4/1
f 6/7/2 2/6/2 5/5/2
f 2/6/2 6/7/2 1/8/2
f 1/8/2 6/7/2 7/9/2
f 7/12/3 3/11/3 1/10/3
f 3/11/3 7/12/3 8/13/3
f 8/13/3 7/12/3 9/14/3
f 8/13/3 9/14/3 10/15/3
f 10/15/3 9/14/3 11/16/3
f 12/17/3 8/13/3 10/15/3
f 15/8/4 14/7/4 13/9/4
f 14/7/4 15/8/4 16/5/4
f 16/5/4 15/8/4 17/6/4
f 13/12/5 18/11/5 15/10/5
f 18/11/5 13/12/5 19/13/5
f 19/12/5 13/13/5 20/17/5
f 19/12/5 20/17/5 21/15/5
f 19/12/5 21/15/5 22/16/5
f 19/12/5 22/16/5 23/14/5
f 12/17/6 24/18/6 8/13/6
f 24/18/6 12/17/6 25/19/6
f 26/19/7 19/13/7 23/17/7
f 19/13/7 26/19/7 27/18/7
f 28/22/8 24/21/8 25/20/8
f 24/21/8 28/22/8 29/23/8
f 5/26/8 30/25/8 6/24/8
f 30/25/8 5/26/8 31/27/8
f 34/30/8 33/29/8 32/28/8
f 33/29/8 34/30/8 35/31/8
f 38/34/8 37/33/8 36/32/8
f 37/33/8 38/34/8 39/35/8
f 27/37/8 41/36/8 40/2/8
f 41/36/8 27/37/8 26/38/8
f 43/40/8 16/4/8 42/39/8
f 16/4/8 43/40/8 14/41/8
f 4/43/7 44/14/7 2/42/7
f 44/14/7 4/43/7 29/44/7
f 44/14/7 29/44/7 28/45/7
f 45/16/7 2/42/7 44/14/7
f 46/17/7 2/42/7 45/16/7
f 2/42/7 46/17/7 5/18/7
f 46/14/7 45/15/7 47/16/7
f 34/46/7 47/15/7 45/16/7
f 47/15/7 34/46/7 32/47/7
f 5/18/7 46/17/7 31/19/7
f 49/43/6 48/14/6 17/42/6
f 48/14/6 49/43/6 40/44/6
f 48/14/6 40/44/6 41/45/6
f 50/17/6 17/42/6 48/14/6
f 17/42/6 50/17/6 16/18/6
f 50/17/6 48/14/6 51/16/6
f 50/17/6 51/16/6 52/15/6
f 37/46/6 52/15/6 51/16/6
f 52/15/6 37/46/6 39/47/6
f 16/18/6 50/17/6 42/19/6
f 46/27/8 11/29/8 9/25/8
f 11/29/8 46/27/8 47/28/8
f 33/7/2 47/48/2 32/5/2
f 47/48/2 33/7/2 11/9/2
f 9/51/4 31/50/4 46/49/4
f 31/50/4 9/51/4 30/52/4
f 44/22/8 10/31/8 45/30/8
f 10/31/8 44/22/8 12/20/8
f 25/7/2 44/48/2 28/5/2
f 44/48/2 25/7/2 12/9/2
f 10/51/4 34/50/4 45/49/4
f 34/50/4 10/51/4 35/52/4
f 20/40/8 52/35/8 21/34/8
f 52/35/8 20/40/8 50/39/8
f 52/48/4 38/7/4 21/9/4
f 38/7/4 52/48/4 39/5/4
f 42/50/2 20/51/2 43/52/2
f 20/51/2 42/50/2 50/49/2
f 23/38/8 51/33/8 48/36/8
f 51/33/8 23/38/8 22/32/8
f 37/50/2 22/51/2 36/52/2
f 22/51/2 37/50/2 51/49/2
f 48/48/4 26/7/4 23/9/4
f 26/7/4 48/48/4 41/5/4
f 40/50/2 19/51/2 27/52/2
f 19/51/2 40/50/2 18/53/2
f 18/53/2 40/50/2 49/54/2
f 3/53/4 29/50/4 4/54/4
f 29/50/4 3/53/4 24/52/4
f 24/52/4 3/53/4 8/51/4
f 17/23/1 18/55/1 49/26/1
f 18/55/1 17/23/1 15/56/1
f 38/46/7 22/15/7 21/16/7
f 22/15/7 38/46/7 36/47/7
f 14/44/7 20/14/7 13/12/7
f 20/14/7 14/44/7 43/45/7
f 6/44/6 9/14/6 7/12/6
f 9/14/6 6/44/6 30/45/6
f 11/16/6 35/47/6 10/15/6
f 35/47/6 11/16/6 33/46/6
f 55/59/9 54/58/9 53/57/9
f 54/58/9 55/59/9 56/60/9
f 56/60/9 55/59/9 57/61/9
f 56/60/9 57/61/9 58/62/9
f 58/62/9 57/61/9 59/63/9
f 59/63/9 57/61/9 60/64/9
f 59/63/9 60/64/9 61/65/9
f 61/65/9 60/64/9 62/66/9
f 62/66/9 60/64/9 63/67/9
f 64/68/9 53/57/9 54/58/9
f 65/69/9 53/57/9 64/68/9
f 53/57/9 65/69/9 66/70/9
f 66/70/9 65/69/9 67/71/9
f 66/70/9 67/71/9 68/72/9
f 66/70/9 68/72/9 69/73/9
f 69/73/9 63/67/9 60/64/9
f 69/73/9 68/72/9 70/74/9
f 69/73/9 70/74/9 63/67/9
f 69/77/10 72/76/10 71/75/10
f 72/76/10 69/77/10 60/78/10
f 72/76/10 60/78/10 73/79/10
f 73/79/10 60/78/10 74/80/10
f 74/80/10 60/78/10 75/81/10
f 76/82/10 71/75/10 72/76/10
f 69/85/11 77/84/11 66/83/11
f 77/84/11 69/85/11 71/86/11
f 77/84/11 71/86/11 78/87/11
f 79/88/11 66/83/11 77/84/11
f 66/83/11 79/88/11 80/89/11
f 80/89/11 79/88/11 81/90/11
f 66/83/12 82/92/12 53/91/12
f 82/92/12 66/83/12 80/89/12
f 82/92/12 80/89/12 83/93/12
f 84/94/12 53/91/12 82/92/12
f 53/91/12 84/94/12 85/95/12
f 85/95/12 84/94/12 86/96/12
f 89/99/13 88/98/13 87/97/13
f 55/100/13 88/98/13 89/99/13
f 55/100/13 90/101/13 88/98/13
f 53/102/13 90/101/13 55/100/13
f 53/102/13 91/103/13 90/101/13
f 91/103/13 53/102/13 85/104/13
f 55/107/14 92/106/14 57/105/14
f 92/106/14 55/107/14 89/108/14
f 92/106/14 89/108/14 93/109/14
f 94/110/14 57/105/14 92/106/14
f 57/105/14 94/110/14 95/111/14
f 95/111/14 94/110/14 96/112/14
f 57/105/15 97/114/15 60/113/15
f 97/114/15 57/105/15 95/111/15
f 97/114/15 95/111/15 98/115/15
f 99/116/15 60/113/15 97/114/15
f 60/113/15 99/116/15 75/117/15
f 75/117/15 99/116/15 100/118/15
f 87/121/16 93/120/16 89/119/16
f 93/120/16 87/121/16 101/122/16
f 93/120/16 101/122/16 102/123/16
f 103/126/16 95/125/16 96/124/16
f 95/125/16 103/126/16 104/127/16
f 95/125/16 104/127/16 98/128/16
f 106/131/16 100/130/16 105/129/16
f 100/130/16 106/131/16 74/132/16
f 100/130/16 74/132/16 75/133/16
f 85/136/16 107/135/16 91/134/16
f 107/135/16 85/136/16 86/137/16
f 107/135/16 86/137/16 108/138/16
f 80/141/16 109/140/16 83/139/16
f 109/140/16 80/141/16 110/142/16
f 110/142/16 80/141/16 81/143/16
f 78/146/16 112/145/16 111/144/16
f 112/145/16 78/146/16 76/147/16
f 76/147/16 78/146/16 71/148/16
f 58/151/11 113/150/11 56/149/11
f 113/150/11 58/151/11 114/152/11
f 54/155/10 115/154/10 64/153/10
f 115/154/10 54/155/10 116/156/10
f 65/159/15 117/158/15 67/157/15
f 117/158/15 65/159/15 118/160/15
f 119/163/14 70/162/14 68/161/14
f 70/162/14 119/163/14 120/164/14
f 122/167/13 63/166/13 121/165/13
f 63/166/13 122/167/13 62/168/13
f 61/171/12 123/170/12 59/169/12
f 123/170/12 61/171/12 124/172/12
f 113/175/16 94/174/16 92/173/16
f 94/174/16 113/175/16 114/176/16
f 96/179/17 114/178/17 103/177/17
f 114/178/17 96/179/17 94/180/17
f 93/109/18 113/160/18 92/106/18
f 113/160/18 93/109/18 102/181/18
f 90/184/16 116/183/16 88/182/16
f 116/183/16 90/184/16 115/185/16
f 101/188/19 88/187/19 116/186/19
f 88/187/19 101/188/19 87/95/19
f 91/108/20 115/190/20 90/189/20
f 115/190/20 91/108/20 107/191/20
f 82/194/16 118/193/16 84/192/16
f 118/193/16 82/194/16 117/195/16
f 108/196/21 84/94/21 118/150/21
f 84/94/21 108/196/21 86/96/21
f 109/199/22 82/198/22 83/197/22
f 82/198/22 109/199/22 117/200/22
f 79/203/16 120/202/16 119/201/16
f 120/202/16 79/203/16 77/204/16
f 119/207/23 81/206/23 79/205/23
f 81/206/23 119/207/23 110/208/23
f 78/87/24 120/172/24 77/84/24
f 120/172/24 78/87/24 111/209/24
f 121/212/16 73/211/16 122/210/16
f 73/211/16 121/212/16 72/213/16
f 74/86/25 122/215/25 73/214/25
f 122/215/25 74/86/25 106/216/25
f 112/219/26 72/218/26 121/217/26
f 72/218/26 112/219/26 76/117/26
f 124/222/16 97/221/16 123/220/16
f 97/221/16 124/222/16 99/223/16
f 105/224/27 99/116/27 124/164/27
f 99/116/27 105/224/27 100/118/27
f 97/227/28 104/226/28 123/225/28
f 104/226/28 97/227/28 98/228/28
f 105/230/29 122/167/29 106/229/29
f 122/167/29 105/230/29 62/168/29
f 62/168/29 105/230/29 61/231/29
f 61/162/29 105/224/29 124/164/29
f 112/234/30 120/233/30 111/232/30
f 120/233/30 112/234/30 70/235/30
f 70/235/30 112/234/30 63/166/30
f 63/236/30 112/219/30 121/217/30
f 117/158/31 68/161/31 67/157/31
f 68/161/31 117/158/31 119/163/31
f 119/163/31 117/158/31 109/237/31
f 119/163/31 109/237/31 110/238/31
f 64/153/32 118/240/32 65/239/32
f 118/240/32 64/153/32 108/241/32
f 108/241/32 64/153/32 107/242/32
f 107/191/32 64/243/32 115/190/32
f 56/244/33 116/156/33 54/155/33
f 116/156/33 56/244/33 101/245/33
f 101/245/33 56/244/33 102/246/33
f 102/181/33 56/159/33 113/160/33
f 123/170/34 58/151/34 59/169/34
f 58/151/34 123/170/34 114/152/34
f 114/152/34 123/170/34 104/247/34
f 114/152/34 104/247/34 103/248/34
f 127/249/35 126/55/35 125/1/35
f 126/55/35 127/249/35 128/250/35
f 128/250/35 127/249/35 129/3/35
f 128/250/35 129/3/35 130/56/35
f 132/252/36 127/249/36 131/251/36
f 127/249/36 132/252/36 129/3/36
f 131/251/37 125/1/37 133/253/37
f 125/1/37 131/251/37 127/249/37
f 125/1/38 134/254/38 133/253/38
f 134/254/38 125/1/38 126/55/38
f 126/55/39 135/255/39 134/254/39
f 135/255/39 126/55/39 128/250/39
f 130/56/40 135/255/40 128/250/40
f 135/255/40 130/56/40 136/256/40
f 132/252/41 130/56/41 129/3/41
f 130/56/41 132/252/41 136/256/41
f 132/259/42 137/258/42 136/257/42
f 137/258/42 132/259/42 138/260/42
f 139/263/43 132/262/43 131/261/43
f 132/262/43 139/263/43 138/264/43
f 140/266/44 131/261/44 133/265/44
f 131/261/44 140/266/44 139/263/44
f 140/258/45 134/259/45 141/260/45
f 134/259/45 140/258/45 133/257/45
f 142/268/46 134/262/46 135/267/46
f 134/262/46 142/268/46 141/264/46
f 137/266/47 135/267/47 136/265/47
f 135/267/47 137/266/47 142/268/47
f 143/269/48 139/263/48 140/266/48
f 139/263/48 143/269/48 144/270/48
f 145/271/49 140/258/49 141/260/49
f 140/258/49 145/271/49 143/272/49
f 146/273/50 141/264/50 142/268/50
f 141/264/50 146/273/50 145/274/50
f 147/269/51 142/268/51 137/266/51
f 142/268/51 147/269/51 146/273/51
f 138/260/52 147/272/52 137/258/52
f 147/272/52 138/260/52 148/271/52
f 144/270/53 138/264/53 139/263/53
f 138/264/53 144/270/53 148/274/53
f 151/277/54 150/276/54 149/275/54
f 149/280/55 152/279/55 151/278/55
f 149/280/56 153/281/56 152/279/56
f 153/276/57 149/282/57 154/277/57
f 149/284/58 155/283/58 154/278/58
f 149/284/59 150/281/59 155/283/59
f 146/287/60 154/286/60 155/285/60
f 154/286/60 146/287/60 147/288/60
f 154/286/61 148/290/61 153/289/61
f 148/290/61 154/286/61 147/288/61
f 151/293/62 144/292/62 143/291/62
f 144/292/62 151/293/62 152/294/62
f 146/287/63 150/296/63 145/295/63
f 150/296/63 146/287/63 155/285/63
f 145/295/64 151/293/64 143/291/64
f 151/293/64 145/295/64 150/296/64
f 152/294/65 148/290/65 144/292/65
f 148/290/65 152/294/65 153/289/65

