# Created by Kenney (www.kenney.nl)

mtllib Workbench.mtl

g mergedBlocks

v -2.683 0 -0.10028
v -2.683 0 -0.4060402
v -2.816 0 -0.10028
v -2.816 0 -0.4060402
v -5.343 0 -0.10028
v -5.343 0.904995 -0.10028
v -5.21 2.569306E-10 -0.10028
v -5.21 0.904995 -0.10028
v -5.21 2.569306E-10 -0.4060402
v -5.343 0 -0.4060402
v -5.21 0.904995 -0.4060402
v -5.21 0.51714 -0.3296001
v -5.21 0.51714 -0.1767201
v -5.21 0.25857 -0.1767201
v -5.21 0.25857 -0.3296001
v -2.816 0.904995 -0.4060402
v -2.816 0.25857 -0.3296001
v -2.816 0.25857 -0.1767201
v -2.816 0.51714 -0.1767201
v -2.816 0.51714 -0.3296001
v -2.816 0.904995 -0.10028
v -5.343 0.904995 -0.4060402
v -2.683 0.904995 -0.10028
v -2.683 0.904995 -0.4060402
v -2.55 0.904995 -0.7118003
v -2.55 0.904995 0.2054799
v -5.476 0.904995 0.2054799
v -5.476 0.904995 -0.7118003
v -5.476 1.03428 -0.7118003
v -2.55 1.03428 -0.7118003
v -5.476 1.03428 0.2054799
v -2.55 1.03428 0.2054799

vn 0 -1 0
vn 0 0 1
vn 1 0 0
vn -1 0 0
vn 0 0 -1
vn 0 1 0

vt 2.583 0.50028
vt 2.583 0.80604
vt 2.716 0.50028
vt 2.716 0.80604
vt -5.243 0
vt -5.243 0.904995
vt -5.11 2.569306E-10
vt -5.11 0.904995
vt 5.11 0.50028
vt 5.11 0.80604
vt 5.243 0.50028
vt 5.243 0.80604
vt 0.80604 0.904995
vt 0.7296 0.51714
vt 0.50028 0.904995
vt 0.5767201 0.51714
vt 0.5767201 0.25857
vt 0.50028 2.569306E-10
vt 0.7296 0.25857
vt 0.80604 2.569306E-10
vt -0.80604 0.904995
vt -0.7296 0.25857
vt -0.80604 0
vt -0.50028 0
vt -0.5767201 0.25857
vt -0.5767201 0.51714
vt -0.7296 0.51714
vt -0.50028 0.904995
vt -2.583 0
vt -2.716 0
vt -2.583 0.904995
vt -2.716 0.904995
vt 0.80604 0
vt 0.50028 0
vt 2.716 0
vt 2.583 0
vt 2.716 0.904995
vt 2.583 0.904995
vt 5.243 0
vt 5.11 2.569306E-10
vt 5.243 0.904995
vt 5.11 0.904995
vt 2.716 0.5767201
vt 2.716 0.7296
vt 5.11 0.5767201
vt 5.11 0.7296
vt 2.716 -0.7296
vt 2.716 -0.5767201
vt 5.11 -0.7296
vt 5.11 -0.5767201
vt -5.11 0.25857
vt -5.11 0.51714
vt -2.716 0.25857
vt -2.716 0.51714
vt 5.11 0.25857
vt 2.716 0.25857
vt 5.11 0.51714
vt 2.716 0.51714
vt 2.45 1.1118
vt 2.45 0.1945201
vt 5.376 0.1945201
vt 5.376 1.1118
vt 5.376 0.904995
vt 2.45 0.904995
vt 5.376 1.03428
vt 2.45 1.03428
vt -1.1118 0.904995
vt -1.1118 1.03428
vt -0.1945201 0.904995
vt -0.1945201 1.03428
vt 1.1118 1.03428
vt 1.1118 0.904995
vt 0.1945201 1.03428
vt 0.1945201 0.904995
vt 2.45 -1.1118
vt 2.45 -0.1945201
vt 5.376 -1.1118
vt 5.376 -0.1945201
vt -2.45 0.904995
vt -5.376 0.904995
vt -2.45 1.03428
vt -5.376 1.03428

usemtl Iron_Grey_-_Light

f 3/3/1 2/2/1 1/1/1
f 2/2/1 3/3/1 4/4/1
f 7/7/2 6/6/2 5/5/2
f 6/6/2 7/7/2 8/8/2
f 5/11/1 9/10/1 7/9/1
f 9/10/1 5/11/1 10/12/1
f 8/15/3 12/14/3 11/13/3
f 12/14/3 8/15/3 13/16/3
f 13/16/3 8/15/3 14/17/3
f 14/17/3 8/15/3 7/18/3
f 15/19/3 11/13/3 12/14/3
f 7/18/3 15/19/3 14/17/3
f 9/20/3 15/19/3 7/18/3
f 15/19/3 9/20/3 11/13/3
f 4/23/4 17/22/4 16/21/4
f 17/22/4 4/23/4 3/24/4
f 17/22/4 3/24/4 18/25/4
f 18/25/4 3/24/4 19/26/4
f 20/27/4 16/21/4 17/22/4
f 16/21/4 20/27/4 21/28/4
f 21/28/4 20/27/4 19/26/4
f 21/28/4 19/26/4 3/24/4
f 5/24/4 22/21/4 10/23/4
f 22/21/4 5/24/4 6/28/4
f 23/31/2 3/30/2 1/29/2
f 3/30/2 23/31/2 21/32/2
f 23/15/3 2/33/3 24/13/3
f 2/33/3 23/15/3 1/34/3
f 16/37/5 2/36/5 4/35/5
f 2/36/5 16/37/5 24/38/5
f 22/41/5 9/40/5 10/39/5
f 9/40/5 22/41/5 11/42/5

usemtl Iron_Grey_-_Dark

f 14/45/1 17/44/1 18/43/1
f 17/44/1 14/45/1 15/46/1
f 12/49/6 19/48/6 20/47/6
f 19/48/6 12/49/6 13/50/6
f 18/53/2 13/52/2 14/51/2
f 13/52/2 18/53/2 19/54/2
f 12/57/5 17/56/5 15/55/5
f 17/56/5 12/57/5 20/58/5
f 26/60/1 23/1/1 25/59/1
f 23/1/1 26/60/1 27/61/1
f 23/1/1 27/61/1 21/3/1
f 21/3/1 27/61/1 16/4/1
f 16/4/1 27/61/1 8/9/1
f 8/9/1 27/61/1 6/11/1
f 6/11/1 27/61/1 22/12/1
f 24/2/1 25/59/1 23/1/1
f 25/59/1 24/2/1 28/62/1
f 28/62/1 24/2/1 16/4/1
f 28/62/1 22/12/1 27/61/1
f 28/62/1 16/4/1 11/10/1
f 11/10/1 16/4/1 8/9/1
f 28/62/1 11/10/1 22/12/1
f 29/65/5 25/64/5 28/63/5
f 25/64/5 29/65/5 30/66/5
f 27/69/4 29/68/4 28/67/4
f 29/68/4 27/69/4 31/70/4
f 32/73/3 25/72/3 30/71/3
f 25/72/3 32/73/3 26/74/3
f 29/77/6 32/76/6 30/75/6
f 32/76/6 29/77/6 31/78/6
f 32/81/2 27/80/2 26/79/2
f 27/80/2 32/81/2 31/82/2

