# Created by Kenney (www.kenney.nl)

mtllib Bread.mtl

g mergedBlocks

v 5.941465 3.029944 -7.108681
v 6.112443 3.029944 -7.352863
v 5.941465 3.159852 -7.108681
v 6.112443 3.159852 -7.352863
v 6.033068 3.285333 -7.04454
v 6.204046 3.285333 -7.288722
v 6.065056 3.28976 -7.022142
v 6.236034 3.28976 -7.266324
v 6.359625 3.159852 -7.179785
v 6.188647 3.159852 -6.935603
v 6.355413 3.193475 -7.182734
v 6.184435 3.193475 -6.938551
v 6.152448 3.251711 -6.960949
v 6.126851 3.272355 -6.978872
v 6.323426 3.251711 -7.205132
v 6.297829 3.272355 -7.223054
v 6.359625 3.029944 -7.179785
v 6.343067 3.224806 -7.191379
v 6.268022 3.285333 -7.243926
v 6.174238 3.272355 -7.309594
v 6.148642 3.251711 -7.327517
v 6.129001 3.224806 -7.341269
v 6.116654 3.193475 -7.349915
v 6.097044 3.285333 -6.999744
v 6.00326 3.272355 -7.065412
v 6.172089 3.224806 -6.947196
v 5.945676 3.193475 -7.105732
v 5.977664 3.251711 -7.083334
v 6.188647 3.029944 -6.935603
v 5.958023 3.224806 -7.097087
v 6.084106 3.272355 -6.917827
v 6.054299 3.285333 -6.938698
v 6.145902 3.029944 -6.874557
v 6.145902 3.159852 -6.874557
v 6.129344 3.224806 -6.886151
v 6.109703 3.251711 -6.899904
v 5.990324 3.285333 -6.983494
v 6.022311 3.28976 -6.961096
v 6.141691 3.193475 -6.877506
v 5.915278 3.224806 -7.036041
v 5.934919 3.251711 -7.022289
v 5.902932 3.193475 -7.044687
v 5.89872 3.029944 -7.047636
v 5.89872 3.159852 -7.047636
v 5.960516 3.272355 -7.004366
v 5.910434 3.029968 -7.053853
v 5.936166 3.029968 -7.090603
v 5.910434 3.166376 -7.053853
v 5.936166 3.166376 -7.090603
v 5.998405 3.298136 -6.992255
v 6.024137 3.298136 -7.029005
v 6.029124 3.302783 -6.970745
v 6.054857 3.302783 -7.007495
v 6.173547 3.166376 -6.924387
v 6.147815 3.166376 -6.887638
v 6.169503 3.201681 -6.927219
v 6.14377 3.201681 -6.89047
v 6.113051 3.26283 -6.911979
v 6.08847 3.284508 -6.929192
v 6.138783 3.26283 -6.948729
v 6.114202 3.284508 -6.965941
v 6.173547 3.029968 -6.924387
v 6.157645 3.23458 -6.935522
v 6.085576 3.298136 -6.985985
v 5.995512 3.284508 -7.049049
v 5.97093 3.26283 -7.066261
v 5.952068 3.23458 -7.079468
v 5.940211 3.201681 -7.087771
v 6.059844 3.298136 -6.949235
v 5.969779 3.284508 -7.012299
v 6.131913 3.23458 -6.898772
v 5.914478 3.201681 -7.051021
v 5.945198 3.26283 -7.029511
v 6.147815 3.029968 -6.887638
v 5.926336 3.23458 -7.042719
v 6.082036 3.284508 -6.920004
v 6.053411 3.298136 -6.940048
v 6.141381 3.029968 -6.87845
v 6.141381 3.166376 -6.87845
v 6.12548 3.23458 -6.889585
v 6.106618 3.26283 -6.902792
v 5.991972 3.298136 -6.983068
v 6.022691 3.302783 -6.961558
v 6.137337 3.201681 -6.881282
v 5.919902 3.23458 -7.033531
v 5.938765 3.26283 -7.020324
v 5.908045 3.201681 -7.041834
v 5.904001 3.029968 -7.044666
v 5.904001 3.166376 -7.044666
v 5.963346 3.284508 -7.003112
v 5.970274 3.029969 -7.139314
v 5.996006 3.029969 -7.176063
v 5.970274 3.166376 -7.139314
v 5.996006 3.166376 -7.176063
v 6.058245 3.298135 -7.077716
v 6.083977 3.298135 -7.114465
v 6.088964 3.302783 -7.056206
v 6.114697 3.302783 -7.092956
v 6.233387 3.166376 -7.009848
v 6.207655 3.166376 -6.973098
v 6.229342 3.20168 -7.01268
v 6.20361 3.20168 -6.97593
v 6.172891 3.26283 -6.99744
v 6.14831 3.284508 -7.014652
v 6.198623 3.26283 -7.034189
v 6.174042 3.284508 -7.051402
v 6.233387 3.029969 -7.009848
v 6.217485 3.234579 -7.020982
v 6.145416 3.298135 -7.071445
v 6.055352 3.284508 -7.134509
v 6.03077 3.26283 -7.151721
v 6.011908 3.234579 -7.164929
v 6.000051 3.20168 -7.173231
v 6.119684 3.298135 -7.034696
v 6.029619 3.284508 -7.09776
v 6.191753 3.234579 -6.984232
v 5.974319 3.20168 -7.136482
v 6.005038 3.26283 -7.114972
v 6.207655 3.029969 -6.973098
v 5.986176 3.234579 -7.12818
v 6.141877 3.284508 -7.005465
v 6.113251 3.298135 -7.025509
v 6.201221 3.029969 -6.963911
v 6.201221 3.166376 -6.963911
v 6.18532 3.234579 -6.975045
v 6.166458 3.26283 -6.988253
v 6.051812 3.298135 -7.068528
v 6.082531 3.302783 -7.047019
v 6.197177 3.20168 -6.966743
v 5.979743 3.234579 -7.118992
v 5.998605 3.26283 -7.105784
v 5.967885 3.20168 -7.127295
v 5.963841 3.029969 -7.130126
v 5.963841 3.166376 -7.130126
v 6.023186 3.284508 -7.088573
v 6.034389 3.029969 -7.230878
v 6.060121 3.029969 -7.267628
v 6.034389 3.166376 -7.230878
v 6.060121 3.166376 -7.267628
v 6.122359 3.298134 -7.169281
v 6.148091 3.298134 -7.206029
v 6.153079 3.302782 -7.14777
v 6.178811 3.302782 -7.18452
v 6.297501 3.166376 -7.101412
v 6.271769 3.166376 -7.064663
v 6.293457 3.20168 -7.104244
v 6.267725 3.20168 -7.067494
v 6.237005 3.26283 -7.089005
v 6.212424 3.284507 -7.106216
v 6.262737 3.26283 -7.125754
v 6.238156 3.284507 -7.142966
v 6.297501 3.029969 -7.101412
v 6.2816 3.234579 -7.112546
v 6.20953 3.298134 -7.16301
v 6.119465 3.284507 -7.226074
v 6.094884 3.262829 -7.243286
v 6.076022 3.234579 -7.256493
v 6.064165 3.20168 -7.264796
v 6.183798 3.298134 -7.126261
v 6.093733 3.284507 -7.189324
v 6.255867 3.234579 -7.075797
v 6.038433 3.20168 -7.228046
v 6.069152 3.262829 -7.206537
v 6.271769 3.029969 -7.064663
v 6.05029 3.234579 -7.219744
v 6.205991 3.284507 -7.097029
v 6.177365 3.298134 -7.117074
v 6.265336 3.029969 -7.055475
v 6.265336 3.166376 -7.055475
v 6.249434 3.234579 -7.06661
v 6.230572 3.26283 -7.079817
v 6.115926 3.298134 -7.160093
v 6.146646 3.302782 -7.138583
v 6.261292 3.20168 -7.058307
v 6.043857 3.234579 -7.210557
v 6.062719 3.262829 -7.197349
v 6.032 3.20168 -7.218859
v 6.027956 3.029969 -7.221691
v 6.027956 3.166376 -7.221691
v 6.0873 3.284507 -7.180137
v 6.089954 3.02997 -7.310235
v 6.115686 3.02997 -7.346983
v 6.089954 3.166376 -7.310235
v 6.115686 3.166376 -7.346983
v 6.177925 3.298133 -7.248637
v 6.203657 3.298133 -7.285386
v 6.208644 3.302781 -7.227127
v 6.234376 3.302781 -7.263875
v 6.353066 3.166376 -7.180768
v 6.327334 3.166376 -7.144019
v 6.349022 3.20168 -7.183599
v 6.32329 3.20168 -7.146851
v 6.292571 3.262829 -7.168361
v 6.26799 3.284506 -7.185573
v 6.318303 3.262829 -7.20511
v 6.293721 3.284506 -7.222322
v 6.353066 3.02997 -7.180768
v 6.337165 3.234578 -7.191902
v 6.265096 3.298133 -7.242366
v 6.175031 3.284506 -7.305429
v 6.15045 3.262829 -7.322642
v 6.131588 3.234578 -7.335849
v 6.11973 3.20168 -7.344151
v 6.239364 3.298133 -7.205617
v 6.149299 3.284506 -7.268681
v 6.311433 3.234578 -7.155153
v 6.093998 3.20168 -7.307403
v 6.124718 3.262829 -7.285892
v 6.327334 3.02997 -7.144019
v 6.105855 3.234578 -7.2991
v 6.261557 3.284506 -7.176385
v 6.232931 3.298133 -7.19643
v 6.320901 3.02997 -7.134831
v 6.320901 3.166376 -7.134831
v 6.305 3.234578 -7.145966
v 6.286138 3.262829 -7.159173
v 6.171492 3.298133 -7.239449
v 6.202211 3.302781 -7.217939
v 6.316857 3.20168 -7.137663
v 6.099422 3.234578 -7.289913
v 6.118285 3.262829 -7.276705
v 6.087565 3.20168 -7.298215
v 6.083521 3.02997 -7.301047
v 6.083521 3.166376 -7.301047
v 6.142866 3.284506 -7.259493

vn -0.8191522 -7.32379E-08 -0.5735762
vn -0.8167891 0.07590324 -0.5719215
vn -0.1841493 0.9744038 -0.1289427
vn -7.323791E-08 1 -5.128171E-08
vn 0.8167891 0.07590338 0.5719215
vn 0.7821535 0.2971433 0.5476694
vn 0.5344837 0.7578024 0.3742493
vn 0.3646396 0.8954597 0.2553232
vn 0.5735762 5.128171E-08 -0.8191522
vn 0.1841492 0.9744039 0.1289426
vn -0.3646397 0.8954595 -0.2553233
vn 0.6803567 0.5569261 0.4763906
vn -0.7821535 0.2971432 -0.5476694
vn -0.5344839 0.7578023 -0.3742494
vn 0.8191522 7.32379E-08 0.5735762
vn 7.323791E-08 -1 5.128171E-08
vn -0.6803568 0.556926 -0.4763907
vn -0.5735762 -5.128171E-08 0.8191522
vn -0.8191522 -7.323792E-08 -0.5735762
vn -0.8171742 0.06945286 -0.5721912
vn -0.2003596 0.9696257 -0.1402932
vn -7.323792E-08 1 -5.128171E-08
vn 0.8171741 0.069453 0.5721911
vn 0.787862 0.273747 0.5516666
vn 0.5614986 0.7281073 0.3931653
vn 0.391188 0.8786034 0.2739126
vn 0.5735763 5.128171E-08 -0.8191522
vn 0.2003594 0.9696257 0.1402931
vn -0.3911881 0.8786033 -0.2739127
vn 0.6982965 0.5227884 0.4889522
vn -0.7878621 0.2737469 -0.5516666
vn -0.5614988 0.7281072 -0.3931654
vn 0.8191522 7.323792E-08 0.5735762
vn 7.323792E-08 -1 5.128171E-08
vn -0.6982966 0.5227882 -0.4889522
vn -0.5735763 -5.128171E-08 0.8191522
vn -0.8191522 -7.323792E-08 -0.5735762
vn -0.8171741 0.0694532 -0.5721911
vn -0.2003586 0.9696259 -0.1402925
vn 0.8171741 0.06945335 0.5721911
vn 0.7878618 0.2737482 0.5516663
vn 0.5614972 0.728109 0.3931643
vn 0.3911865 0.8786044 0.2739115
vn 0.5735762 5.128171E-08 -0.8191522
vn 0.2003585 0.9696259 0.1402924
vn -0.3911867 0.8786043 -0.2739117
vn 0.6982957 0.5227903 0.4889515
vn -0.7878618 0.2737481 -0.5516663
vn -0.5614973 0.7281089 -0.3931644
vn 0.8191522 7.323792E-08 0.5735762
vn -0.6982957 0.5227901 -0.4889515
vn -0.5735762 -5.128171E-08 0.8191522
vn -0.8191522 -7.323791E-08 -0.5735762
vn -0.8171741 0.06945363 -0.5721911
vn -0.2003575 0.9696262 -0.1402917
vn 0.8171741 0.06945378 0.5721911
vn 0.7878613 0.2737498 0.5516661
vn 0.5614953 0.7281111 0.3931631
vn 0.3911846 0.8786056 0.2739103
vn 0.5735762 5.128172E-08 -0.8191522
vn 0.2003573 0.9696262 0.1402916
vn -0.3911848 0.8786055 -0.2739104
vn 0.6982944 0.5227926 0.4889508
vn -0.7878613 0.2737497 -0.5516661
vn -0.5614954 0.728111 -0.3931631
vn 0.8191522 7.323791E-08 0.5735762
vn -0.6982945 0.5227925 -0.4889508
vn -0.5735762 -5.128172E-08 0.8191522
vn -0.8191522 -7.323792E-08 -0.5735762
vn -0.8171741 0.0694541 -0.5721911
vn -0.2003562 0.9696267 -0.1402908
vn -7.323791E-08 1 -5.128171E-08
vn 0.8171741 0.06945425 0.5721911
vn 0.7878609 0.2737516 0.5516658
vn 0.5614932 0.7281135 0.3931616
vn 0.3911825 0.8786069 0.2739088
vn 0.5735762 5.128171E-08 -0.8191522
vn 0.2003561 0.9696267 0.1402907
vn -0.3911827 0.8786069 -0.2739089
vn 0.6982931 0.5227953 0.4889498
vn -0.787861 0.2737514 -0.5516659
vn -0.5614934 0.7281134 -0.3931617
vn 0.8191522 7.323792E-08 0.5735762
vn 7.323791E-08 -1 5.128171E-08
vn -0.6982932 0.5227951 -0.4889498
vn -0.5735762 -5.128171E-08 0.8191522

vt -7.252198 3.029971
vt -7.29706 3.029971
vt -7.252199 3.166376
vt -7.29706 3.166376
vt -6.091717 -7.252199
vt -6.091717 -7.29706
vt -6.129219 -7.252199
vt -6.129219 -7.29706
vt 7.29706 3.166376
vt 7.252199 3.166376
vt 7.29706 3.20168
vt 7.252199 3.20168
vt -6.231674 -7.252199
vt -6.201665 -7.252199
vt -6.231674 -7.29706
vt -6.201665 -7.29706
vt -6.274113 3.029971
vt -6.274113 3.166376
vt -5.984324 3.029971
vt -6.269176 3.20168
vt -6.2547 3.234578
vt -6.231674 3.262828
vt -6.201665 3.284505
vt -6.16672 3.298132
vt -6.129219 3.30278
vt -6.091717 3.298132
vt -6.056772 3.284505
vt -6.026763 3.262828
vt -6.003737 3.234578
vt -5.989262 3.20168
vt -5.984324 3.166376
vt -6.16672 -7.252199
vt -6.16672 -7.29706
vt -6.056772 -7.252199
vt -6.056772 -7.29706
vt 7.29706 3.234578
vt 7.252199 3.234578
vt 7.29706 3.262828
vt 7.252199 3.262828
vt -7.252199 3.20168
vt -7.29706 3.20168
vt -6.026763 -7.252199
vt -6.026763 -7.29706
vt 7.29706 3.029971
vt 7.252198 3.029971
vt -5.984324 7.252198
vt -6.274113 7.252198
vt -5.984324 7.29706
vt -6.274113 7.29706
vt -7.252199 3.234578
vt -7.29706 3.234578
vt -7.252199 3.262828
vt -7.29706 3.262828
vt -6.201665 -7.240983
vt -6.16672 -7.240983
vt 7.240983 3.029971
vt 7.240983 3.166376
vt 7.240983 3.234578
vt 7.240983 3.262828
vt -6.231674 -7.240983
vt -6.091717 -7.240983
vt -6.129219 -7.240983
vt 7.240983 3.20168
vt -7.240983 3.234578
vt -7.240983 3.262828
vt -7.240983 3.20168
vt -7.240983 3.029971
vt -7.240983 3.166376
vt -6.056772 -7.240983
vt -6.026763 -7.240983
vt -5.984324 7.240983
vt -6.274113 7.240983
vt 6.274113 3.029971
vt 5.984324 3.029971
vt 6.274113 3.166376
vt 6.269176 3.20168
vt 6.2547 3.234578
vt 6.231674 3.262828
vt 6.201665 3.284505
vt 6.16672 3.298132
vt 6.129219 3.30278
vt 6.091717 3.298132
vt 6.056772 3.284505
vt 6.026763 3.262828
vt 6.003737 3.234578
vt 5.989262 3.20168
vt 5.984324 3.166376

usemtl woodDark

f 3/3/2 2/2/1 1/1/1
f 2/2/1 3/3/2 4/4/2
f 7/7/4 6/6/3 5/5/3
f 6/6/3 7/7/4 8/8/4
f 11/11/6 10/10/5 9/9/5
f 10/10/5 11/11/6 12/12/6
f 15/15/7 14/14/8 13/13/7
f 14/14/8 15/15/7 16/16/8
f 2/19/9 9/18/9 17/17/9
f 9/18/9 2/19/9 11/20/9
f 11/20/9 2/19/9 18/21/9
f 18/21/9 2/19/9 15/22/9
f 15/22/9 2/19/9 16/23/9
f 16/23/9 2/19/9 19/24/9
f 19/24/9 2/19/9 8/25/9
f 8/25/9 2/19/9 6/26/9
f 6/26/9 2/19/9 20/27/9
f 20/27/9 2/19/9 21/28/9
f 21/28/9 2/19/9 22/29/9
f 22/29/9 2/19/9 23/30/9
f 23/30/9 2/19/9 4/31/9
f 16/16/8 24/32/10 14/14/8
f 24/32/10 16/16/8 19/33/10
f 6/6/3 25/34/11 5/5/3
f 25/34/11 6/6/3 20/35/11
f 15/38/7 26/37/12 18/36/12
f 26/37/12 15/38/7 13/39/7
f 27/40/13 4/4/2 3/3/2
f 4/4/2 27/40/13 23/41/13
f 20/35/11 28/42/14 25/34/11
f 28/42/14 20/35/11 21/43/14
f 18/36/12 12/12/6 11/11/6
f 12/12/6 18/36/12 26/37/12
f 9/9/5 29/45/15 17/44/15
f 29/45/15 9/9/5 10/10/5
f 2/48/16 29/47/16 1/46/16
f 29/47/16 2/48/16 17/49/16
f 30/50/17 23/41/13 27/40/13
f 23/41/13 30/50/17 22/51/17
f 28/52/14 22/51/17 30/50/17
f 22/51/17 28/52/14 21/53/14
f 24/32/10 8/8/4 7/7/4
f 8/8/4 24/32/10 19/33/10
f 14/14/8 32/55/10 31/54/8
f 32/55/10 14/14/8 24/32/10
f 10/10/5 33/56/15 29/45/15
f 33/56/15 10/10/5 34/57/5
f 13/39/7 35/58/12 26/37/12
f 35/58/12 13/39/7 36/59/7
f 13/13/7 31/54/8 36/60/7
f 31/54/8 13/13/7 14/14/8
f 38/62/4 5/5/3 37/61/3
f 5/5/3 38/62/4 7/7/4
f 26/37/12 39/63/6 12/12/6
f 39/63/6 26/37/12 35/58/12
f 41/65/14 30/50/17 40/64/17
f 30/50/17 41/65/14 28/52/14
f 40/64/17 27/40/13 42/66/13
f 27/40/13 40/64/17 30/50/17
f 43/67/1 3/3/2 1/1/1
f 3/3/2 43/67/1 44/68/2
f 25/34/11 41/70/14 45/69/11
f 41/70/14 25/34/11 28/42/14
f 5/5/3 45/69/11 37/61/3
f 45/69/11 5/5/3 25/34/11
f 32/55/10 7/7/4 38/62/4
f 7/7/4 32/55/10 24/32/10
f 1/46/16 33/72/16 43/71/16
f 33/72/16 1/46/16 29/47/16
f 12/12/6 34/57/5 10/10/5
f 34/57/5 12/12/6 39/63/6
f 34/75/18 43/74/18 33/73/18
f 43/74/18 34/75/18 39/76/18
f 43/74/18 39/76/18 35/77/18
f 43/74/18 35/77/18 36/78/18
f 43/74/18 36/78/18 31/79/18
f 43/74/18 31/79/18 32/80/18
f 43/74/18 32/80/18 38/81/18
f 43/74/18 38/81/18 37/82/18
f 43/74/18 37/82/18 45/83/18
f 43/74/18 45/83/18 41/84/18
f 43/74/18 41/84/18 40/85/18
f 43/74/18 40/85/18 42/86/18
f 43/74/18 42/86/18 44/87/18
f 42/66/13 3/3/2 44/68/2
f 3/3/2 42/66/13 27/40/13

usemtl Red_Roof

f 48/3/20 47/2/19 46/1/19
f 47/2/19 48/3/20 49/4/20
f 52/7/22 51/6/21 50/5/21
f 51/6/21 52/7/22 53/8/22
f 56/11/24 55/10/23 54/9/23
f 55/10/23 56/11/24 57/12/24
f 60/15/25 59/14/26 58/13/25
f 59/14/26 60/15/25 61/16/26
f 47/19/27 54/18/27 62/17/27
f 54/18/27 47/19/27 56/20/27
f 56/20/27 47/19/27 63/21/27
f 63/21/27 47/19/27 60/22/27
f 60/22/27 47/19/27 61/23/27
f 61/23/27 47/19/27 64/24/27
f 64/24/27 47/19/27 53/25/27
f 53/25/27 47/19/27 51/26/27
f 51/26/27 47/19/27 65/27/27
f 65/27/27 47/19/27 66/28/27
f 66/28/27 47/19/27 67/29/27
f 67/29/27 47/19/27 68/30/27
f 68/30/27 47/19/27 49/31/27
f 61/16/26 69/32/28 59/14/26
f 69/32/28 61/16/26 64/33/28
f 51/6/21 70/34/29 50/5/21
f 70/34/29 51/6/21 65/35/29
f 60/38/25 71/37/30 63/36/30
f 71/37/30 60/38/25 58/39/25
f 72/40/31 49/4/20 48/3/20
f 49/4/20 72/40/31 68/41/31
f 65/35/29 73/42/32 70/34/29
f 73/42/32 65/35/29 66/43/32
f 63/36/30 57/12/24 56/11/24
f 57/12/24 63/36/30 71/37/30
f 54/9/23 74/45/33 62/44/33
f 74/45/33 54/9/23 55/10/23
f 47/48/34 74/47/34 46/46/34
f 74/47/34 47/48/34 62/49/34
f 75/50/35 68/41/31 72/40/31
f 68/41/31 75/50/35 67/51/35
f 73/52/32 67/51/35 75/50/35
f 67/51/35 73/52/32 66/53/32
f 69/32/28 53/8/22 52/7/22
f 53/8/22 69/32/28 64/33/28
f 59/14/26 77/55/28 76/54/26
f 77/55/28 59/14/26 69/32/28
f 55/10/23 78/56/33 74/45/33
f 78/56/33 55/10/23 79/57/23
f 58/39/25 80/58/30 71/37/30
f 80/58/30 58/39/25 81/59/25
f 58/13/25 76/54/26 81/60/25
f 76/54/26 58/13/25 59/14/26
f 83/62/22 50/5/21 82/61/21
f 50/5/21 83/62/22 52/7/22
f 71/37/30 84/63/24 57/12/24
f 84/63/24 71/37/30 80/58/30
f 86/65/32 75/50/35 85/64/35
f 75/50/35 86/65/32 73/52/32
f 85/64/35 72/40/31 87/66/31
f 72/40/31 85/64/35 75/50/35
f 88/67/19 48/3/20 46/1/19
f 48/3/20 88/67/19 89/68/20
f 70/34/29 86/70/32 90/69/29
f 86/70/32 70/34/29 73/42/32
f 50/5/21 90/69/29 82/61/21
f 90/69/29 50/5/21 70/34/29
f 77/55/28 52/7/22 83/62/22
f 52/7/22 77/55/28 69/32/28
f 46/46/34 78/72/34 88/71/34
f 78/72/34 46/46/34 74/47/34
f 57/12/24 79/57/23 55/10/23
f 79/57/23 57/12/24 84/63/24
f 79/75/36 88/74/36 78/73/36
f 88/74/36 79/75/36 84/76/36
f 88/74/36 84/76/36 80/77/36
f 88/74/36 80/77/36 81/78/36
f 88/74/36 81/78/36 76/79/36
f 88/74/36 76/79/36 77/80/36
f 88/74/36 77/80/36 83/81/36
f 88/74/36 83/81/36 82/82/36
f 88/74/36 82/82/36 90/83/36
f 88/74/36 90/83/36 86/84/36
f 88/74/36 86/84/36 85/85/36
f 88/74/36 85/85/36 87/86/36
f 88/74/36 87/86/36 89/87/36
f 87/66/31 48/3/20 89/68/20
f 48/3/20 87/66/31 72/40/31
f 93/3/38 92/2/37 91/1/37
f 92/2/37 93/3/38 94/4/38
f 97/7/22 96/6/39 95/5/39
f 96/6/39 97/7/22 98/8/22
f 101/11/41 100/10/40 99/9/40
f 100/10/40 101/11/41 102/12/41
f 105/15/42 104/14/43 103/13/42
f 104/14/43 105/15/42 106/16/43
f 92/19/44 99/18/44 107/17/44
f 99/18/44 92/19/44 101/20/44
f 101/20/44 92/19/44 108/21/44
f 108/21/44 92/19/44 105/22/44
f 105/22/44 92/19/44 106/23/44
f 106/23/44 92/19/44 109/24/44
f 109/24/44 92/19/44 98/25/44
f 98/25/44 92/19/44 96/26/44
f 96/26/44 92/19/44 110/27/44
f 110/27/44 92/19/44 111/28/44
f 111/28/44 92/19/44 112/29/44
f 112/29/44 92/19/44 113/30/44
f 113/30/44 92/19/44 94/31/44
f 106/16/43 114/32/45 104/14/43
f 114/32/45 106/16/43 109/33/45
f 96/6/39 115/34/46 95/5/39
f 115/34/46 96/6/39 110/35/46
f 105/38/42 116/37/47 108/36/47
f 116/37/47 105/38/42 103/39/42
f 117/40/48 94/4/38 93/3/38
f 94/4/38 117/40/48 113/41/48
f 110/35/46 118/42/49 115/34/46
f 118/42/49 110/35/46 111/43/49
f 108/36/47 102/12/41 101/11/41
f 102/12/41 108/36/47 116/37/47
f 99/9/40 119/45/50 107/44/50
f 119/45/50 99/9/40 100/10/40
f 92/48/34 119/47/34 91/46/34
f 119/47/34 92/48/34 107/49/34
f 120/50/51 113/41/48 117/40/48
f 113/41/48 120/50/51 112/51/51
f 118/52/49 112/51/51 120/50/51
f 112/51/51 118/52/49 111/53/49
f 114/32/45 98/8/22 97/7/22
f 98/8/22 114/32/45 109/33/45
f 104/14/43 122/55/45 121/54/43
f 122/55/45 104/14/43 114/32/45
f 100/10/40 123/56/50 119/45/50
f 123/56/50 100/10/40 124/57/40
f 103/39/42 125/58/47 116/37/47
f 125/58/47 103/39/42 126/59/42
f 103/13/42 121/54/43 126/60/42
f 121/54/43 103/13/42 104/14/43
f 128/62/22 95/5/39 127/61/39
f 95/5/39 128/62/22 97/7/22
f 116/37/47 129/63/41 102/12/41
f 129/63/41 116/37/47 125/58/47
f 131/65/49 120/50/51 130/64/51
f 120/50/51 131/65/49 118/52/49
f 130/64/51 117/40/48 132/66/48
f 117/40/48 130/64/51 120/50/51
f 133/67/37 93/3/38 91/1/37
f 93/3/38 133/67/37 134/68/38
f 115/34/46 131/70/49 135/69/46
f 131/70/49 115/34/46 118/42/49
f 95/5/39 135/69/46 127/61/39
f 135/69/46 95/5/39 115/34/46
f 122/55/45 97/7/22 128/62/22
f 97/7/22 122/55/45 114/32/45
f 91/46/34 123/72/34 133/71/34
f 123/72/34 91/46/34 119/47/34
f 102/12/41 124/57/40 100/10/40
f 124/57/40 102/12/41 129/63/41
f 124/75/52 133/74/52 123/73/52
f 133/74/52 124/75/52 129/76/52
f 133/74/52 129/76/52 125/77/52
f 133/74/52 125/77/52 126/78/52
f 133/74/52 126/78/52 121/79/52
f 133/74/52 121/79/52 122/80/52
f 133/74/52 122/80/52 128/81/52
f 133/74/52 128/81/52 127/82/52
f 133/74/52 127/82/52 135/83/52
f 133/74/52 135/83/52 131/84/52
f 133/74/52 131/84/52 130/85/52
f 133/74/52 130/85/52 132/86/52
f 133/74/52 132/86/52 134/87/52
f 132/66/48 93/3/38 134/68/38
f 93/3/38 132/66/48 117/40/48
f 138/3/54 137/2/53 136/1/53
f 137/2/53 138/3/54 139/4/54
f 142/7/4 141/6/55 140/5/55
f 141/6/55 142/7/4 143/8/4
f 146/11/57 145/10/56 144/9/56
f 145/10/56 146/11/57 147/12/57
f 150/15/58 149/14/59 148/13/58
f 149/14/59 150/15/58 151/16/59
f 137/19/60 144/18/60 152/17/60
f 144/18/60 137/19/60 146/20/60
f 146/20/60 137/19/60 153/21/60
f 153/21/60 137/19/60 150/22/60
f 150/22/60 137/19/60 151/23/60
f 151/23/60 137/19/60 154/24/60
f 154/24/60 137/19/60 143/25/60
f 143/25/60 137/19/60 141/26/60
f 141/26/60 137/19/60 155/27/60
f 155/27/60 137/19/60 156/28/60
f 156/28/60 137/19/60 157/29/60
f 157/29/60 137/19/60 158/30/60
f 158/30/60 137/19/60 139/31/60
f 151/16/59 159/32/61 149/14/59
f 159/32/61 151/16/59 154/33/61
f 141/6/55 160/34/62 140/5/55
f 160/34/62 141/6/55 155/35/62
f 150/38/58 161/37/63 153/36/63
f 161/37/63 150/38/58 148/39/58
f 162/40/64 139/4/54 138/3/54
f 139/4/54 162/40/64 158/41/64
f 155/35/62 163/42/65 160/34/62
f 163/42/65 155/35/62 156/43/65
f 153/36/63 147/12/57 146/11/57
f 147/12/57 153/36/63 161/37/63
f 144/9/56 164/45/66 152/44/66
f 164/45/66 144/9/56 145/10/56
f 137/48/16 164/47/16 136/46/16
f 164/47/16 137/48/16 152/49/16
f 165/50/67 158/41/64 162/40/64
f 158/41/64 165/50/67 157/51/67
f 163/52/65 157/51/67 165/50/67
f 157/51/67 163/52/65 156/53/65
f 159/32/61 143/8/4 142/7/4
f 143/8/4 159/32/61 154/33/61
f 149/14/59 167/55/61 166/54/59
f 167/55/61 149/14/59 159/32/61
f 145/10/56 168/56/66 164/45/66
f 168/56/66 145/10/56 169/57/56
f 148/39/58 170/58/63 161/37/63
f 170/58/63 148/39/58 171/59/58
f 148/13/58 166/54/59 171/60/58
f 166/54/59 148/13/58 149/14/59
f 173/62/4 140/5/55 172/61/55
f 140/5/55 173/62/4 142/7/4
f 161/37/63 174/63/57 147/12/57
f 174/63/57 161/37/63 170/58/63
f 176/65/65 165/50/67 175/64/67
f 165/50/67 176/65/65 163/52/65
f 175/64/67 162/40/64 177/66/64
f 162/40/64 175/64/67 165/50/67
f 178/67/53 138/3/54 136/1/53
f 138/3/54 178/67/53 179/68/54
f 160/34/62 176/70/65 180/69/62
f 176/70/65 160/34/62 163/42/65
f 140/5/55 180/69/62 172/61/55
f 180/69/62 140/5/55 160/34/62
f 167/55/61 142/7/4 173/62/4
f 142/7/4 167/55/61 159/32/61
f 136/46/16 168/72/16 178/71/16
f 168/72/16 136/46/16 164/47/16
f 147/12/57 169/57/56 145/10/56
f 169/57/56 147/12/57 174/63/57
f 169/75/68 178/74/68 168/73/68
f 178/74/68 169/75/68 174/76/68
f 178/74/68 174/76/68 170/77/68
f 178/74/68 170/77/68 171/78/68
f 178/74/68 171/78/68 166/79/68
f 178/74/68 166/79/68 167/80/68
f 178/74/68 167/80/68 173/81/68
f 178/74/68 173/81/68 172/82/68
f 178/74/68 172/82/68 180/83/68
f 178/74/68 180/83/68 176/84/68
f 178/74/68 176/84/68 175/85/68
f 178/74/68 175/85/68 177/86/68
f 178/74/68 177/86/68 179/87/68
f 177/66/64 138/3/54 179/68/54
f 138/3/54 177/66/64 162/40/64
f 183/3/70 182/2/69 181/1/69
f 182/2/69 183/3/70 184/4/70
f 187/7/72 186/6/71 185/5/71
f 186/6/71 187/7/72 188/8/72
f 191/11/74 190/10/73 189/9/73
f 190/10/73 191/11/74 192/12/74
f 195/15/75 194/14/76 193/13/75
f 194/14/76 195/15/75 196/16/76
f 182/19/77 189/18/77 197/17/77
f 189/18/77 182/19/77 191/20/77
f 191/20/77 182/19/77 198/21/77
f 198/21/77 182/19/77 195/22/77
f 195/22/77 182/19/77 196/23/77
f 196/23/77 182/19/77 199/24/77
f 199/24/77 182/19/77 188/25/77
f 188/25/77 182/19/77 186/26/77
f 186/26/77 182/19/77 200/27/77
f 200/27/77 182/19/77 201/28/77
f 201/28/77 182/19/77 202/29/77
f 202/29/77 182/19/77 203/30/77
f 203/30/77 182/19/77 184/31/77
f 196/16/76 204/32/78 194/14/76
f 204/32/78 196/16/76 199/33/78
f 186/6/71 205/34/79 185/5/71
f 205/34/79 186/6/71 200/35/79
f 195/38/75 206/37/80 198/36/80
f 206/37/80 195/38/75 193/39/75
f 207/40/81 184/4/70 183/3/70
f 184/4/70 207/40/81 203/41/81
f 200/35/79 208/42/82 205/34/79
f 208/42/82 200/35/79 201/43/82
f 198/36/80 192/12/74 191/11/74
f 192/12/74 198/36/80 206/37/80
f 189/9/73 209/45/83 197/44/83
f 209/45/83 189/9/73 190/10/73
f 182/48/84 209/47/84 181/46/84
f 209/47/84 182/48/84 197/49/84
f 210/50/85 203/41/81 207/40/81
f 203/41/81 210/50/85 202/51/85
f 208/52/82 202/51/85 210/50/85
f 202/51/85 208/52/82 201/53/82
f 204/32/78 188/8/72 187/7/72
f 188/8/72 204/32/78 199/33/78
f 194/14/76 212/55/78 211/54/76
f 212/55/78 194/14/76 204/32/78
f 190/10/73 213/56/83 209/45/83
f 213/56/83 190/10/73 214/57/73
f 193/39/75 215/58/80 206/37/80
f 215/58/80 193/39/75 216/59/75
f 193/13/75 211/54/76 216/60/75
f 211/54/76 193/13/75 194/14/76
f 218/62/72 185/5/71 217/61/71
f 185/5/71 218/62/72 187/7/72
f 206/37/80 219/63/74 192/12/74
f 219/63/74 206/37/80 215/58/80
f 221/65/82 210/50/85 220/64/85
f 210/50/85 221/65/82 208/52/82
f 220/64/85 207/40/81 222/66/81
f 207/40/81 220/64/85 210/50/85
f 223/67/69 183/3/70 181/1/69
f 183/3/70 223/67/69 224/68/70
f 205/34/79 221/70/82 225/69/79
f 221/70/82 205/34/79 208/42/82
f 185/5/71 225/69/79 217/61/71
f 225/69/79 185/5/71 205/34/79
f 212/55/78 187/7/72 218/62/72
f 187/7/72 212/55/78 204/32/78
f 181/46/84 213/72/84 223/71/84
f 213/72/84 181/46/84 209/47/84
f 192/12/74 214/57/73 190/10/73
f 214/57/73 192/12/74 219/63/74
f 214/75/86 223/74/86 213/73/86
f 223/74/86 214/75/86 219/76/86
f 223/74/86 219/76/86 215/77/86
f 223/74/86 215/77/86 216/78/86
f 223/74/86 216/78/86 211/79/86
f 223/74/86 211/79/86 212/80/86
f 223/74/86 212/80/86 218/81/86
f 223/74/86 218/81/86 217/82/86
f 223/74/86 217/82/86 225/83/86
f 223/74/86 225/83/86 221/84/86
f 223/74/86 221/84/86 220/85/86
f 223/74/86 220/85/86 222/86/86
f 223/74/86 222/86/86 224/87/86
f 222/66/81 183/3/70 224/68/70
f 183/3/70 222/66/81 207/40/81

