# Created by Kenney (www.kenney.nl)

mtllib Hot-Dog.mtl

g mergedBlocks

v 6.253672 3.181832 -6.397703
v 6.201173 3.181832 -6.434911
v 6.201173 3.159919 -6.434911
v 6.253672 3.159919 -6.397703
v 6.447158 3.181832 -6.404805
v 6.502533 3.181832 -6.445973
v 6.534789 3.181832 -6.413717
v 6.382994 3.181832 -6.381876
v 6.467107 3.181832 -6.363401
v 6.316323 3.181832 -6.379428
v 6.388685 3.181832 -6.335376
v 6.307199 3.181832 -6.332385
v 6.230625 3.181832 -6.354721
v 6.166459 3.181832 -6.400198
v 6.167688 3.181832 -6.433682
v 6.536018 3.181832 -6.447202
v 6.316323 3.159919 -6.379428
v 6.382994 3.159919 -6.381876
v 6.166459 3.159919 -6.400198
v 6.167688 3.159919 -6.433682
v 6.447158 3.159919 -6.404805
v 6.502533 3.159919 -6.445973
v 6.536018 3.159919 -6.447202
v 6.534789 3.159919 -6.413717
v 6.467107 3.159919 -6.363401
v 6.388685 3.159919 -6.335376
v 6.307199 3.159919 -6.332385
v 6.230625 3.159919 -6.354721
v 6.4889 3.1479 -6.445
v 6.32075 3.1479 -6.43
v 6.32075 3.10065 -6.43
v 6.4889 3.10065 -6.445
v 6.475714 3.0804 -6.421199
v 6.511363 3.0804 -6.375884
v 6.542 3.10065 -6.3775
v 6.51545 3.1479 -6.3325
v 6.542 3.1479 -6.3775
v 6.51545 3.10065 -6.3325
v 6.473361 3.171765 -6.416951
v 6.316322 3.171765 -6.402942
v 6.492128 3.171765 -6.352264
v 6.505894 3.171765 -6.375595
v 6.469787 3.18165 -6.37369
v 6.468807 3.18165 -6.372028
v 6.275871 3.18165 -6.348033
v 6.256541 3.18165 -6.364414
v 6.279351 3.18165 -6.386915
v 6.412178 3.18165 -6.348033
v 6.311893 3.18165 -6.375884
v 6.45782 3.18165 -6.388901
v 6.260327 3.18165 -6.378854
v 6.233014 3.171765 -6.396927
v 6.277925 3.171765 -6.415957
v 6.2765 3.1479 -6.445
v 6.2057 3.1479 -6.415
v 6.2057 3.10065 -6.415
v 6.2765 3.10065 -6.445
v 6.316993 3.0804 -6.407041
v 6.188 3.1479 -6.3475
v 6.188 3.10065 -6.3475
v 6.24995 3.1479 -6.295
v 6.24995 3.10065 -6.295
v 6.42695 3.1479 -6.295
v 6.42695 3.10065 -6.295
v 6.262911 3.171765 -6.321517
v 6.419564 3.171765 -6.321517
v 6.22227 3.171765 -6.355957
v 6.495661 3.0804 -6.34927
v 6.420682 3.0804 -6.3175
v 6.260948 3.0804 -6.3175
v 6.21708 3.0804 -6.354676
v 6.228877 3.0804 -6.399664
v 6.27771 3.0804 -6.420357

vn 0.5782373 -1.468973E-08 -0.8158687
vn -6.181725E-08 1 -6.181725E-08
vn -0.0366805 -6.404313E-08 -0.999327
vn -0.999327 -6.404312E-08 -0.03668077
vn -0.3365202 -7.901457E-08 -0.9416762
vn -0.5966162 -8.649114E-08 -0.8025267
vn 0.999327 6.404312E-08 0.03668077
vn 0.5966162 8.649114E-08 0.8025267
vn 0.3365202 7.901457E-08 0.9416762
vn 0.0366805 6.404313E-08 0.999327
vn -0.2800236 4.203384E-08 0.9599931
vn -0.5782373 1.468973E-08 0.8158687
vn 6.181725E-08 -1 6.181725E-08
vn 0.2800236 -4.203384E-08 -0.9599931
vn -0.0888532 0 -0.9960448
vn 0.4937526 -0.7780355 -0.3884188
vn 0.8612693 0 0.5081489
vn -0.05938887 0.7438083 -0.6657493
vn 0.534762 0.7838899 0.3155096
vn 0.2684912 0.9501678 0.1584098
vn 0 1 0
vn -0.1328438 0.9402463 -0.3135115
vn -0.2567932 0.7528495 -0.6060321
vn -0.390149 0 -0.9207518
vn -0.05938887 -0.7438083 -0.6657493
vn -0.9672969 0 -0.2536468
vn -0.6465216 0 0.7628956
vn 0 0 1
vn 0 0.7432941 0.6689647
vn -0.2938296 0.9527474 -0.07704867
vn -0.5900077 0.7924359 -0.1547132
vn -0.4141425 0.7678996 0.4886883
vn -0.211144 0.945168 0.24915
vn 0 0.9370075 0.3493091
vn 0.1328438 0.9402463 0.3135115
vn 0.2567932 0.7528495 0.6060321
vn 0.390149 0 0.9207518
vn 0.534762 -0.7838899 0.3155096
vn 0.2567932 -0.7528495 0.6060321
vn 0 -0.7432941 0.6689647
vn -0.4141425 -0.7678996 0.4886883
vn -0.5900077 -0.7924359 -0.1547132
vn -0.2567932 -0.7528495 -0.6060321
vn 0.212404 -0.7498446 -0.626592
vn 0.3210392 0 -0.9470659
vn 0.212404 0.7498446 -0.626592
vn 0.1102025 0.9392376 -0.3250973
vn -0.03099512 0.9371842 -0.3474553
vn 0.2492926 0.9483638 -0.1961102
vn 0.4937526 0.7780355 -0.3884188
vn 0.7859546 0 -0.6182843

vt -6.153541 3.191835
vt -6.090208 3.191835
vt -6.090208 3.169923
vt -6.153541 3.169923
vt -6.38695 -6.378704
vt -6.453752 -6.411376
vt -6.492663 -6.385776
vt -6.309547 -6.360506
vt -6.411016 -6.345843
vt -6.229119 -6.358564
vt -6.316412 -6.323602
vt -6.218112 -6.321229
vt -6.125738 -6.338955
vt -6.048332 -6.375048
vt -6.090208 -6.402598
vt -6.153541 -6.373068
vt -6.049814 -6.401623
vt -6.494146 -6.412351
vt -6.309547 3.191835
vt -6.229119 3.191835
vt -6.229119 3.169923
vt -6.309547 3.169923
vt -6.401623 3.191835
vt -6.375048 3.191835
vt -6.375048 3.169923
vt -6.401623 3.169923
vt -6.049814 3.191835
vt -6.049814 3.169923
vt -6.38695 3.191835
vt -6.38695 3.169923
vt -6.453752 3.191835
vt -6.453752 3.169923
vt -6.494146 3.191835
vt -6.494146 3.169923
vt 6.385776 3.191835
vt 6.412351 3.191835
vt 6.412351 3.169923
vt 6.385776 3.169923
vt 6.411016 3.191835
vt 6.492663 3.191835
vt 6.492663 3.169923
vt 6.411016 3.169923
vt 6.316412 3.191835
vt 6.316412 3.169923
vt 6.218112 3.191835
vt 6.218112 3.169923
vt 6.125738 3.191835
vt 6.125738 3.169923
vt 6.048332 3.191835
vt 6.048332 3.169923
vt -6.492663 6.385776
vt -6.453752 6.411376
vt -6.38695 6.378704
vt -6.411016 6.345843
vt -6.309547 6.360506
vt -6.316412 6.323602
vt -6.229119 6.358564
vt -6.153541 6.373068
vt -6.125738 6.338955
vt -6.090208 6.402598
vt -6.049814 6.401623
vt -6.048332 6.375048
vt -6.218112 6.321229
vt -6.494146 6.412351
vt -6.4889 3.1479
vt -6.32075 3.1479
vt -6.32075 3.10065
vt -6.4889 3.10065
vt -6.475714 6.421199
vt -6.511363 6.375884
vt -6.542 6.3775
vt -6.4889 6.445
vt 6.3325 3.1479
vt 6.3775 3.1479
vt 6.3775 3.10065
vt 6.3325 3.10065
vt -6.473361 -6.416951
vt -6.316322 -6.402942
vt -6.32075 -6.43
vt -6.4889 -6.445
vt -6.492128 -6.352264
vt -6.505894 -6.375595
vt -6.51545 -6.3325
vt -6.542 -6.3775
vt -6.469787 -6.37369
vt -6.468807 -6.372028
vt -6.275871 -6.348033
vt -6.256541 -6.364414
vt -6.279351 -6.386915
vt -6.412178 -6.348033
vt -6.311893 -6.375884
vt -6.45782 -6.388901
vt -6.260327 -6.378854
vt -6.233014 -6.396927
vt -6.277925 -6.415957
vt -6.2765 -6.445
vt -6.2057 -6.415
vt -6.2765 3.1479
vt -6.2057 3.1479
vt -6.2057 3.10065
vt -6.2765 3.10065
vt -6.316993 6.407041
vt -6.32075 6.43
vt -6.415 3.1479
vt -6.3475 3.1479
vt -6.415 3.10065
vt -6.3475 3.10065
vt 6.188 3.1479
vt 6.24995 3.1479
vt 6.24995 3.10065
vt 6.188 3.10065
vt 6.42695 3.1479
vt 6.42695 3.10065
vt -6.262911 -6.321517
vt -6.419564 -6.321517
vt -6.42695 -6.295
vt -6.24995 -6.295
vt -6.22227 -6.355957
vt -6.188 -6.3475
vt 6.51545 3.1479
vt 6.51545 3.10065
vt -6.495661 6.34927
vt -6.51545 6.3325
vt -6.420682 6.3175
vt -6.42695 6.295
vt -6.260948 6.3175
vt -6.24995 6.295
vt -6.21708 6.354676
vt -6.188 6.3475
vt -6.228877 6.399664
vt -6.2057 6.415
vt -6.27771 6.420357
vt -6.2765 6.445
vt 6.445 3.1479
vt 6.445 3.10065

usemtl custom34

f 3/3/1 2/2/1 1/1/1
f 4/4/1 3/3/1 1/1/1
f 7/7/2 6/6/2 5/5/2
f 9/9/2 5/5/2 8/8/2
f 11/11/2 8/8/2 10/10/2
f 10/10/2 13/13/2 12/12/2
f 1/16/2 2/15/2 14/14/2
f 2/15/2 15/17/2 14/14/2
f 1/16/2 14/14/2 13/13/2
f 10/10/2 1/16/2 13/13/2
f 12/12/2 11/11/2 10/10/2
f 11/11/2 9/9/2 8/8/2
f 9/9/2 7/7/2 5/5/2
f 7/7/2 16/18/2 6/6/2
f 17/21/3 10/20/3 8/19/3
f 18/22/3 17/21/3 8/19/3
f 19/25/4 14/24/4 15/23/4
f 20/26/4 19/25/4 15/23/4
f 20/28/3 15/27/3 2/2/3
f 3/3/3 20/28/3 2/2/3
f 18/22/5 8/19/5 5/29/5
f 21/30/5 18/22/5 5/29/5
f 21/30/6 5/29/6 6/31/6
f 22/32/6 21/30/6 6/31/6
f 22/32/3 6/31/3 16/33/3
f 23/34/3 22/32/3 16/33/3
f 23/37/7 16/36/7 7/35/7
f 24/38/7 23/37/7 7/35/7
f 24/41/8 7/40/8 9/39/8
f 25/42/8 24/41/8 9/39/8
f 25/42/9 9/39/9 11/43/9
f 26/44/9 25/42/9 11/43/9
f 26/44/10 11/43/10 12/45/10
f 27/46/10 26/44/10 12/45/10
f 27/46/11 12/45/11 13/47/11
f 28/48/11 27/46/11 13/47/11
f 28/48/12 13/47/12 14/49/12
f 19/50/12 28/48/12 14/49/12
f 21/53/13 22/52/13 24/51/13
f 18/55/13 21/53/13 25/54/13
f 17/57/13 18/55/13 26/56/13
f 28/59/13 4/58/13 17/57/13
f 19/62/13 20/61/13 3/60/13
f 19/62/13 3/60/13 4/58/13
f 28/59/13 19/62/13 4/58/13
f 27/63/13 28/59/13 17/57/13
f 17/57/13 26/56/13 27/63/13
f 18/55/13 25/54/13 26/56/13
f 21/53/13 24/51/13 25/54/13
f 22/52/13 23/64/13 24/51/13
f 4/4/14 1/1/14 10/20/14
f 17/21/14 4/4/14 10/20/14

usemtl woodLight

f 31/67/15 30/66/15 29/65/15
f 32/68/15 31/67/15 29/65/15
f 35/71/16 34/70/16 33/69/16
f 32/72/16 35/71/16 33/69/16
f 35/75/17 37/74/17 36/73/17
f 38/76/17 35/75/17 36/73/17
f 30/79/18 40/78/18 39/77/18
f 29/80/18 30/79/18 39/77/18
f 36/83/19 42/82/19 41/81/19
f 36/83/19 37/84/19 42/82/19
f 43/85/20 41/81/20 42/82/20
f 43/85/20 44/86/20 41/81/20
f 47/89/21 46/88/21 45/87/21
f 49/91/21 45/87/21 48/90/21
f 50/92/21 48/90/21 44/86/21
f 44/86/21 43/85/21 50/92/21
f 50/92/21 49/91/21 48/90/21
f 49/91/21 47/89/21 45/87/21
f 47/89/21 51/93/21 46/88/21
f 51/93/22 53/95/22 52/94/22
f 51/93/22 47/89/22 53/95/22
f 54/96/23 52/94/23 53/95/23
f 54/96/23 55/97/23 52/94/23
f 56/100/24 55/99/24 54/98/24
f 57/101/24 56/100/24 54/98/24
f 31/103/25 33/69/25 58/102/25
f 31/103/25 32/72/25 33/69/25
f 56/106/26 59/105/26 55/104/26
f 56/106/26 60/107/26 59/105/26
f 62/110/27 61/109/27 59/108/27
f 60/111/27 62/110/27 59/108/27
f 64/113/28 63/112/28 61/109/28
f 62/110/28 64/113/28 61/109/28
f 63/116/29 66/115/29 65/114/29
f 61/117/29 63/116/29 65/114/29
f 46/88/30 52/94/30 67/118/30
f 46/88/30 51/93/30 52/94/30
f 55/97/31 67/118/31 52/94/31
f 55/97/31 59/119/31 67/118/31
f 61/117/32 65/114/32 67/118/32
f 59/119/32 61/117/32 67/118/32
f 46/88/33 67/118/33 65/114/33
f 45/87/33 46/88/33 65/114/33
f 45/87/34 65/114/34 66/115/34
f 48/90/34 45/87/34 66/115/34
f 44/86/35 66/115/35 41/81/35
f 44/86/35 48/90/35 66/115/35
f 63/116/36 41/81/36 66/115/36
f 63/116/36 36/83/36 41/81/36
f 38/121/37 36/120/37 63/112/37
f 64/113/37 38/121/37 63/112/37
f 38/123/38 68/122/38 34/70/38
f 35/71/38 38/123/38 34/70/38
f 64/125/39 69/124/39 68/122/39
f 38/123/39 64/125/39 68/122/39
f 64/125/40 70/126/40 69/124/40
f 64/125/40 62/127/40 70/126/40
f 62/127/41 71/128/41 70/126/41
f 62/127/41 60/129/41 71/128/41
f 56/131/42 72/130/42 71/128/42
f 60/129/42 56/131/42 71/128/42
f 57/133/43 73/132/43 72/130/43
f 56/131/43 57/133/43 72/130/43
f 31/103/44 58/102/44 73/132/44
f 57/133/44 31/103/44 73/132/44
f 31/67/45 54/98/45 30/66/45
f 31/67/45 57/101/45 54/98/45
f 30/79/46 53/95/46 40/78/46
f 30/79/46 54/96/46 53/95/46
f 47/89/47 40/78/47 53/95/47
f 47/89/47 49/91/47 40/78/47
f 50/92/48 39/77/48 40/78/48
f 49/91/48 50/92/48 40/78/48
f 50/92/49 42/82/49 39/77/49
f 50/92/49 43/85/49 42/82/49
f 37/84/50 39/77/50 42/82/50
f 37/84/50 29/80/50 39/77/50
f 32/135/51 29/134/51 37/74/51
f 35/75/51 32/135/51 37/74/51

