# Created by Kenney (www.kenney.nl)

mtllib Plate.mtl

g mergedBlocks

v 4.950001 3.3104 -10.2
v 4.94489 3.3104 -10.16118
v 4.94489 3.3104 -10.23882
v 4.929904 3.3104 -10.275
v 4.929904 3.3104 -10.125
v 4.906067 3.3104 -10.30607
v 4.906067 3.3104 -10.09394
v 4.899477 3.3104 -10.2
v 4.896088 3.3104 -10.22575
v 4.875 3.3104 -10.32991
v 4.88615 3.3104 -10.24974
v 4.870341 3.3104 -10.27034
v 4.838823 3.3104 -10.34489
v 4.849739 3.3104 -10.28615
v 4.825747 3.3104 -10.29609
v 4.800001 3.3104 -10.35
v 4.800001 3.3104 -10.29948
v 4.761178 3.3104 -10.34489
v 4.774254 3.3104 -10.29609
v 4.750262 3.3104 -10.28615
v 4.725001 3.3104 -10.32991
v 4.72966 3.3104 -10.27034
v 4.713851 3.3104 -10.24974
v 4.693934 3.3104 -10.30607
v 4.703914 3.3104 -10.22575
v 4.700524 3.3104 -10.2
v 4.693934 3.3104 -10.09394
v 4.703914 3.3104 -10.17426
v 4.713851 3.3104 -10.15026
v 4.725001 3.3104 -10.0701
v 4.72966 3.3104 -10.12966
v 4.750262 3.3104 -10.11385
v 4.761178 3.3104 -10.05511
v 4.774254 3.3104 -10.10391
v 4.800001 3.3104 -10.05
v 4.800001 3.3104 -10.10052
v 4.825747 3.3104 -10.10391
v 4.838823 3.3104 -10.05511
v 4.849739 3.3104 -10.11385
v 4.870341 3.3104 -10.12966
v 4.875 3.3104 -10.0701
v 4.88615 3.3104 -10.15026
v 4.896088 3.3104 -10.17426
v 4.670097 3.3104 -10.275
v 4.670097 3.3104 -10.125
v 4.655112 3.3104 -10.23882
v 4.655112 3.3104 -10.16118
v 4.650001 3.3104 -10.2
v 4.670097 3.3 -10.125
v 4.693934 3.3 -10.09394
v 4.655112 3.3 -10.16118
v 4.650001 3.3 -10.2
v 4.655112 3.3 -10.23882
v 4.670097 3.3 -10.275
v 4.693934 3.3 -10.30607
v 4.725001 3.3 -10.32991
v 4.761178 3.3 -10.34489
v 4.800001 3.3 -10.35
v 4.838823 3.3 -10.34489
v 4.875 3.3 -10.32991
v 4.906067 3.3 -10.30607
v 4.929904 3.3 -10.275
v 4.94489 3.3 -10.23882
v 4.950001 3.3 -10.2
v 4.94489 3.3 -10.16118
v 4.929904 3.3 -10.125
v 4.906067 3.3 -10.09394
v 4.875 3.3 -10.0701
v 4.838823 3.3 -10.05511
v 4.800001 3.3 -10.05
v 4.761178 3.3 -10.05511
v 4.725001 3.3 -10.0701
v 4.72966 3.3052 -10.27034
v 4.713851 3.3052 -10.24974
v 4.703914 3.3052 -10.22575
v 4.700524 3.3052 -10.2
v 4.703914 3.3052 -10.17426
v 4.713851 3.3052 -10.15026
v 4.72966 3.3052 -10.12966
v 4.750262 3.3052 -10.11385
v 4.774254 3.3052 -10.10391
v 4.800001 3.3052 -10.10052
v 4.825747 3.3052 -10.10391
v 4.849739 3.3052 -10.11385
v 4.870341 3.3052 -10.12966
v 4.88615 3.3052 -10.15026
v 4.896088 3.3052 -10.17426
v 4.899477 3.3052 -10.2
v 4.896088 3.3052 -10.22575
v 4.88615 3.3052 -10.24974
v 4.870341 3.3052 -10.27034
v 4.849739 3.3052 -10.28615
v 4.825747 3.3052 -10.29609
v 4.800001 3.3052 -10.29948
v 4.774254 3.3052 -10.29609
v 4.750262 3.3052 -10.28615

vn 0 1 0
vn -0.8660254 0 0.5
vn -0.7071068 0 0.7071068
vn -0.9659259 0 0.2588191
vn -1 0 0
vn -0.9659259 0 -0.2588191
vn -0.8660254 0 -0.5
vn -0.7071068 0 -0.7071068
vn -0.5 0 -0.8660254
vn -0.2588191 0 -0.9659259
vn 0 0 -1
vn 0.2588191 0 -0.9659259
vn 0.5 0 -0.8660254
vn 0.7071068 0 -0.7071068
vn 0.8660254 0 -0.5
vn 0.9659259 0 -0.2588191
vn 1 0 0
vn 0.9659259 0 0.2588191
vn 0.8660254 0 0.5
vn 0.7071068 0 0.7071068
vn 0.5 0 0.8660254
vn 0.2588191 0 0.9659259
vn 0 0 1
vn -0.2588191 0 0.9659259
vn -0.5 0 0.8660254

vt -4.950001 -10.2
vt -4.94489 -10.16118
vt -4.94489 -10.23882
vt -4.929904 -10.275
vt -4.929904 -10.125
vt -4.906067 -10.30607
vt -4.906067 -10.09394
vt -4.899477 -10.2
vt -4.896088 -10.22575
vt -4.875 -10.32991
vt -4.88615 -10.24974
vt -4.870341 -10.27034
vt -4.838823 -10.34489
vt -4.849739 -10.28615
vt -4.825747 -10.29609
vt -4.800001 -10.35
vt -4.800001 -10.29948
vt -4.761178 -10.34489
vt -4.774254 -10.29609
vt -4.750262 -10.28615
vt -4.725001 -10.32991
vt -4.72966 -10.27034
vt -4.713851 -10.24974
vt -4.693934 -10.30607
vt -4.703914 -10.22575
vt -4.700524 -10.2
vt -4.693934 -10.09394
vt -4.703914 -10.17426
vt -4.713851 -10.15026
vt -4.725001 -10.0701
vt -4.72966 -10.12966
vt -4.750262 -10.11385
vt -4.761178 -10.05511
vt -4.774254 -10.10391
vt -4.800001 -10.05
vt -4.800001 -10.10052
vt -4.825747 -10.10391
vt -4.838823 -10.05511
vt -4.849739 -10.11385
vt -4.870341 -10.12966
vt -4.875 -10.0701
vt -4.88615 -10.15026
vt -4.896088 -10.17426
vt -4.670097 -10.275
vt -4.670097 -10.125
vt -4.655112 -10.23882
vt -4.655112 -10.16118
vt -4.650001 -10.2
vt -10.125 3.3
vt -10.125 3.3104
vt -10.09394 3.3
vt -10.09394 3.3104
vt -10.16118 3.3
vt -10.16118 3.3104
vt -10.2 3.3
vt -10.2 3.3104
vt -10.23882 3.3
vt -10.23882 3.3104
vt -10.275 3.3
vt -10.275 3.3104
vt -10.30607 3.3
vt -10.30607 3.3104
vt -4.693934 3.3
vt -4.725001 3.3
vt -4.693934 3.3104
vt -4.725001 3.3104
vt -4.761178 3.3
vt -4.761178 3.3104
vt -4.800001 3.3
vt -4.800001 3.3104
vt -4.838823 3.3
vt -4.838823 3.3104
vt -4.875 3.3
vt -4.875 3.3104
vt -4.906067 3.3
vt -4.906067 3.3104
vt 10.30607 3.3104
vt 10.30607 3.3
vt 10.275 3.3104
vt 10.275 3.3
vt 10.23882 3.3104
vt 10.23882 3.3
vt 10.2 3.3104
vt 10.2 3.3
vt 10.16118 3.3104
vt 10.16118 3.3
vt 10.125 3.3104
vt 10.125 3.3
vt 10.09394 3.3104
vt 10.09394 3.3
vt 4.906067 3.3
vt 4.875 3.3
vt 4.906067 3.3104
vt 4.875 3.3104
vt 4.838823 3.3
vt 4.838823 3.3104
vt 4.800001 3.3
vt 4.800001 3.3104
vt 4.761178 3.3
vt 4.761178 3.3104
vt 4.725001 3.3
vt 4.725001 3.3104
vt 4.693934 3.3
vt 4.693934 3.3104
vt 10.27034 3.3104
vt 10.27034 3.3052
vt 10.24974 3.3104
vt 10.24974 3.3052
vt 10.22575 3.3104
vt 10.22575 3.3052
vt 10.2 3.3052
vt 10.17426 3.3104
vt 10.17426 3.3052
vt 10.15026 3.3104
vt 10.15026 3.3052
vt 10.12966 3.3104
vt 10.12966 3.3052
vt -4.72966 3.3052
vt -4.750262 3.3052
vt -4.72966 3.3104
vt -4.750262 3.3104
vt -4.774254 3.3052
vt -4.774254 3.3104
vt -4.800001 3.3052
vt -4.825747 3.3052
vt -4.825747 3.3104
vt -4.849739 3.3052
vt -4.849739 3.3104
vt -4.870341 3.3052
vt -4.870341 3.3104
vt -10.15026 3.3052
vt -10.15026 3.3104
vt -10.12966 3.3052
vt -10.12966 3.3104
vt -10.17426 3.3052
vt -10.17426 3.3104
vt -10.2 3.3052
vt -10.22575 3.3052
vt -10.22575 3.3104
vt -10.24974 3.3052
vt -10.24974 3.3104
vt -10.27034 3.3052
vt -10.27034 3.3104
vt 4.870341 3.3052
vt 4.849739 3.3052
vt 4.870341 3.3104
vt 4.849739 3.3104
vt 4.825747 3.3052
vt 4.825747 3.3104
vt 4.800001 3.3052
vt 4.774254 3.3052
vt 4.774254 3.3104
vt 4.750262 3.3052
vt 4.750262 3.3104
vt 4.72966 3.3052
vt 4.72966 3.3104

usemtl custom36

f 3/3/1 2/2/1 1/1/1
f 2/2/1 3/3/1 4/4/1
f 2/2/1 4/4/1 5/5/1
f 5/5/1 4/4/1 6/6/1
f 5/5/1 6/6/1 7/7/1
f 7/7/1 6/6/1 8/8/1
f 8/8/1 6/6/1 9/9/1
f 9/9/1 6/6/1 10/10/1
f 9/9/1 10/10/1 11/11/1
f 11/11/1 10/10/1 12/12/1
f 12/12/1 10/10/1 13/13/1
f 12/12/1 13/13/1 14/14/1
f 14/14/1 13/13/1 15/15/1
f 15/15/1 13/13/1 16/16/1
f 15/15/1 16/16/1 17/17/1
f 17/17/1 16/16/1 18/18/1
f 17/17/1 18/18/1 19/19/1
f 19/19/1 18/18/1 20/20/1
f 20/20/1 18/18/1 21/21/1
f 20/20/1 21/21/1 22/22/1
f 22/22/1 21/21/1 23/23/1
f 23/23/1 21/21/1 24/24/1
f 23/23/1 24/24/1 25/25/1
f 25/25/1 24/24/1 26/26/1
f 27/27/1 26/26/1 24/24/1
f 27/27/1 28/28/1 26/26/1
f 27/27/1 29/29/1 28/28/1
f 30/30/1 29/29/1 27/27/1
f 30/30/1 31/31/1 29/29/1
f 30/30/1 32/32/1 31/31/1
f 33/33/1 32/32/1 30/30/1
f 33/33/1 34/34/1 32/32/1
f 35/35/1 34/34/1 33/33/1
f 35/35/1 36/36/1 34/34/1
f 35/35/1 37/37/1 36/36/1
f 38/38/1 37/37/1 35/35/1
f 38/38/1 39/39/1 37/37/1
f 38/38/1 40/40/1 39/39/1
f 41/41/1 40/40/1 38/38/1
f 41/41/1 42/42/1 40/40/1
f 41/41/1 43/43/1 42/42/1
f 7/7/1 43/43/1 41/41/1
f 43/43/1 7/7/1 8/8/1
f 27/27/1 24/24/1 44/44/1
f 27/27/1 44/44/1 45/45/1
f 45/45/1 44/44/1 46/46/1
f 45/45/1 46/46/1 47/47/1
f 47/47/1 46/46/1 48/48/1
f 50/51/3 45/50/2 49/49/2
f 45/50/2 50/51/3 27/52/3
f 49/49/2 47/54/4 51/53/4
f 47/54/4 49/49/2 45/50/2
f 51/53/4 48/56/5 52/55/5
f 48/56/5 51/53/4 47/54/4
f 52/55/5 46/58/6 53/57/6
f 46/58/6 52/55/5 48/56/5
f 53/57/6 44/60/7 54/59/7
f 44/60/7 53/57/6 46/58/6
f 54/59/7 24/62/8 55/61/8
f 24/62/8 54/59/7 44/60/7
f 24/65/8 56/64/9 55/63/8
f 56/64/9 24/65/8 21/66/9
f 21/66/9 57/67/10 56/64/9
f 57/67/10 21/66/9 18/68/10
f 18/68/10 58/69/11 57/67/10
f 58/69/11 18/68/10 16/70/11
f 16/70/11 59/71/12 58/69/11
f 59/71/12 16/70/11 13/72/12
f 13/72/12 60/73/13 59/71/12
f 60/73/13 13/72/12 10/74/13
f 10/74/13 61/75/14 60/73/13
f 61/75/14 10/74/13 6/76/14
f 4/79/15 61/78/14 6/77/14
f 61/78/14 4/79/15 62/80/15
f 3/81/16 62/80/15 4/79/15
f 62/80/15 3/81/16 63/82/16
f 1/83/17 63/82/16 3/81/16
f 63/82/16 1/83/17 64/84/17
f 2/85/18 64/84/17 1/83/17
f 64/84/17 2/85/18 65/86/18
f 5/87/19 65/86/18 2/85/18
f 65/86/18 5/87/19 66/88/19
f 7/89/20 66/88/19 5/87/19
f 66/88/19 7/89/20 67/90/20
f 7/93/20 68/92/21 67/91/20
f 68/92/21 7/93/20 41/94/21
f 41/94/21 69/95/22 68/92/21
f 69/95/22 41/94/21 38/96/22
f 38/96/22 70/97/23 69/95/22
f 70/97/23 38/96/22 35/98/23
f 35/98/23 71/99/24 70/97/23
f 71/99/24 35/98/23 33/100/24
f 33/100/24 72/101/25 71/99/24
f 72/101/25 33/100/24 30/102/25
f 30/102/25 50/103/3 72/101/25
f 50/103/3 30/102/25 27/104/3
f 23/107/19 73/106/20 22/105/20
f 73/106/20 23/107/19 74/108/19
f 25/109/18 74/108/19 23/107/19
f 74/108/19 25/109/18 75/110/18
f 26/83/17 75/110/18 25/109/18
f 75/110/18 26/83/17 76/111/17
f 28/112/16 76/111/17 26/83/17
f 76/111/17 28/112/16 77/113/16
f 29/114/15 77/113/16 28/112/16
f 77/113/16 29/114/15 78/115/15
f 31/116/14 78/115/15 29/114/15
f 78/115/15 31/116/14 79/117/14
f 31/120/14 80/119/13 79/118/14
f 80/119/13 31/120/14 32/121/13
f 32/121/13 81/122/12 80/119/13
f 81/122/12 32/121/13 34/123/12
f 34/123/12 82/124/11 81/122/12
f 82/124/11 34/123/12 36/70/11
f 36/70/11 83/125/10 82/124/11
f 83/125/10 36/70/11 37/126/10
f 37/126/10 84/127/9 83/125/10
f 84/127/9 37/126/10 39/128/9
f 39/128/9 85/129/8 84/127/9
f 85/129/8 39/128/9 40/130/8
f 85/133/8 42/132/7 86/131/7
f 42/132/7 85/133/8 40/134/8
f 86/131/7 43/136/6 87/135/6
f 43/136/6 86/131/7 42/132/7
f 87/135/6 8/56/5 88/137/5
f 8/56/5 87/135/6 43/136/6
f 88/137/5 9/139/4 89/138/4
f 9/139/4 88/137/5 8/56/5
f 89/138/4 11/141/2 90/140/2
f 11/141/2 89/138/4 9/139/4
f 90/140/2 12/143/3 91/142/3
f 12/143/3 90/140/2 11/141/2
f 12/146/3 92/145/25 91/144/3
f 92/145/25 12/146/3 14/147/25
f 14/147/25 93/148/24 92/145/25
f 93/148/24 14/147/25 15/149/24
f 15/149/24 94/150/23 93/148/24
f 94/150/23 15/149/24 17/98/23
f 17/98/23 95/151/22 94/150/23
f 95/151/22 17/98/23 19/152/22
f 19/152/22 96/153/21 95/151/22
f 96/153/21 19/152/22 20/154/21
f 20/154/21 73/155/20 96/153/21
f 73/155/20 20/154/21 22/156/20

usemtl custom35

f 89/9/1 87/43/1 88/8/1
f 87/43/1 89/9/1 90/11/1
f 87/43/1 90/11/1 86/42/1
f 86/42/1 90/11/1 85/40/1
f 85/40/1 90/11/1 91/12/1
f 85/40/1 91/12/1 92/14/1
f 85/40/1 92/14/1 84/39/1
f 84/39/1 92/14/1 83/37/1
f 83/37/1 92/14/1 93/15/1
f 83/37/1 93/15/1 94/17/1
f 83/37/1 94/17/1 82/36/1
f 82/36/1 94/17/1 81/34/1
f 81/34/1 94/17/1 95/19/1
f 81/34/1 95/19/1 96/20/1
f 81/34/1 96/20/1 80/32/1
f 80/32/1 96/20/1 79/31/1
f 79/31/1 96/20/1 73/22/1
f 79/31/1 73/22/1 78/29/1
f 78/29/1 73/22/1 74/23/1
f 78/29/1 74/23/1 75/25/1
f 78/29/1 75/25/1 77/28/1
f 77/28/1 75/25/1 76/26/1

