# Created by Kenney (www.kenney.nl)

mtllib BoxLid.mtl

g mergedBlocks

v -3.4 0.18 -0.85
v -3.4 0.18 -0.875
v -2.68 0.9 -0.875
v -2.68 0.9 -0.85
v -2.6 0.82 -0.85
v -2.6 0.9 -0.85
v -3.32 0.1 -0.85
v -3.4 0.1 -0.85
v -2.6 0.82 -0.875
v -3.32 0.1 -0.875
v -3.4 0.1 -0.875
v -2.6 0.9 -0.875
v -2.525 0.18 -0.8
v -2.525 0.1 -0.72
v -2.525 0.82 2.980232E-08
v -2.525 0.9 2.980232E-08
v -2.525 0.9 -0.07999995
v -2.525 0.1 -0.8
v -2.55 0.82 2.980232E-08
v -2.55 0.1 -0.72
v -2.55 0.18 -0.8
v -2.55 0.1 -0.8
v -2.55 0.9 -0.07999995
v -2.55 0.9 2.980232E-08
v -3.4 0.95 -0.72
v -3.4 0.975 -0.72
v -2.68 0.975 2.980232E-08
v -2.68 0.95 2.980232E-08
v -2.6 0.95 -0.07999995
v -3.32 0.95 -0.8
v -2.6 0.95 2.980232E-08
v -3.4 0.95 -0.8
v -2.6 0.975 -0.07999995
v -3.32 0.975 -0.8
v -3.4 0.975 -0.8
v -2.6 0.975 2.980232E-08
v -3.32 0.1 0.05000004
v -2.6 0.82 0.05000004
v -2.68 0.9 0.05000004
v -3.4 0.18 0.05000004
v -3.4 0.1 0.05000004
v -2.6 0.9 0.05000004
v -3.32 0.1 0.07500002
v -2.6 0.82 0.07500002
v -2.68 0.9 0.07500002
v -3.4 0.18 0.07500002
v -3.4 0.1 0.07500002
v -2.6 0.9 0.07500002
v -3.45 0.9 -0.07999995
v -3.45 0.18 -0.8
v -3.45 0.1 -0.72
v -3.45 0.82 2.980232E-08
v -3.45 0.9 2.980232E-08
v -3.45 0.1 -0.8
v -3.475 0.1 -0.72
v -3.475 0.82 2.980232E-08
v -3.475 0.9 -0.07999995
v -3.475 0.18 -0.8
v -3.475 0.1 -0.8
v -3.475 0.9 2.980232E-08
v -2.6 0.025 -0.72
v -3.4 0.025 -0.07999995
v -3.32 0.025 2.980232E-08
v -2.6 0.025 -0.8
v -2.68 0.025 -0.8
v -3.4 0.025 2.980232E-08
v -3.4 0.05 -0.07999995
v -2.68 0.05 -0.8
v -2.6 0.05 -0.72
v -3.32 0.05 2.980232E-08
v -3.4 0.05 2.980232E-08
v -2.6 0.05 -0.8
v -3.15 0.05 2.980232E-08
v -3.4 0 2.980232E-08
v -3 0 2.980232E-08
v -3.125 0.05 2.980232E-08
v -2.6 0 2.980232E-08
v -2.85 0.05 2.980232E-08
v -2.875 0.05 2.980232E-08
v -2.6 0.05 2.980232E-08
v -2.8625 0.1 2.980232E-08
v -3.1375 0.1 2.980232E-08
v -3.15 0.05 -0.8
v -3.1375 0.1 -0.8
v -2.6 0 -0.8
v -2.8625 0.1 -0.8
v -2.85 0.05 -0.8
v -2.875 0.05 -0.8
v -3.4 0 -0.8
v -3.4 0.05 -0.8
v -3.15 0.9 0.05000004
v -3.4 0.9 0.05000004
v -3.4 0.9 0.1
v -3 0.9 0.1
v -3.125 0.9 0.05000004
v -2.6 0.9 0.1
v -2.85 0.9 0.05000004
v -2.875 0.9 0.05000004
v -2.8625 0.9 2.980232E-08
v -3.1375 0.9 2.980232E-08
v -2.6 0.1 0.1
v -2.6 0.1 0.05000004
v -2.85 0.1 0.05000004
v -3 0.1 0.1
v -2.875 0.1 0.05000004
v -3.4 0.1 0.1
v -3.15 0.1 0.05000004
v -3.125 0.1 0.05000004
v -3 0 0.1
v -3.5 0 0.1
v -2.5 0 0.1
v -3.5 1 0.1
v -3 1 0.1
v -2.5 1 0.1
v -3.45 0.9 -0.55
v -3.45 0.9 -0.8
v -3.5 0.9 -0.8
v -3.5 0.9 -0.4
v -3.45 0.9 -0.525
v -3.5 0.9 2.980232E-08
v -3.45 0.9 -0.25
v -3.45 0.9 -0.275
v -3.4 0.9 -0.2625
v -3.4 0.9 -0.5375
v -3.5 0.1 2.980232E-08
v -3.45 0.1 2.980232E-08
v -3.45 0.1 -0.25
v -3.5 0.1 -0.4
v -3.45 0.1 -0.275
v -3.5 0.1 -0.8
v -3.45 0.1 -0.55
v -3.45 0.1 -0.525
v -3.4 0.1 -0.5375
v -3.4 0.1 -0.2625
v -3.5 0 -0.4
v -3.5 0 -0.9
v -3.5 1 -0.9
v -3.5 1 -0.4
v -3.15 0.1 -0.85
v -3.4 0.1 -0.9
v -3 0.1 -0.9
v -3.125 0.1 -0.85
v -2.6 0.1 -0.9
v -2.85 0.1 -0.85
v -2.875 0.1 -0.85
v -2.6 0.1 -0.85
v -2.6 0.9 -0.9
v -2.85 0.9 -0.85
v -3 0.9 -0.9
v -2.875 0.9 -0.85
v -3.4 0.9 -0.9
v -3.15 0.9 -0.85
v -3.125 0.9 -0.85
v -3.4 0.9 -0.85
v -3.1375 0.9 -0.8
v -2.8625 0.9 -0.8
v -2.5 1 -0.9
v -3 1 -0.9
v -3 0 -0.9
v -2.5 0 -0.9
v -2.875 0.95 -0.8
v -3.125 0.95 -0.8
v -3 1 -0.8
v -2.85 0.95 -0.8
v -2.6 1 -0.8
v -2.6 0.95 -0.8
v -3.15 0.95 -0.8
v -3.4 1 -0.8
v -2.6 1 2.980232E-08
v -3.125 0.95 2.980232E-08
v -2.875 0.95 2.980232E-08
v -3 1 2.980232E-08
v -3.15 0.95 2.980232E-08
v -3.4 1 2.980232E-08
v -3.4 0.95 2.980232E-08
v -2.85 0.95 2.980232E-08
v -2.5 1 -0.4
v -2.55 0.1 -0.55
v -2.5 0.1 -0.8
v -2.5 0.1 -0.4
v -2.55 0.1 -0.525
v -2.5 0.1 2.980232E-08
v -2.55 0.1 -0.25
v -2.55 0.1 -0.275
v -2.55 0.1 2.980232E-08
v -2.6 0.1 -0.2625
v -2.6 0.1 -0.5375
v -2.5 0.9 2.980232E-08
v -2.55 0.9 -0.25
v -2.5 0.9 -0.4
v -2.55 0.9 -0.275
v -2.5 0.9 -0.8
v -2.55 0.9 -0.55
v -2.55 0.9 -0.525
v -2.55 0.9 -0.8
v -2.6 0.9 -0.5375
v -2.6 0.9 -0.2625
v -2.5 0 -0.4
v -3 0 -0.8
v -3.125 0.05 -0.8

vn -0.7071068 0.7071068 0
vn 0 0 1
vn 0.7071068 -0.7071068 0
vn 0 0 -1
vn 1 0 0
vn -1 0 0
vn 0 0.7071068 -0.7071068
vn 0 -0.7071068 0.7071068
vn -0.7071068 0 0.7071068
vn 0 -1 0
vn 0.7071068 0 -0.7071068
vn 0 1 0
vn 0.7071068 0 0.7071068
vn -0.7071068 0 -0.7071068
vn 0.9701425 -0.2425356 0
vn -0.9701425 -0.2425356 0
vn -0.9701425 0 0.2425356
vn 0.9701425 0 0.2425356
vn -0.2425356 0 -0.9701425
vn -0.2425356 0 0.9701425
vn -0.9701425 0 -0.2425356
vn 0.9701425 0 -0.2425356
vn -0.9701425 0.2425356 0
vn 0.9701425 0.2425356 0
vn 0.2425356 0 -0.9701425
vn 0.2425356 0 0.9701425

vt 3.4 -1.45
vt 3.4 -1.475
vt 2.68 -1.475
vt 2.68 -1.45
vt -3.4 0.18
vt -2.68 0.9
vt -2.6 0.82
vt -2.6 0.9
vt -3.32 0.1
vt -3.4 0.1
vt 2.6 1.45
vt 2.6 1.475
vt 3.32 1.45
vt 3.32 1.475
vt 2.6 0.82
vt 2.68 0.9
vt 3.4 0.18
vt 3.4 0.1
vt 3.32 0.1
vt 2.6 0.9
vt 1.4 0.18
vt 1.32 0.1
vt 0.6 0.82
vt 0.6 0.9
vt 0.6799999 0.9
vt 1.4 0.1
vt -0.6 0.82
vt -1.32 0.1
vt -1.4 0.18
vt -1.4 0.1
vt -0.6799999 0.9
vt -0.6 0.9
vt 2.55 0.18
vt 2.525 0.18
vt 2.55 0.9
vt 2.525 0.9
vt 2.55 0.6
vt 2.525 0.6
vt 2.55 1.32
vt 2.525 1.32
vt -3.4 0.95
vt -3.4 0.975
vt -2.68 0.975
vt -2.68 0.95
vt 2.6 0.6799999
vt 3.32 1.4
vt 3.4 1.32
vt 2.68 0.6
vt 2.6 0.6
vt 3.4 1.4
vt 2.6 0.95
vt 2.6 0.975
vt 3.32 0.95
vt 3.32 0.975
vt 3.4 -1.32
vt 2.6 -0.6799999
vt 2.68 -0.6
vt 3.4 -1.4
vt 3.32 -1.4
vt 2.6 -0.6
vt 3.32 0.55
vt 3.32 0.525
vt 2.6 0.525
vt 2.6 0.55
vt 2.68 -0.55
vt 2.68 -0.525
vt 3.4 -0.55
vt 3.4 -0.525
vt 3.45 1.32
vt 3.475 1.32
vt 3.475 0.6
vt 3.45 0.6
vt 3.45 0.9
vt 3.475 0.9
vt 3.475 0.18
vt 3.45 0.18
vt 2.6 1.32
vt 3.4 0.6799999
vt 3.32 0.6
vt 2.6 1.4
vt 2.68 1.4
vt 3.4 0.6
vt 3.4 -0.6799999
vt 2.68 -1.4
vt 2.6 -1.32
vt 3.32 -0.6
vt 3.4 -0.6
vt 2.6 -1.4
vt -2.6 0.05
vt -2.6 0.025
vt -3.32 0.05
vt -3.32 0.025
vt 3.4 0.05
vt 3.4 0.025
vt 2.68 0.025
vt 2.68 0.05
vt 3.15 0.05
vt 3.4 0
vt 3 0
vt 3.125 0.05
vt 2.6 0
vt 2.85 0.05
vt 2.875 0.05
vt 2.6 0.05
vt 2.8625 0.1
vt 3.1375 0.1
vt 0.6 0.05
vt 0.6 0.1
vt 1.4 0.05
vt -0.6 0
vt -1.4 0
vt -1.4 0.05
vt -0.6 0.05
vt -0.6 0.1
vt 1.4 0
vt 0.6 0
vt 3.15 0.55
vt 3.4 0.55
vt 3.4 0.5
vt 3 0.5
vt 3.125 0.55
vt 2.6 0.5
vt 2.85 0.55
vt 2.875 0.55
vt 2.8625 0.6
vt 3.1375 0.6
vt -0.5 0.9
vt -0.5 0.1
vt -0.55 0.1
vt -0.55 0.9
vt 2.85 -0.55
vt 2.6 -0.55
vt 2.6 -0.5
vt 3 -0.5
vt 2.875 -0.55
vt 3.4 -0.5
vt 3.15 -0.55
vt 3.125 -0.55
vt 3.1375 -0.6
vt 2.8625 -0.6
vt 0.55 0.9
vt 0.55 0.1
vt 0.5 0.1
vt 0.5 0.9
vt -3 0
vt -3.5 0
vt -3 0.1
vt -2.6 0.1
vt -2.5 0
vt -3.5 1
vt -3.4 0.9
vt -3 1
vt -3 0.9
vt -2.5 1
vt 3.45 1.15
vt 3.45 1.4
vt 3.5 1.4
vt 3.5 1
vt 3.45 1.125
vt 3.5 0.6
vt 3.45 0.85
vt 3.45 0.875
vt 3.4 0.8625
vt 3.4 1.1375
vt 3.5 0.9
vt 3.5 0.1
vt 3.45 0.1
vt 3.45 -0.85
vt 3.45 -0.6
vt 3.5 -0.6
vt 3.5 -1
vt 3.45 -0.875
vt 3.5 -1.4
vt 3.45 -1.15
vt 3.45 -1.125
vt 3.45 -1.4
vt 3.4 -1.1375
vt 3.4 -0.8625
vt 3.4 0.9
vt -3.45 0.9
vt -3.45 0.1
vt -3.5 0.1
vt -3.5 0.9
vt -1 0
vt -1.5 0
vt -1 0.1
vt -0.5 0
vt -1.5 1
vt -1.4 0.9
vt -1 1
vt -1 0.9
vt -0.5 1
vt 3.15 -1.45
vt 3.4 -1.5
vt 3 -1.5
vt 3.125 -1.45
vt 2.6 -1.5
vt 2.85 -1.45
vt 2.875 -1.45
vt 2.6 -1.45
vt 2.8625 -1.4
vt 3.1375 -1.4
vt -1.5 0.1
vt -1.5 0.9
vt -1.45 0.9
vt -1.45 0.1
vt 2.85 1.45
vt 2.6 1.5
vt 3 1.5
vt 2.875 1.45
vt 3.4 1.5
vt 3.15 1.45
vt 3.125 1.45
vt 3.4 1.45
vt 3.1375 1.4
vt 2.8625 1.4
vt 1.45 0.1
vt 1.45 0.9
vt 1.4 0.9
vt 1.5 0.9
vt 1.5 0.1
vt 2.5 1
vt 3 1
vt 2.6 0.1
vt 3 0.9
vt 3 0.1
vt 2.5 0
vt 3.5 0
vt -2.875 0.95
vt -3.125 0.95
vt -2.85 0.95
vt -2.6 1
vt -2.6 0.95
vt -3.15 0.95
vt -3.4 1
vt -3.1375 0.9
vt -2.8625 0.9
vt -0.6 0.95
vt -1.4 0.95
vt -1.4 1
vt -0.6 1
vt 3.125 0.95
vt 2.875 0.95
vt 3.15 0.95
vt 3.4 1
vt 3.4 0.95
vt 2.85 0.95
vt 2.6 1
vt 2.8625 0.9
vt 3.1375 0.9
vt 1.4 0.95
vt 0.6 0.95
vt 0.6 1
vt 1.4 1
vt 2.5 -0.5
vt 2.5 -1
vt 3 -0.6
vt 3.5 -0.5
vt 3 -1.4
vt 2.5 -1.5
vt 3.5 -1.5
vt 2.55 -1.15
vt 2.55 -1.4
vt 2.5 -1.4
vt 2.55 -1.125
vt 2.5 -0.6
vt 2.55 -0.85
vt 2.55 -0.875
vt 2.55 -0.6
vt 2.6 -0.8625
vt 2.6 -1.1375
vt 2.5 0.1
vt 2.5 0.9
vt 2.55 0.1
vt 2.55 0.85
vt 2.5 0.6
vt 2.55 0.875
vt 2.5 1.4
vt 2.55 1.15
vt 2.55 1.125
vt 2.55 1.4
vt 2.6 1.1375
vt 2.6 0.8625
vt -2.55 0.1
vt -2.55 0.9
vt -2.5 0.9
vt -2.5 0.1
vt 0.5 1
vt 1 1
vt 1 0.9
vt 1.5 1
vt 1 0
vt 1 0.1
vt 0.5 0
vt 1.5 0
vt 2.5 1.5
vt 3 1.4
vt 3.5 1.5
vt 3.5 0.5
vt 3 0.6
vt 2.5 0.5
vt -2.85 0.05
vt -2.6 0
vt -2.875 0.05
vt -3.4 0
vt -3.15 0.05
vt -3.125 0.05
vt -3.4 0.05
vt -3.1375 0.1
vt -2.8625 0.1
vt 1.45 0.82
vt 1.475 0.9
vt 1.475 0.82
vt 3.4 1.475
vt -1.45 0.18
vt -1.475 0.1
vt -1.475 0.18
vt 2.6 -1.475
vt -2.55 0.82
vt -2.525 0.9
vt -2.525 0.82
vt 2.55 -0.6799999
vt 2.525 -0.6799999
vt 2.525 -0.6
vt 2.525 0.1
vt 2.525 1.4
vt 3.4 0.975
vt -1.32 0.95
vt -1.4 0.975
vt -1.32 0.975
vt -2.6 0.975
vt 0.6799999 0.95
vt 0.6 0.975
vt 0.6799999 0.975
vt -0.55 0.18
vt -0.525 0.18
vt -0.525 0.1
vt 0.55 0.82
vt 0.525 0.82
vt 0.525 0.9
vt 2.6 -0.525
vt 3.4 0.525
vt 3.475 0.1
vt -3.45 0.82
vt -3.475 0.9
vt -3.475 0.82
vt 3.45 -0.6799999
vt 3.475 -0.6799999
vt 3.475 -0.6
vt 3.475 1.4
vt -0.6799999 0.05
vt -0.6 0.025
vt -0.6799999 0.025
vt -3.4 0.025
vt 1.32 0.05
vt 1.4 0.025
vt 1.32 0.025
vt 2.6 0.025
vt 3.125 1.4
vt 3.125 0.6
vt 2.875 0.6
vt 2.875 1.4
vt 2.85 0.6
vt 2.85 1.4
vt 3.15 0.6
vt 3.15 1.4
vt -2.85 0.1
vt -2.85 0.9
vt -2.875 0.9
vt -2.875 0.1
vt -3.125 0.1
vt -3.125 0.9
vt -3.15 0.9
vt -3.15 0.1
vt -0.85 0.1
vt -0.85 0.9
vt -1.125 0.1
vt -1.125 0.9
vt -0.875 0.9
vt -0.875 0.1
vt -1.15 0.9
vt -1.15 0.1
vt 2.85 0.9
vt 2.85 0.1
vt 3.125 0.9
vt 3.125 0.1
vt 2.875 0.1
vt 2.875 0.9
vt 3.15 0.1
vt 3.15 0.9
vt 2.85 -1.4
vt 2.85 -0.6
vt 3.125 -0.6
vt 3.125 -1.4
vt 2.875 -1.4
vt 2.875 -0.6
vt 3.15 -1.4
vt 3.15 -0.6
vt 0.85 0.9
vt 0.85 0.1
vt 0.875 0.1
vt 0.875 0.9
vt 1.125 0.9
vt 1.125 0.1
vt 1.15 0.1
vt 1.15 0.9

usemtl Wood_Light

f 3/3/1 2/2/1 1/1/1
f 4/4/1 3/3/1 1/1/1
f 5/7/2 4/6/2 1/5/2
f 5/7/2 6/8/2 4/6/2
f 1/5/2 7/9/2 5/7/2
f 1/5/2 8/10/2 7/9/2
f 7/13/3 9/12/3 5/11/3
f 7/13/3 10/14/3 9/12/3
f 2/17/4 3/16/4 9/15/4
f 10/19/4 11/18/4 2/17/4
f 10/19/4 2/17/4 9/15/4
f 3/16/4 12/20/4 9/15/4
f 15/23/5 14/22/5 13/21/5
f 17/25/5 16/24/5 15/23/5
f 17/25/5 15/23/5 13/21/5
f 14/22/5 18/26/5 13/21/5
f 21/29/6 20/28/6 19/27/6
f 21/29/6 22/30/6 20/28/6
f 19/27/6 23/31/6 21/29/6
f 19/27/6 24/32/6 23/31/6
f 23/35/7 13/34/7 21/33/7
f 23/35/7 17/36/7 13/34/7
f 20/39/8 15/38/8 19/37/8
f 20/39/8 14/40/8 15/38/8
f 27/43/9 26/42/9 25/41/9
f 28/44/9 27/43/9 25/41/9
f 25/47/10 30/46/10 29/45/10
f 29/45/10 31/49/10 28/48/10
f 29/45/10 28/48/10 25/47/10
f 25/47/10 32/50/10 30/46/10
f 30/53/11 33/52/11 29/51/11
f 30/53/11 34/54/11 33/52/11
f 27/57/12 33/56/12 26/55/12
f 34/59/12 35/58/12 26/55/12
f 33/56/12 34/59/12 26/55/12
f 27/57/12 36/60/12 33/56/12
f 39/16/4 38/15/4 37/19/4
f 37/19/4 41/18/4 40/17/4
f 37/19/4 40/17/4 39/16/4
f 39/16/4 42/20/4 38/15/4
f 44/63/3 43/62/3 37/61/3
f 38/64/3 44/63/3 37/61/3
f 40/67/1 45/66/1 39/65/1
f 40/67/1 46/68/1 45/66/1
f 43/9/2 44/7/2 45/6/2
f 46/5/2 47/10/2 43/9/2
f 46/5/2 43/9/2 45/6/2
f 44/7/2 48/8/2 45/6/2
f 51/22/5 50/21/5 49/25/5
f 49/25/5 53/24/5 52/23/5
f 49/25/5 52/23/5 51/22/5
f 51/22/5 54/26/5 50/21/5
f 56/71/8 55/70/8 51/69/8
f 52/72/8 56/71/8 51/69/8
f 58/75/7 57/74/7 49/73/7
f 50/76/7 58/75/7 49/73/7
f 56/27/6 57/31/6 55/28/6
f 58/29/6 59/30/6 55/28/6
f 57/31/6 58/29/6 55/28/6
f 56/27/6 60/32/6 57/31/6
f 63/79/10 62/78/10 61/77/10
f 65/81/10 64/80/10 61/77/10
f 62/78/10 65/81/10 61/77/10
f 63/79/10 66/82/10 62/78/10
f 69/85/12 68/84/12 67/83/12
f 67/83/12 71/87/12 70/86/12
f 67/83/12 70/86/12 69/85/12
f 69/85/12 72/88/12 68/84/12
f 70/91/13 61/90/13 69/89/13
f 70/91/13 63/92/13 61/90/13
f 65/95/14 62/94/14 67/93/14
f 68/96/14 65/95/14 67/93/14

usemtl Wood_Dark

f 74/98/4 71/93/4 73/97/4
f 75/99/4 74/98/4 73/97/4
f 75/99/4 73/97/4 76/100/4
f 78/102/4 77/101/4 75/99/4
f 79/103/4 78/102/4 75/99/4
f 78/102/4 80/104/4 77/101/4
f 79/103/4 81/105/4 78/102/4
f 75/99/4 76/100/4 79/103/4
f 73/97/4 82/106/4 76/100/4
f 83/109/15 82/108/15 73/107/15
f 83/109/15 84/26/15 82/108/15
f 72/112/6 85/111/6 77/110/6
f 80/113/6 72/112/6 77/110/6
f 86/30/16 78/113/16 81/114/16
f 86/30/16 87/112/16 78/113/16
f 88/109/15 81/108/15 79/107/15
f 88/109/15 86/26/15 81/108/15
f 71/107/5 74/116/5 89/115/5
f 90/109/5 71/107/5 89/115/5
f 93/119/10 92/118/10 91/117/10
f 94/120/10 93/119/10 91/117/10
f 94/120/10 91/117/10 95/121/10
f 97/123/10 96/122/10 94/120/10
f 98/124/10 97/123/10 94/120/10
f 97/123/10 42/64/10 96/122/10
f 98/124/10 99/125/10 97/123/10
f 94/120/10 95/121/10 98/124/10
f 91/117/10 100/126/10 95/121/10
f 102/129/6 101/128/6 96/127/6
f 42/130/6 102/129/6 96/127/6
f 101/133/12 102/132/12 103/131/12
f 104/134/12 101/133/12 103/131/12
f 104/134/12 103/131/12 105/135/12
f 107/137/12 106/136/12 104/134/12
f 104/134/12 108/138/12 107/137/12
f 107/137/12 41/67/12 106/136/12
f 108/138/12 82/139/12 107/137/12
f 104/134/12 105/135/12 108/138/12
f 103/131/12 81/140/12 105/135/12
f 103/129/17 97/130/17 99/32/17
f 81/114/17 103/129/17 99/32/17
f 105/142/18 99/24/18 98/141/18
f 105/142/18 81/108/18 99/24/18
f 108/129/17 95/130/17 100/32/17
f 82/114/17 108/129/17 100/32/17
f 107/142/18 100/24/18 91/141/18
f 107/142/18 82/108/18 100/24/18
f 92/141/5 93/144/5 106/143/5
f 41/142/5 92/141/5 106/143/5
f 110/146/2 109/145/2 106/10/2
f 101/148/2 104/147/2 109/145/2
f 101/148/2 109/145/2 111/149/2
f 93/151/2 112/150/2 110/146/2
f 93/151/2 94/153/2 113/152/2
f 113/152/2 94/153/2 96/8/2
f 96/8/2 111/149/2 114/154/2
f 96/8/2 101/148/2 111/149/2
f 114/154/2 113/152/2 96/8/2
f 93/151/2 113/152/2 112/150/2
f 110/146/2 106/10/2 93/151/2
f 109/145/2 104/147/2 106/10/2
f 117/157/10 116/156/10 115/155/10
f 118/158/10 117/157/10 115/155/10
f 118/158/10 115/155/10 119/159/10
f 121/161/10 120/160/10 118/158/10
f 122/162/10 121/161/10 118/158/10
f 121/161/10 53/72/10 120/160/10
f 122/162/10 123/163/10 121/161/10
f 118/158/10 119/159/10 122/162/10
f 115/155/10 124/164/10 119/159/10
f 126/167/4 125/166/4 120/165/4
f 53/73/4 126/167/4 120/165/4
f 125/170/12 126/169/12 127/168/12
f 128/171/12 125/170/12 127/168/12
f 128/171/12 127/168/12 129/172/12
f 131/174/12 130/173/12 128/171/12
f 128/171/12 132/175/12 131/174/12
f 131/174/12 54/176/12 130/173/12
f 132/175/12 133/177/12 131/174/12
f 128/171/12 129/172/12 132/175/12
f 127/168/12 134/178/12 129/172/12
f 127/167/19 121/73/19 123/179/19
f 134/18/19 127/167/19 123/179/19
f 134/10/20 123/151/20 122/180/20
f 129/181/20 134/10/20 122/180/20
f 132/167/19 119/73/19 124/179/19
f 133/18/19 132/167/19 124/179/19
f 133/10/20 124/151/20 115/180/20
f 131/181/20 133/10/20 115/180/20
f 116/180/2 117/183/2 130/182/2
f 54/181/2 116/180/2 130/182/2
f 136/185/6 135/184/6 130/30/6
f 125/114/6 128/186/6 135/184/6
f 125/114/6 135/184/6 110/187/6
f 117/189/6 137/188/6 136/185/6
f 117/189/6 118/191/6 138/190/6
f 138/190/6 118/191/6 120/32/6
f 120/32/6 110/187/6 112/192/6
f 120/32/6 125/114/6 110/187/6
f 112/192/6 138/190/6 120/32/6
f 117/189/6 138/190/6 137/188/6
f 136/185/6 130/30/6 117/189/6
f 135/184/6 128/186/6 130/30/6
f 140/194/12 8/1/12 139/193/12
f 141/195/12 140/194/12 139/193/12
f 141/195/12 139/193/12 142/196/12
f 144/198/12 143/197/12 141/195/12
f 145/199/12 144/198/12 141/195/12
f 144/198/12 146/200/12 143/197/12
f 145/199/12 86/201/12 144/198/12
f 141/195/12 142/196/12 145/199/12
f 139/193/12 84/202/12 142/196/12
f 6/205/6 147/204/6 143/203/6
f 146/206/6 6/205/6 143/203/6
f 147/208/10 6/11/10 148/207/10
f 149/209/10 147/208/10 148/207/10
f 149/209/10 148/207/10 150/210/10
f 152/212/10 151/211/10 149/209/10
f 149/209/10 153/213/10 152/212/10
f 152/212/10 154/214/10 151/211/10
f 153/213/10 155/215/10 152/212/10
f 149/209/10 150/210/10 153/213/10
f 148/207/10 156/216/10 150/210/10
f 148/205/21 144/206/21 86/30/21
f 156/189/21 148/205/21 86/30/21
f 150/218/22 86/26/22 145/217/22
f 150/218/22 156/219/22 86/26/22
f 153/205/21 142/206/21 84/30/21
f 155/189/21 153/205/21 84/30/21
f 152/218/22 84/26/22 139/217/22
f 152/218/22 155/219/22 84/26/22
f 8/217/5 140/221/5 151/220/5
f 154/218/5 8/217/5 151/220/5
f 147/20/4 158/223/4 157/222/4
f 143/224/4 147/20/4 157/222/4
f 158/223/4 149/225/4 151/179/4
f 137/158/4 151/179/4 140/18/4
f 140/18/4 141/226/4 159/99/4
f 159/99/4 141/226/4 143/224/4
f 143/224/4 157/222/4 160/227/4
f 160/227/4 159/99/4 143/224/4
f 140/18/4 159/99/4 136/228/4
f 140/18/4 136/228/4 137/158/4
f 137/158/4 158/223/4 151/179/4
f 147/20/4 149/225/4 158/223/4
f 163/152/2 162/230/2 161/229/2
f 161/229/2 164/231/2 163/152/2
f 164/231/2 166/233/2 165/232/2
f 163/152/2 168/235/2 167/234/2
f 167/234/2 155/236/2 162/230/2
f 168/235/2 32/41/2 167/234/2
f 163/152/2 167/234/2 162/230/2
f 164/231/2 165/232/2 163/152/2
f 161/229/2 156/237/2 164/231/2
f 165/240/6 166/239/6 31/238/6
f 169/241/6 165/240/6 31/238/6
f 172/223/4 171/243/4 170/242/4
f 170/242/4 173/244/4 172/223/4
f 173/244/4 175/246/4 174/245/4
f 172/223/4 169/248/4 176/247/4
f 176/247/4 99/249/4 171/243/4
f 169/248/4 31/51/4 176/247/4
f 172/223/4 176/247/4 171/243/4
f 173/244/4 174/245/4 172/223/4
f 170/242/4 100/250/4 173/244/4
f 99/32/23 164/239/23 156/189/23
f 99/32/23 176/238/23 164/239/23
f 171/252/24 156/219/24 161/251/24
f 171/252/24 99/24/24 156/219/24
f 100/32/23 162/239/23 155/189/23
f 100/32/23 170/238/23 162/239/23
f 173/252/24 155/219/24 167/251/24
f 173/252/24 100/24/24 155/219/24
f 174/253/5 175/252/5 32/251/5
f 168/254/5 174/253/5 32/251/5
f 169/60/12 113/134/12 114/255/12
f 169/60/12 114/255/12 177/256/12
f 165/88/12 169/60/12 177/256/12
f 113/134/12 172/257/12 174/87/12
f 138/171/12 112/258/12 174/87/12
f 168/58/12 163/259/12 158/195/12
f 158/195/12 163/259/12 165/88/12
f 177/256/12 157/260/12 165/88/12
f 157/260/12 158/195/12 165/88/12
f 168/58/12 158/195/12 137/261/12
f 168/58/12 137/261/12 138/171/12
f 174/87/12 168/58/12 138/171/12
f 112/258/12 113/134/12 174/87/12
f 169/60/12 172/257/12 113/134/12
f 179/264/12 22/263/12 178/262/12
f 180/256/12 179/264/12 178/262/12
f 180/256/12 178/262/12 181/265/12
f 183/267/12 182/266/12 180/256/12
f 184/268/12 183/267/12 180/256/12
f 183/267/12 185/269/12 182/266/12
f 184/268/12 186/270/12 183/267/12
f 180/256/12 181/265/12 184/268/12
f 178/262/12 187/271/12 181/265/12
f 24/35/4 188/273/4 182/272/4
f 185/274/4 24/35/4 182/272/4
f 188/276/10 24/37/10 189/275/10
f 190/222/10 188/276/10 189/275/10
f 190/222/10 189/275/10 191/277/10
f 193/279/10 192/278/10 190/222/10
f 190/222/10 194/280/10 193/279/10
f 193/279/10 195/281/10 192/278/10
f 194/280/10 196/282/10 193/279/10
f 190/222/10 191/277/10 194/280/10
f 189/275/10 197/283/10 191/277/10
f 189/35/25 183/274/25 186/224/25
f 197/20/25 189/35/25 186/224/25
f 197/8/26 186/148/26 184/284/26
f 191/285/26 197/8/26 184/284/26
f 194/35/25 181/274/25 187/224/25
f 196/20/25 194/35/25 187/224/25
f 196/8/26 187/148/26 178/284/26
f 193/285/26 196/8/26 178/284/26
f 22/284/2 179/287/2 192/286/2
f 195/285/2 22/284/2 192/286/2
f 188/24/5 177/289/5 114/288/5
f 182/108/5 188/24/5 114/288/5
f 177/289/5 190/290/5 192/219/5
f 157/291/5 192/219/5 179/26/5
f 179/26/5 180/293/5 198/292/5
f 198/292/5 180/293/5 182/108/5
f 182/108/5 114/288/5 111/294/5
f 111/294/5 198/292/5 182/108/5
f 179/26/5 198/292/5 160/295/5
f 179/26/5 160/295/5 157/291/5
f 157/291/5 177/289/5 192/219/5
f 188/24/5 190/290/5 177/289/5
f 85/80/10 159/209/10 160/296/10
f 85/80/10 160/296/10 198/222/10
f 198/222/10 77/49/10 85/80/10
f 159/209/10 199/297/10 89/50/10
f 135/158/10 136/298/10 89/50/10
f 74/82/10 110/299/10 135/158/10
f 74/82/10 75/300/10 109/120/10
f 109/120/10 75/300/10 77/49/10
f 198/222/10 111/301/10 77/49/10
f 111/301/10 109/120/10 77/49/10
f 74/82/10 109/120/10 110/299/10
f 135/158/10 89/50/10 74/82/10
f 136/298/10 159/209/10 89/50/10
f 85/80/10 199/297/10 159/209/10
f 85/303/2 72/89/2 87/302/2
f 199/145/2 85/303/2 87/302/2
f 199/145/2 87/302/2 88/304/2
f 83/306/2 89/305/2 199/145/2
f 199/145/2 200/307/2 83/306/2
f 83/306/2 90/308/2 89/305/2
f 200/307/2 84/309/2 83/306/2
f 199/145/2 88/304/2 200/307/2
f 87/302/2 86/310/2 88/304/2
f 84/30/16 76/113/16 82/114/16
f 84/30/16 200/112/16 76/113/16
f 12/312/5 6/218/5 5/311/5
f 9/313/5 12/312/5 5/311/5
f 11/314/10 7/13/10 8/214/10
f 11/314/10 10/14/10 7/13/10
f 11/316/6 8/206/6 1/315/6
f 2/317/6 11/316/6 1/315/6
f 3/3/12 4/4/12 6/200/12
f 12/318/12 3/3/12 6/200/12
f 16/320/2 24/285/2 19/319/2
f 15/321/2 16/320/2 19/319/2
f 17/323/12 23/322/12 24/269/12
f 16/324/12 17/323/12 24/269/12
f 18/325/4 22/274/4 21/33/4
f 13/34/4 18/325/4 21/33/4
f 14/40/10 20/39/10 22/281/10
f 18/326/10 14/40/10 22/281/10
f 35/327/4 30/53/4 32/246/4
f 35/327/4 34/54/4 30/53/4
f 35/329/6 32/239/6 25/328/6
f 26/330/6 35/329/6 25/328/6
f 27/43/2 28/44/2 31/233/2
f 36/331/2 27/43/2 31/233/2
f 36/333/5 31/252/5 29/332/5
f 33/334/5 36/333/5 29/332/5
f 46/336/6 40/335/6 41/129/6
f 47/337/6 46/336/6 41/129/6
f 44/339/5 38/338/5 42/141/5
f 48/340/5 44/339/5 42/141/5
f 45/66/12 42/132/12 39/65/12
f 45/66/12 48/341/12 42/132/12
f 47/342/10 41/118/10 37/61/10
f 43/62/10 47/342/10 37/61/10
f 58/75/4 50/76/4 54/167/4
f 59/343/4 58/75/4 54/167/4
f 60/345/2 52/344/2 53/180/2
f 60/345/2 56/346/2 52/344/2
f 57/348/12 53/169/12 49/347/12
f 57/348/12 60/349/12 53/169/12
f 55/70/10 54/156/10 51/69/10
f 55/70/10 59/350/10 54/156/10
f 66/352/6 71/113/6 67/351/6
f 62/353/6 66/352/6 67/351/6
f 63/92/2 70/91/2 71/308/2
f 66/354/2 63/92/2 71/308/2
f 64/356/5 72/109/5 69/355/5
f 61/357/5 64/356/5 69/355/5
f 65/95/4 68/96/4 72/104/4
f 64/358/4 65/95/4 72/104/4

usemtl Wood_Medium

f 79/361/10 76/360/10 200/359/10
f 88/362/10 79/361/10 200/359/10
f 78/363/10 72/80/10 80/49/10
f 78/363/10 87/364/10 72/80/10
f 73/365/10 71/82/10 90/50/10
f 83/366/10 73/365/10 90/50/10
f 103/367/2 102/148/2 42/8/2
f 97/368/2 103/367/2 42/8/2
f 108/371/2 105/370/2 98/369/2
f 95/372/2 108/371/2 98/369/2
f 91/373/2 92/151/2 41/10/2
f 107/374/2 91/373/2 41/10/2
f 127/375/6 126/114/6 53/32/6
f 121/376/6 127/375/6 53/32/6
f 122/379/6 119/378/6 132/377/6
f 129/380/6 122/379/6 132/377/6
f 115/381/6 116/189/6 54/30/6
f 131/382/6 115/381/6 54/30/6
f 148/383/4 6/20/4 146/224/4
f 144/384/4 148/383/4 146/224/4
f 145/387/4 142/386/4 153/385/4
f 150/388/4 145/387/4 153/385/4
f 139/389/4 8/18/4 154/179/4
f 152/390/4 139/389/4 154/179/4
f 164/391/12 31/60/12 166/88/12
f 164/391/12 176/392/12 31/60/12
f 161/395/12 162/394/12 170/393/12
f 171/396/12 161/395/12 170/393/12
f 167/397/12 32/58/12 175/87/12
f 173/398/12 167/397/12 175/87/12
f 189/399/5 24/24/5 185/108/5
f 183/400/5 189/399/5 185/108/5
f 194/403/5 191/402/5 184/401/5
f 181/404/5 194/403/5 184/401/5
f 178/405/5 22/26/5 195/219/5
f 193/406/5 178/405/5 195/219/5

