# Created by Kenney (www.kenney.nl)

mtllib Lamp.mtl

g mergedBlocks

v -7.6647 1.046091 7.50765
v -7.63705 1.055833 7.502026
v -7.63705 1.040598 7.475638
v -7.617659 1.070283 7.493683
v -7.6647 1.027791 7.458359
v -7.63705 1.123133 7.427988
v -7.6647 1.114572 7.408256
v -7.647611 1.08272 7.394393
v -7.619961 1.088213 7.426404
v -7.635627 1.055163 7.405563
v -7.617659 1.123917 7.462717
v -7.647612 1.031711 7.423843
v -7.681788 1.031711 7.423843
v -7.6647 1.0478 7.39281
v -7.693773 1.055163 7.405563
v -7.619961 1.056687 7.444605
v -7.6094 1.0971 7.4782
v -7.709439 1.056687 7.444605
v -7.709439 1.088213 7.426404
v -7.72 1.0971 7.4782
v -7.711741 1.070283 7.493683
v -7.711741 1.123917 7.462717
v -7.69235 1.040598 7.475638
v -7.69235 1.055833 7.502026
v -7.69235 1.138367 7.454374
v -7.69235 1.123133 7.427988
v -7.6647 1.148109 7.44875
v -7.681788 1.08272 7.394393
v -7.63705 1.138367 7.454374
v -7.6284 1.15905 7.585518
v -7.639296 1.136117 7.598759
v -7.639296 1.181983 7.572278
v -7.6656 1.191483 7.566793
v -7.6656 1.126617 7.604243
v -7.691904 1.181983 7.572278
v -7.691904 1.136117 7.598759
v -7.7028 1.15905 7.585518
v -7.5912 1.08 7.4486
v -7.612991 1.125867 7.422119
v -7.612991 1.034133 7.475081
v -7.6656 1.015135 7.48605
v -7.6656 1.144865 7.41115
v -7.718209 1.034133 7.475081
v -7.718209 1.125867 7.422119
v -7.74 1.08 7.4486
v -7.684234 0.9986135 7.607956
v -7.680873 1.027179 7.606348
v -7.683839 1.006706 7.665636
v -7.680154 1.0376 7.657639
v -7.677524 1.055648 7.60367
v -7.676619 1.066943 7.645728
v -7.674191 1.083973 7.599927
v -7.673305 1.094147 7.630143
v -7.670881 1.112106 7.595127
v -7.670278 1.118664 7.611199
v -7.6676 1.14 7.589276
v -7.6876 0.9748855 7.669559
v -7.6876 0.97 7.608492
v -7.69136 0.9427764 7.669331
v -7.690966 0.9413865 7.607956
v -7.694327 0.9128212 7.606348
v -7.695045 0.9110253 7.664953
v -7.697676 0.884352 7.60367
v -7.698581 0.880271 7.656515
v -7.701008 0.8560271 7.599927
v -7.701895 0.8511319 7.644187
v -7.704318 0.827894 7.595127
v -7.7076 0.8 7.589276
v -7.643381 1.066943 7.645728
v -7.646695 1.094147 7.630143
v -7.639127 1.027179 7.606348
v -7.642476 1.055648 7.60367
v -7.704922 0.8241943 7.628216
v -7.615078 0.8241943 7.628216
v -7.618105 0.8511319 7.644187
v -7.629034 0.9413865 7.607956
v -7.6324 0.97 7.608492
v -7.621419 0.880271 7.656515
v -7.618991 0.8560271 7.599927
v -7.622324 0.884352 7.60367
v -7.6124 0.8 7.589276
v -7.6124 0.8 7.608924
v -7.7076 0.8 7.608924
v -7.625673 0.9128212 7.606348
v -7.6524 1.14 7.589276
v -7.649722 1.118664 7.611199
v -7.645808 1.083973 7.599927
v -7.649118 1.112106 7.595127
v -7.635766 0.9986135 7.607956
v -7.639845 1.0376 7.657639
v -7.624954 0.9110253 7.664953
v -7.628639 0.9427764 7.669331
v -7.63616 1.006706 7.665636
v -7.6324 0.9748855 7.669559
v -7.615682 0.827894 7.595127
v -7.8 0.74 7.466597
v -7.6632 0.74 7.389694
v -7.8 0.8 7.466597
v -7.6632 0.8 7.389694
v -7.5264 0.8 7.466597
v -7.5264 0.74 7.466597
v -7.5264 0.8 7.620403
v -7.5264 0.74 7.620403
v -7.6632 0.8 7.697306
v -7.8 0.8 7.620403
v -7.6632 0.74 7.697306
v -7.8 0.74 7.620403

vn 0.272522 -0.8810756 0.3865718
vn 0.5225891 -0.7383599 0.4262923
vn 0.4258438 -0.8087198 0.4057453
vn 0.6522479 -0.6564522 0.379003
vn 0.2118154 -0.9162004 0.3401632
vn 0.6402337 0.4413551 -0.6287341
vn 0.3764807 0.5320613 -0.7584017
vn 0.6197814 0.3354631 -0.7094614
vn 0.7520599 0.2938771 -0.5899509
vn 0.7503681 0.05947898 -0.6583387
vn 0.7929744 0.4085451 -0.4519763
vn 6.184214E-08 -0.9936118 -0.1128526
vn 0.139278 -0.9083858 -0.3942549
vn -0.1392778 -0.9083858 -0.394255
vn 1.310145E-07 -0.8103184 -0.5859898
vn 0.4318097 -0.6813468 -0.5910219
vn -0.4318094 -0.6813468 -0.5910221
vn 0.9108604 -0.2063573 -0.3574214
vn 0.9666783 -0.1971617 -0.1632798
vn 0.9666783 -0.04282368 -0.2523869
vn 0.9889281 -0.07419777 -0.1285142
vn 0.9602355 -0.277375 0.03179279
vn 0.9602357 0.1662208 -0.2243173
vn -0.9666783 -0.1971618 -0.1632802
vn -0.9108602 -0.2063574 -0.3574217
vn -0.9666782 -0.04282376 -0.2523872
vn -0.9889281 -0.07419785 -0.1285146
vn -0.9602355 -0.2773751 0.03179248
vn -0.9602355 0.1662207 -0.2243176
vn -0.6197813 -0.7821433 -0.06421135
vn -0.750368 -0.5998776 -0.2776594
vn -0.7520599 -0.6578512 -0.04047076
vn -0.6402335 -0.7651774 0.06785741
vn -0.7929743 -0.5956957 0.1278221
vn -0.3764805 -0.9228258 0.08157752
vn -0.5225892 -0.7383599 0.4262922
vn -0.272522 -0.8810756 0.3865717
vn -0.4258438 -0.8087198 0.4057452
vn -0.652248 -0.6564522 0.3790027
vn -0.2118154 -0.9162004 0.3401632
vn -0.5225891 0.7383599 -0.4262923
vn -0.6522479 0.6564522 -0.379003
vn -0.4258438 0.7557456 -0.4974993
vn -0.2725219 0.7753187 -0.5697479
vn -0.2118154 0.7526903 -0.6233712
vn 0.4318097 -0.1711665 -0.8855747
vn 0.139278 0.1127582 -0.9838126
vn 1.667496E-07 -0.1023227 -0.9947513
vn -0.1392777 0.1127582 -0.9838126
vn -0.4318094 -0.1711665 -0.8855748
vn 1.321359E-07 0.3990727 -0.9169193
vn -0.3764805 0.5320612 -0.7584018
vn -0.6402335 0.441355 -0.6287343
vn -0.6197813 0.335463 -0.7094616
vn -0.7520598 0.293877 -0.5899512
vn -0.7929742 0.4085451 -0.4519765
vn -0.7503679 0.05947891 -0.658339
vn 0.4258438 0.7557456 -0.4974992
vn 0.272522 0.7753188 -0.5697478
vn 0.2118155 0.7526903 -0.6233711
vn 0.5225892 0.7383599 -0.4262922
vn 0.652248 0.6564522 -0.3790027
vn 0.6402335 -0.7651773 0.06785759
vn 0.7520599 -0.657851 -0.04047052
vn 0.6197814 -0.7821432 -0.06421116
vn 0.7503681 -0.5998776 -0.2776591
vn 0.3764806 -0.9228258 0.08157764
vn 0.7929742 -0.5956955 0.1278223
vn -1.631331E-07 0.4999999 0.8660254
vn 0 0.5 0.8660254
vn 0 -0.5 -0.8660254
vn 0.3759943 0.8876617 -0.2658665
vn 0.9036359 0.4282979 -0.001765258
vn -0.9036358 -0.2156777 0.3700342
vn 0.3759943 -0.674078 0.6358043
vn 0.9036358 -0.2156777 0.3700342
vn -0.9036359 0.4282979 -0.001765258
vn -0.3759943 0.8876617 -0.2658665
vn -0.3759943 -0.674078 0.6358043
vn -0.993185 0.1161758 -0.009306118
vn -0.9932466 0.1156321 -0.009508007
vn -0.9931858 0.1161695 -0.009308464
vn -0.9931299 0.1166603 -0.009126204
vn -0.9931149 0.1168329 -0.0085338
vn -0.9931172 0.1168069 -0.008622967
vn -0.9931005 0.1169948 -0.007977966
vn -0.9930443 0.1175094 -0.007387459
vn -0.9931214 0.1168753 -0.007067335
vn -0.9929665 0.1181924 -0.006934248
vn -0.9934457 0.1142521 -0.003490955
vn 1.072833E-07 0.4359763 0.8999581
vn 9.923466E-08 0.554114 0.8324408
vn -1.188783E-07 -0.07446173 -0.9972239
vn -1.184612E-07 -0.1118528 -0.9937248
vn 9.803477E-08 -0.5689451 0.8223755
vn 1.063409E-07 -0.451933 0.8920519
vn 1.063409E-07 -0.4519329 0.8920519
vn -1.191233E-07 0.03796064 -0.9992793
vn -1.192093E-07 0.0004770375 -0.9999999
vn 1.125679E-07 -0.3291209 0.9442878
vn -1.17859E-07 0.1500835 -0.9886733
vn -1.184485E-07 0.1127964 -0.9936182
vn 0 -1 0
vn -1.188698E-07 0.07541116 -0.9971525
vn 8.31429E-08 0.7166302 0.6974533
vn 8.909031E-08 0.6644375 0.7473438
vn -1.178759E-07 -0.149148 -0.9888149
vn -1.171219E-07 -0.1863138 -0.9824902
vn -1.191276E-07 -0.03700773 -0.999315
vn 1.132446E-07 0.3123576 0.9499645
vn -1.166702E-07 -0.2052921 -0.9787008
vn 1.167404E-07 -0.2024662 0.9792893
vn 1.18886E-07 -0.07359819 0.9972879
vn 1.171474E-07 0.1851857 0.9827036
vn 9.320587E-08 -0.6234445 0.7818677
vn 1.190218E-07 0.05606575 0.998427
vn 1.190218E-07 0.05606575 0.998427
vn 0.9932317 0.1160285 -0.005324797
vn 0.9932355 0.1159013 -0.007073348
vn 0.9931178 0.1169212 -0.006821744
vn 0.9930915 0.1170744 -0.007911289
vn -1.166702E-07 0.2052921 -0.9787008
vn -1.17101E-07 0.1872389 -0.9823145
vn 0.9932163 0.1158908 -0.009528356
vn 0.9932148 0.1159034 -0.009527083
vn 0.9932675 0.1154461 -0.009573424
vn 0.9931713 0.1162782 -0.009489085
vn 0.9931452 0.1165199 -0.009245498
vn 0.9931439 0.1165337 -0.009231634
vn 0.9931188 0.1167661 -0.008997404
vn 0.9930805 0.1171218 -0.008586002
vn 0.9930862 0.1170682 -0.008647923
vn 0.9930443 0.1174555 -0.00820001
vn -0.9939286 0.1100275 1.184855E-07
vn -0.9936713 0.1123176 -0.00144041
vn 0.9933848 0.1147943 -0.002999512
vn 0.9939287 0.110027 -1.184855E-07
vn 0.9930284 0.1177718 -0.004939273
vn -0.490034 0 -0.8717033
vn 1 0 0
vn 0 1 0
vn 0.490034 0 -0.8717033
vn -0.490034 0 0.8717033
vn 0.490034 0 0.8717033
vn -1 0 0

vt 7.704705 -7.47822
vt 7.677057 -7.47822
vt 7.677057 -7.447752
vt 7.657667 -7.47822
vt 7.704705 -7.426383
vt 7.677057 7.447752
vt 7.704705 7.426383
vt 7.687617 7.398451
vt -7.42892 0.8352972
vt -7.447752 0.864738
vt -7.398451 0.8465425
vt -7.394346 0.8171017
vt -7.47822 0.8480576
vt 7.687617 -7.398451
vt 7.721792 -7.398451
vt 7.687617 0.7876609
vt 7.704705 0.8171017
vt 7.721792 0.7876609
vt 7.675634 0.8171017
vt 7.733776 0.8171017
vt -7.42892 0.7989063
vt -7.47822 0.8171017
vt -7.47822 0.7861458
vt 7.42892 0.7989063
vt 7.394346 0.8171017
vt 7.42892 0.8352972
vt 7.47822 0.8171017
vt 7.47822 0.7861458
vt 7.47822 0.8480576
vt 7.398451 0.7876609
vt 7.447752 0.7694654
vt 7.732353 -7.447752
vt 7.732353 -7.47822
vt 7.751742 -7.47822
vt 7.732353 7.47822
vt 7.751742 7.47822
vt 7.732353 7.447752
vt 7.704705 7.47822
vt 7.687617 0.8465425
vt 7.721792 0.8465425
vt 7.721792 7.398451
vt 7.447752 0.864738
vt 7.398451 0.8465425
vt 7.677057 7.47822
vt 7.657667 7.47822
vt -7.447752 0.7694654
vt -7.398451 0.7876609
vt -7.649409 0.8171017
vt -7.657667 0.7861458
vt -7.657667 0.8480576
vt -7.677057 0.864738
vt -7.677057 0.7694654
vt -7.704705 0.8759834
vt -7.704705 0.7582201
vt -7.732353 0.864738
vt -7.732353 0.7694654
vt -7.751742 0.8480576
vt -7.751742 0.7861458
vt -7.760001 0.8171017
vt -7.6484 1.12
vt -7.659296 1.093526
vt -7.659296 1.146474
vt -7.6856 1.15744
vt -7.6856 1.08256
vt -7.711905 1.146474
vt -7.711905 1.093526
vt -7.7228 1.12
vt 7.6112 1.12
vt 7.632991 1.172948
vt 7.632991 1.067052
vt 7.6856 1.04512
vt 7.6856 1.19488
vt 7.738209 1.067052
vt 7.738209 1.172948
vt 7.76 1.12
vt 7.6856 7.428641
vt 7.632991 7.428641
vt 7.6856 7.586721
vt 7.659296 7.586721
vt -7.428641 1.172948
vt -7.428641 1.12
vt -7.586721 1.146474
vt -7.586721 1.12
vt 7.428641 1.12
vt 7.586721 1.12
vt 7.428641 1.067052
vt 7.586721 1.093526
vt 7.632991 -7.428641
vt 7.6856 -7.428641
vt 7.659296 -7.586721
vt 7.6856 -7.586721
vt -7.586721 1.093526
vt -7.428641 1.067052
vt 7.428641 1.172948
vt 7.586721 1.146474
vt 7.738209 7.428641
vt 7.711905 7.586721
vt 7.738209 -7.428641
vt 7.711905 -7.586721
vt 7.58798 0.9986135
vt 7.586372 1.027179
vt 7.64566 1.006707
vt 7.637663 1.0376
vt 7.583694 1.055648
vt 7.625752 1.066943
vt 7.579952 1.083973
vt 7.610168 1.094147
vt 7.575151 1.112106
vt 7.591223 1.118664
vt 7.5693 1.14
vt 7.649584 0.9748855
vt 7.588517 0.97
vt 7.649355 0.9427764
vt 7.58798 0.9413866
vt 7.586372 0.9128212
vt 7.644978 0.9110254
vt 7.583694 0.8843521
vt 7.636539 0.880271
vt 7.579952 0.8560271
vt 7.624211 0.8511319
vt 7.575151 0.827894
vt 7.5693 0.8000001
vt -7.61662 1.066943
vt -7.613306 1.094147
vt -7.583382 1.066943
vt -7.586696 1.094147
vt 7.620874 1.027179
vt 7.579128 1.027179
vt 7.617525 1.055648
vt 7.582477 1.055648
vt -7.644923 0.8241943
vt -7.641896 0.8511319
vt -7.555079 0.8241943
vt -7.558106 0.8511319
vt 7.630967 0.9413866
vt 7.569035 0.9413866
vt 7.627601 0.97
vt 7.572401 0.97
vt -7.638582 0.880271
vt -7.56142 0.880271
vt 7.641009 0.8560271
vt 7.558992 0.8560271
vt 7.637677 0.8843521
vt 7.562325 0.8843521
vt 7.552401 -7.5693
vt 7.647601 -7.5693
vt 7.552401 -7.588949
vt 7.647601 -7.588949
vt 7.634328 0.9128212
vt 7.565674 0.9128212
vt 7.592401 7.5693
vt 7.589723 7.591223
vt 7.607601 7.5693
vt 7.610279 7.591223
vt 7.614192 1.083973
vt 7.585809 1.083973
vt 7.610882 1.112106
vt 7.589119 1.112106
vt 7.624235 0.9986135
vt 7.575767 0.9986135
vt -7.620155 1.0376
vt -7.579846 1.0376
vt 7.607601 1.14
vt 7.592401 1.14
vt -7.635046 0.9110254
vt -7.631361 0.9427764
vt -7.564955 0.9110254
vt -7.56864 0.9427764
vt -7.610279 1.118664
vt -7.589723 1.118664
vt -7.62384 1.006707
vt -7.576161 1.006707
vt -7.647601 0.8000001
vt -7.552401 0.8000001
vt -7.627601 0.9748855
vt -7.572401 0.9748855
vt -7.608241 0.8241943
vt -7.624211 0.8511319
vt -7.579952 0.8560271
vt -7.636539 0.880271
vt 7.647601 0.8000001
vt 7.552401 0.8000001
vt 7.644319 0.827894
vt 7.555683 0.827894
vt -7.586372 1.027179
vt -7.637663 1.0376
vt -7.583694 1.055648
vt -7.625752 1.066943
vt -7.579952 1.083973
vt -7.610168 1.094147
vt -7.575151 1.112106
vt -7.591223 1.118664
vt -7.5693 1.14
vt -7.64566 1.006707
vt -7.58798 0.9986135
vt -7.649584 0.9748855
vt -7.588517 0.97
vt -7.649355 0.9427764
vt -7.58798 0.9413866
vt -7.586372 0.9128212
vt -7.644978 0.9110254
vt -7.583694 0.8843521
vt 7.588949 0.8000001
vt 7.608241 0.8241943
vt -7.5693 0.8000001
vt -7.588949 0.8000001
vt -7.575151 0.827894
vt 7.880001 0.7400001
vt 7.743201 0.7400001
vt 7.880001 0.8
vt 7.743201 0.8
vt -7.466642 0.8
vt -7.466642 0.7400001
vt -7.620448 0.8
vt -7.620448 0.7400001
vt 7.606401 7.620448
vt 7.743201 7.697351
vt 7.606401 7.466642
vt 7.743201 7.389739
vt 7.880001 7.620448
vt 7.880001 7.466642
vt 7.606401 0.7400001
vt 7.606401 0.8
vt -7.743201 0.7400001
vt -7.880001 0.7400001
vt -7.743201 0.8
vt -7.880001 0.8
vt -7.606401 0.7400001
vt -7.606401 0.8
vt 7.606401 -7.620448
vt 7.606401 -7.466642
vt 7.743201 -7.697351
vt 7.743201 -7.389739
vt 7.880001 -7.620448
vt 7.880001 -7.466642
vt 7.466642 0.7400001
vt 7.466642 0.8
vt 7.620448 0.7400001
vt 7.620448 0.8

usemtl Iron_Grey_-_Light

f 3/3/3 2/2/2 1/1/1
f 3/3/3 4/4/4 2/2/2
f 5/5/5 3/3/3 1/1/1
f 8/8/8 7/7/7 6/6/6
f 8/11/8 6/10/6 9/9/9
f 8/11/8 9/9/9 10/12/10
f 6/10/6 11/13/11 9/9/9
f 13/15/14 12/14/13 5/5/12
f 13/18/14 14/17/15 12/16/13
f 14/17/15 10/19/16 12/16/13
f 15/20/17 14/17/15 13/18/14
f 9/9/20 16/21/19 10/12/18
f 9/9/20 17/22/21 16/21/19
f 17/22/21 4/23/22 16/21/19
f 11/13/23 17/22/21 9/9/20
f 19/26/26 15/25/25 18/24/24
f 19/26/26 18/24/24 20/27/27
f 20/27/27 18/24/24 21/28/28
f 22/29/29 19/26/26 20/27/27
f 18/24/32 15/25/31 13/30/30
f 18/24/32 13/30/30 23/31/33
f 18/24/32 23/31/33 21/28/34
f 13/15/30 5/5/35 23/32/33
f 23/32/38 1/1/37 24/33/36
f 23/32/38 24/33/36 21/34/39
f 5/5/40 1/1/37 23/32/38
f 26/37/43 22/36/42 25/35/41
f 26/37/43 25/35/41 27/38/44
f 7/7/45 26/37/43 27/38/44
f 14/17/48 8/39/47 10/19/46
f 28/40/49 8/39/47 14/17/48
f 15/20/50 28/40/49 14/17/48
f 28/41/49 7/7/51 8/8/47
f 28/41/54 26/37/53 7/7/52
f 28/43/54 19/26/55 26/42/53
f 26/42/53 19/26/55 22/29/56
f 19/26/55 28/43/54 15/25/57
f 7/7/60 27/38/59 6/6/58
f 6/6/58 27/38/59 29/44/61
f 6/6/58 29/44/61 11/45/62
f 12/47/65 16/21/64 3/46/63
f 12/47/65 10/12/66 16/21/64
f 12/14/65 3/3/63 5/5/67
f 16/21/64 4/23/68 3/46/63
f 11/50/69 4/49/69 17/48/69
f 4/49/69 11/50/69 29/51/69
f 4/49/69 29/51/69 2/52/69
f 2/52/69 29/51/69 27/53/69
f 2/52/69 27/53/69 1/54/69
f 1/54/69 27/53/69 25/55/69
f 1/54/69 25/55/69 24/56/69
f 24/56/69 25/55/69 22/57/69
f 24/56/69 22/57/69 21/58/69
f 21/58/69 22/57/69 20/59/69

usemtl Silver

f 32/62/70 31/61/70 30/60/70
f 31/61/70 32/62/70 33/63/70
f 31/61/70 33/63/70 34/64/70
f 34/64/70 33/63/70 35/65/70
f 34/64/70 35/65/70 36/66/70
f 36/66/70 35/65/70 37/67/70
f 40/70/71 39/69/71 38/68/71
f 39/69/71 40/70/71 41/71/71
f 39/69/71 41/71/71 42/72/71
f 42/72/71 41/71/71 43/73/71
f 42/72/71 43/73/71 44/74/71
f 44/74/71 43/73/71 45/75/71
f 33/78/72 39/77/72 42/76/72
f 39/77/72 33/78/72 32/79/72
f 32/82/73 38/81/73 39/80/73
f 38/81/73 32/82/73 30/83/73
f 43/86/74 37/85/74 45/84/74
f 37/85/74 43/86/74 36/87/74
f 31/90/75 41/89/75 40/88/75
f 41/89/75 31/90/75 34/91/75
f 31/92/76 38/81/76 30/83/76
f 38/81/76 31/92/76 40/93/76
f 45/84/77 35/95/77 44/94/77
f 35/95/77 45/84/77 37/85/77
f 35/97/78 42/76/78 44/96/78
f 42/76/78 35/97/78 33/78/78
f 34/91/79 43/98/79 41/89/79
f 43/98/79 34/91/79 36/99/79
f 48/102/82 47/101/81 46/100/80
f 47/101/81 48/102/82 49/103/81
f 47/101/81 49/103/81 50/104/81
f 50/104/81 49/103/81 51/105/81
f 50/104/81 51/105/81 52/106/81
f 52/106/81 51/105/81 53/107/81
f 52/106/81 53/107/81 54/108/81
f 54/108/81 53/107/81 55/109/81
f 54/108/81 55/109/81 56/110/81
f 46/100/80 57/111/83 48/102/82
f 58/112/83 57/111/83 46/100/80
f 58/112/83 59/113/83 57/111/83
f 60/114/83 59/113/83 58/112/83
f 61/115/84 59/113/83 60/114/83
f 59/113/83 61/115/84 62/116/85
f 63/117/86 62/116/85 61/115/84
f 63/117/86 64/118/86 62/116/85
f 65/119/87 64/118/86 63/117/86
f 64/118/86 65/119/87 66/120/88
f 65/119/87 67/121/89 66/120/88
f 66/120/88 67/121/89 68/122/90
f 69/125/91 53/124/92 51/123/91
f 53/124/92 69/125/91 70/126/92
f 50/129/94 71/128/93 47/127/93
f 71/128/93 50/129/94 72/130/94
f 74/133/95 66/132/96 73/131/95
f 66/132/96 74/133/95 75/134/97
f 58/137/99 76/136/98 60/135/98
f 76/136/98 58/137/99 77/138/99
f 75/134/97 64/139/100 66/132/96
f 64/139/100 75/134/97 78/140/100
f 63/143/102 79/142/101 65/141/101
f 79/142/101 63/143/102 80/144/102
f 82/147/103 68/146/103 81/145/103
f 68/146/103 82/147/103 83/148/103
f 61/149/104 80/144/102 63/143/102
f 80/144/102 61/149/104 84/150/104
f 56/153/105 86/152/106 85/151/105
f 86/152/106 56/153/105 55/154/106
f 54/157/108 87/156/107 52/155/107
f 87/156/107 54/157/108 88/158/108
f 46/159/109 77/138/99 58/137/99
f 77/138/99 46/159/109 89/160/109
f 47/127/93 89/160/109 46/159/109
f 89/160/109 47/127/93 71/128/93
f 90/162/110 51/123/91 49/161/110
f 51/123/91 90/162/110 69/125/91
f 56/163/111 88/158/108 54/157/108
f 88/158/108 56/163/111 85/164/111
f 91/167/112 59/166/113 62/165/112
f 59/166/113 91/167/112 92/168/113
f 70/126/92 55/169/106 53/124/92
f 55/169/106 70/126/92 86/170/106
f 93/172/114 49/161/110 48/171/114
f 49/161/110 93/172/114 90/162/110
f 78/140/100 62/165/112 64/139/100
f 62/165/112 78/140/100 91/167/112
f 60/135/98 84/150/104 61/149/104
f 84/150/104 60/135/98 76/136/98
f 82/174/115 73/131/95 83/173/115
f 73/131/95 82/174/115 74/133/95
f 92/168/113 57/175/116 59/166/113
f 57/175/116 92/168/113 94/176/117
f 79/179/120 75/178/119 74/177/118
f 78/180/121 75/178/119 79/179/120
f 94/176/117 48/171/114 57/175/116
f 48/171/114 94/176/117 93/172/114
f 67/183/123 81/182/122 68/181/122
f 81/182/122 67/183/123 95/184/123
f 72/187/126 90/186/125 71/185/124
f 90/186/125 72/187/126 69/188/126
f 69/188/126 72/187/126 87/189/126
f 69/188/126 87/189/126 70/190/126
f 70/190/126 87/189/126 88/191/126
f 70/190/126 88/191/126 86/192/126
f 86/192/126 88/191/126 85/193/126
f 93/194/127 71/185/124 90/186/125
f 93/194/127 89/195/127 71/185/124
f 94/196/128 89/195/127 93/194/127
f 89/195/127 94/196/128 77/197/129
f 92/198/130 77/197/129 94/196/128
f 92/198/130 76/199/130 77/197/129
f 92/198/130 84/200/131 76/199/130
f 84/200/131 92/198/130 91/201/132
f 91/201/132 80/202/133 84/200/131
f 78/180/121 80/202/133 91/201/132
f 80/202/133 78/180/121 79/179/120
f 73/204/135 68/122/90 83/203/134
f 74/177/118 82/206/137 81/205/136
f 95/207/138 74/177/118 81/205/136
f 79/179/120 74/177/118 95/207/138
f 65/141/101 95/184/123 67/183/123
f 95/184/123 65/141/101 79/142/101
f 52/155/107 72/130/94 50/129/94
f 72/130/94 52/155/107 87/156/107
f 66/120/88 68/122/90 73/204/135
f 98/210/139 97/209/139 96/208/139
f 97/209/139 98/210/139 99/211/139
f 102/214/140 101/213/140 100/212/140
f 101/213/140 102/214/140 103/215/140
f 100/218/141 104/217/141 102/216/141
f 104/217/141 100/218/141 99/219/141
f 104/217/141 99/219/141 105/220/141
f 105/220/141 99/219/141 98/221/141
f 99/211/142 101/222/142 97/209/142
f 101/222/142 99/211/142 100/223/142
f 104/226/143 107/225/143 106/224/143
f 107/225/143 104/226/143 105/227/143
f 102/229/144 106/224/144 103/228/144
f 106/224/144 102/229/144 104/226/144
f 106/232/103 101/231/103 103/230/103
f 101/231/103 106/232/103 97/233/103
f 97/233/103 106/232/103 107/234/103
f 97/233/103 107/234/103 96/235/103
f 107/238/145 98/237/145 96/236/145
f 98/237/145 107/238/145 105/239/145

