# Created by Kenney (www.kenney.nl)

mtllib Laptop.mtl

g mergedBlocks

v -1.15 1.25 -10.9
v -1.15 1.25 -11.2
v -1.65 1.25 -10.9
v -1.65 1.25 -11.2
v -1.65 1.29 -11.2
v -1.65 1.29 -10.9
v -1.15 1.29 -11.2
v -1.15 1.29 -10.9
v -1.15 1.270096 -11.225
v -1.15 1.529904 -11.375
v -1.65 1.270096 -11.225
v -1.65 1.529904 -11.375
v -1.65 1.549904 -11.34036
v -1.65 1.290096 -11.19036
v -1.15 1.549904 -11.34036
v -1.15 1.290096 -11.19036
v -1.175 1.284223 -11.22052
v -1.175 1.526908 -11.36064
v -1.62625 1.284223 -11.22052
v -1.62625 1.526908 -11.36064
v -1.62625 1.545898 -11.32775
v -1.62625 1.303213 -11.18763
v -1.175 1.545898 -11.32775
v -1.175 1.303213 -11.18763

vn 0 -1 0
vn -1 0 0
vn 0 0 -1
vn 0 0 1
vn 1 0 0
vn 0 1 0
vn 0 -0.5 -0.8660254
vn 0 0.8660254 -0.5000001
vn 0 -0.8660254 0.5000001
vn 0 0.5 0.8660254
vn 0 -0.5000001 -0.8660254
vn 0 0.8660254 -0.5
vn 0 -0.8660254 0.5
vn 0 0.5000001 0.8660254

vt 1.175 1.305222
vt 1.175 1.545909
vt 1.62625 1.305222
vt 1.62625 1.545909
vt -11.32773 1.545909
vt -11.29457 1.564437
vt -11.18415 1.305222
vt -11.15099 1.32375
vt 1.62625 -11.32773
vt 1.175 -11.32773
vt 1.62625 -11.29457
vt 1.175 -11.29457
vt 1.175 11.18415
vt 1.62625 11.18415
vt 1.175 11.15099
vt 1.62625 11.15099
vt 11.29457 1.564437
vt 11.32773 1.545909
vt 11.15099 1.32375
vt 11.18415 1.305222
vt -1.175 1.564437
vt -1.175 1.32375
vt -1.62625 1.564437
vt -1.62625 1.32375

usemtl foliage

f 3/3/1 2/2/1 1/1/1
f 2/2/1 3/3/1 4/4/1
f 3/7/2 5/6/2 4/5/2
f 5/6/2 3/7/2 6/8/2
f 5/11/3 2/10/3 4/9/3
f 2/10/3 5/11/3 7/12/3
f 8/15/4 3/14/4 1/13/4
f 3/14/4 8/15/4 6/16/4
f 8/19/5 2/18/5 7/17/5
f 2/18/5 8/19/5 1/20/5
f 5/23/6 8/22/6 7/21/6
f 8/22/6 5/23/6 6/24/6
f 11/3/7 10/2/7 9/1/7
f 10/2/7 11/3/7 12/4/7
f 11/7/2 13/6/2 12/5/2
f 13/6/2 11/7/2 14/8/2
f 13/11/8 10/10/8 12/9/8
f 10/10/8 13/11/8 15/12/8
f 16/15/9 11/14/9 9/13/9
f 11/14/9 16/15/9 14/16/9
f 16/19/5 10/18/5 15/17/5
f 10/18/5 16/19/5 9/20/5
f 13/23/10 16/22/10 15/21/10
f 16/22/10 13/23/10 14/24/10

usemtl dark

f 19/3/11 18/2/11 17/1/11
f 18/2/11 19/3/11 20/4/11
f 19/7/2 21/6/2 20/5/2
f 21/6/2 19/7/2 22/8/2
f 21/11/12 18/10/12 20/9/12
f 18/10/12 21/11/12 23/12/12
f 24/15/13 19/14/13 17/13/13
f 19/14/13 24/15/13 22/16/13
f 24/19/5 18/18/5 23/17/5
f 18/18/5 24/19/5 17/20/5
f 21/23/14 24/22/14 23/21/14
f 24/22/14 21/23/14 22/24/14

