# Created by Kenney (www.kenney.nl)

mtllib Rug.mtl

g mergedBlocks

v 1.5 0.01152 0.5599999
v 1.448889 0.01152 0.9482285
v 1.448889 0.01152 0.1717714
v 1.299038 0.01152 -0.1900001
v 1.299038 0.01152 1.31
v 1.06066 0.01152 -0.5006602
v 1.06066 0.01152 1.62066
v 0.9947667 0.01152 0.5599999
v 0.9608707 0.01152 0.3025354
v 0.75 0.01152 -0.7390381
v 0.8614932 0.01152 0.06261662
v 0.7034063 0.01152 -0.1434063
v 0.3882286 0.01152 -0.8888888
v 0.4973833 0.01152 -0.3014933
v 0.2574646 0.01152 -0.4008708
v 4.511947E-16 0.01152 -0.9400001
v -2.255973E-15 0.01152 -0.4347667
v -0.3882286 0.01152 -0.8888888
v -0.2574646 0.01152 -0.4008708
v -0.4973833 0.01152 -0.3014933
v -0.75 0.01152 -0.7390381
v -0.7034063 0.01152 -0.1434063
v -0.8614932 0.01152 0.06261662
v -1.06066 0.01152 -0.5006602
v -0.9608707 0.01152 0.3025354
v -0.9947667 0.01152 0.5599999
v -1.06066 0.01152 1.62066
v -0.9608707 0.01152 0.8174645
v -0.8614932 0.01152 1.057383
v -0.75 0.01152 1.859038
v -0.7034063 0.01152 1.263406
v -0.4973833 0.01152 1.421493
v -0.3882286 0.01152 2.008889
v -0.2574646 0.01152 1.520871
v 0 0.01152 2.06
v 6.767919E-15 0.01152 1.554767
v 0.2574646 0.01152 1.520871
v 0.3882286 0.01152 2.008889
v 0.4973833 0.01152 1.421493
v 0.7034063 0.01152 1.263406
v 0.75 0.01152 1.859038
v 0.8614932 0.01152 1.057383
v 0.9608707 0.01152 0.8174645
v -1.299038 0.01152 -0.1900001
v -1.299038 0.01152 1.31
v -1.448889 0.01152 0.1717714
v -1.448889 0.01152 0.9482285
v -1.5 0.01152 0.5599999
v -1.299038 0 1.31
v -1.06066 0 1.62066
v -1.448889 0 0.9482285
v -1.5 0 0.5599999
v -1.448889 0 0.1717714
v -1.299038 0 -0.1900001
v -1.06066 0 -0.5006602
v -0.75 0 -0.7390381
v -0.3882286 0 -0.8888888
v 4.511947E-16 0 -0.9400001
v 0.3882286 0 -0.8888888
v 0.75 0 -0.7390381
v 1.06066 0 -0.5006602
v 1.299038 0 -0.1900001
v 1.448889 0 0.1717714
v 1.5 0 0.5599999
v 1.448889 0 0.9482285
v 1.299038 0 1.31
v 1.06066 0 1.62066
v 0.75 0 1.859038
v 0.3882286 0 2.008889
v 0 0 2.06
v -0.3882286 0 2.008889
v -0.75 0 1.859038
v -0.7034063 0.00576 -0.1434063
v -0.8614932 0.00576 0.06261662
v -0.9608707 0.00576 0.3025354
v -0.9947667 0.00576 0.5599999
v -0.9608707 0.00576 0.8174645
v -0.8614932 0.00576 1.057383
v -0.7034063 0.00576 1.263406
v -0.4973833 0.00576 1.421493
v -0.2574646 0.00576 1.520871
v 6.767919E-15 0.00576 1.554767
v 0.2574646 0.00576 1.520871
v 0.4973833 0.00576 1.421493
v 0.7034063 0.00576 1.263406
v 0.8614932 0.00576 1.057383
v 0.9608707 0.00576 0.8174645
v 0.9947667 0.00576 0.5599999
v 0.9608707 0.00576 0.3025354
v 0.8614932 0.00576 0.06261662
v 0.7034063 0.00576 -0.1434063
v 0.4973833 0.00576 -0.3014933
v 0.2574646 0.00576 -0.4008708
v -2.255973E-15 0.00576 -0.4347667
v -0.2574646 0.00576 -0.4008708
v -0.4973833 0.00576 -0.3014933

vn 0 1 0
vn -0.8660254 0 0.5
vn -0.7071068 0 0.7071068
vn -0.9659258 0 0.258819
vn -1 0 0
vn -0.9659258 0 -0.258819
vn -0.8660254 0 -0.5
vn -0.7071068 0 -0.7071068
vn -0.5 0 -0.8660254
vn -0.258819 0 -0.9659258
vn 0 0 -1
vn 0.258819 0 -0.9659258
vn 0.5 0 -0.8660254
vn 0.7071068 0 -0.7071068
vn 0.8660254 0 -0.5
vn 0.9659258 0 -0.258819
vn 1 0 0
vn 0.9659258 0 0.258819
vn 0.8660254 0 0.5
vn 0.7071068 0 0.7071068
vn 0.5 0 0.8660254
vn 0.258819 0 0.9659258
vn 0 0 1
vn -0.258819 0 0.9659258
vn -0.5 0 0.8660254

vt -1.5 0.5599999
vt -1.448889 0.9482285
vt -1.448889 0.1717714
vt -1.299038 -0.1900001
vt -1.299038 1.31
vt -1.06066 -0.5006602
vt -1.06066 1.62066
vt -0.9947667 0.5599999
vt -0.9608707 0.3025354
vt -0.75 -0.7390381
vt -0.8614932 0.06261662
vt -0.7034063 -0.1434063
vt -0.3882286 -0.8888888
vt -0.4973833 -0.3014933
vt -0.2574646 -0.4008708
vt -4.511947E-16 -0.9400001
vt 2.255973E-15 -0.4347667
vt 0.3882286 -0.8888888
vt 0.2574646 -0.4008708
vt 0.4973833 -0.3014933
vt 0.75 -0.7390381
vt 0.7034063 -0.1434063
vt 0.8614932 0.06261662
vt 1.06066 -0.5006602
vt 0.9608707 0.3025354
vt 0.9947667 0.5599999
vt 1.06066 1.62066
vt 0.9608707 0.8174645
vt 0.8614932 1.057383
vt 0.75 1.859038
vt 0.7034063 1.263406
vt 0.4973833 1.421493
vt 0.3882286 2.008889
vt 0.2574646 1.520871
vt 0 2.06
vt -6.767919E-15 1.554767
vt -0.2574646 1.520871
vt -0.3882286 2.008889
vt -0.4973833 1.421493
vt -0.7034063 1.263406
vt -0.75 1.859038
vt -0.8614932 1.057383
vt -0.9608707 0.8174645
vt 1.299038 -0.1900001
vt 1.299038 1.31
vt 1.448889 0.1717714
vt 1.448889 0.9482285
vt 1.5 0.5599999
vt 1.31 0
vt 1.31 0.01152
vt 1.62066 0
vt 1.62066 0.01152
vt 0.9482285 0
vt 0.9482285 0.01152
vt 0.5599999 0
vt 0.5599999 0.01152
vt 0.1717714 0
vt 0.1717714 0.01152
vt -0.1900001 0
vt -0.1900001 0.01152
vt -0.5006602 0
vt -0.5006602 0.01152
vt 1.06066 0
vt 0.75 0
vt 1.06066 0.01152
vt 0.75 0.01152
vt 0.3882286 0
vt 0.3882286 0.01152
vt -4.511947E-16 0
vt -4.511947E-16 0.01152
vt -0.3882286 0
vt -0.3882286 0.01152
vt -0.75 0
vt -0.75 0.01152
vt -1.06066 0
vt -1.06066 0.01152
vt 0.5006602 0.01152
vt 0.5006602 0
vt 0.1900001 0.01152
vt 0.1900001 0
vt -0.1717714 0.01152
vt -0.1717714 0
vt -0.5599999 0.01152
vt -0.5599999 0
vt -0.9482285 0.01152
vt -0.9482285 0
vt -1.31 0.01152
vt -1.31 0
vt -1.62066 0.01152
vt -1.62066 0
vt 0 0
vt 0 0.01152
vt 0.1434063 0.01152
vt 0.1434063 0.00576
vt -0.06261662 0.01152
vt -0.06261662 0.00576
vt -0.3025354 0.01152
vt -0.3025354 0.00576
vt -0.5599999 0.00576
vt -0.8174645 0.01152
vt -0.8174645 0.00576
vt -1.057383 0.01152
vt -1.057383 0.00576
vt -1.263406 0.01152
vt -1.263406 0.00576
vt 0.7034063 0.00576
vt 0.4973833 0.00576
vt 0.7034063 0.01152
vt 0.4973833 0.01152
vt 0.2574646 0.00576
vt 0.2574646 0.01152
vt -6.767919E-15 0.00576
vt -6.767919E-15 0.01152
vt -0.2574646 0.00576
vt -0.2574646 0.01152
vt -0.4973833 0.00576
vt -0.4973833 0.01152
vt -0.7034063 0.00576
vt -0.7034063 0.01152
vt 1.057383 0.00576
vt 1.057383 0.01152
vt 1.263406 0.00576
vt 1.263406 0.01152
vt 0.8174645 0.00576
vt 0.8174645 0.01152
vt 0.5599999 0.00576
vt 0.3025354 0.00576
vt 0.3025354 0.01152
vt 0.06261662 0.00576
vt 0.06261662 0.01152
vt -0.1434063 0.00576
vt -0.1434063 0.01152
vt -2.255973E-15 0.00576
vt -2.255973E-15 0.01152

usemtl Rose

f 3/3/1 2/2/1 1/1/1
f 2/2/1 3/3/1 4/4/1
f 2/2/1 4/4/1 5/5/1
f 5/5/1 4/4/1 6/6/1
f 5/5/1 6/6/1 7/7/1
f 7/7/1 6/6/1 8/8/1
f 8/8/1 6/6/1 9/9/1
f 9/9/1 6/6/1 10/10/1
f 9/9/1 10/10/1 11/11/1
f 11/11/1 10/10/1 12/12/1
f 12/12/1 10/10/1 13/13/1
f 12/12/1 13/13/1 14/14/1
f 14/14/1 13/13/1 15/15/1
f 15/15/1 13/13/1 16/16/1
f 15/15/1 16/16/1 17/17/1
f 17/17/1 16/16/1 18/18/1
f 17/17/1 18/18/1 19/19/1
f 19/19/1 18/18/1 20/20/1
f 20/20/1 18/18/1 21/21/1
f 20/20/1 21/21/1 22/22/1
f 22/22/1 21/21/1 23/23/1
f 23/23/1 21/21/1 24/24/1
f 23/23/1 24/24/1 25/25/1
f 25/25/1 24/24/1 26/26/1
f 27/27/1 26/26/1 24/24/1
f 27/27/1 28/28/1 26/26/1
f 27/27/1 29/29/1 28/28/1
f 30/30/1 29/29/1 27/27/1
f 30/30/1 31/31/1 29/29/1
f 30/30/1 32/32/1 31/31/1
f 33/33/1 32/32/1 30/30/1
f 33/33/1 34/34/1 32/32/1
f 35/35/1 34/34/1 33/33/1
f 35/35/1 36/36/1 34/34/1
f 35/35/1 37/37/1 36/36/1
f 38/38/1 37/37/1 35/35/1
f 38/38/1 39/39/1 37/37/1
f 38/38/1 40/40/1 39/39/1
f 41/41/1 40/40/1 38/38/1
f 41/41/1 42/42/1 40/40/1
f 41/41/1 43/43/1 42/42/1
f 7/7/1 43/43/1 41/41/1
f 43/43/1 7/7/1 8/8/1
f 27/27/1 24/24/1 44/44/1
f 27/27/1 44/44/1 45/45/1
f 45/45/1 44/44/1 46/46/1
f 45/45/1 46/46/1 47/47/1
f 47/47/1 46/46/1 48/48/1
f 50/51/3 45/50/2 49/49/2
f 45/50/2 50/51/3 27/52/3
f 49/49/2 47/54/4 51/53/4
f 47/54/4 49/49/2 45/50/2
f 51/53/4 48/56/5 52/55/5
f 48/56/5 51/53/4 47/54/4
f 52/55/5 46/58/6 53/57/6
f 46/58/6 52/55/5 48/56/5
f 53/57/6 44/60/7 54/59/7
f 44/60/7 53/57/6 46/58/6
f 54/59/7 24/62/8 55/61/8
f 24/62/8 54/59/7 44/60/7
f 24/65/8 56/64/9 55/63/8
f 56/64/9 24/65/8 21/66/9
f 21/66/9 57/67/10 56/64/9
f 57/67/10 21/66/9 18/68/10
f 18/68/10 58/69/11 57/67/10
f 58/69/11 18/68/10 16/70/11
f 16/70/11 59/71/12 58/69/11
f 59/71/12 16/70/11 13/72/12
f 13/72/12 60/73/13 59/71/12
f 60/73/13 13/72/12 10/74/13
f 10/74/13 61/75/14 60/73/13
f 61/75/14 10/74/13 6/76/14
f 4/79/15 61/78/14 6/77/14
f 61/78/14 4/79/15 62/80/15
f 3/81/16 62/80/15 4/79/15
f 62/80/15 3/81/16 63/82/16
f 1/83/17 63/82/16 3/81/16
f 63/82/16 1/83/17 64/84/17
f 2/85/18 64/84/17 1/83/17
f 64/84/17 2/85/18 65/86/18
f 5/87/19 65/86/18 2/85/18
f 65/86/18 5/87/19 66/88/19
f 7/89/20 66/88/19 5/87/19
f 66/88/19 7/89/20 67/90/20
f 7/65/20 68/64/21 67/63/20
f 68/64/21 7/65/20 41/66/21
f 41/66/21 69/67/22 68/64/21
f 69/67/22 41/66/21 38/68/22
f 38/68/22 70/91/23 69/67/22
f 70/91/23 38/68/22 35/92/23
f 35/92/23 71/71/24 70/91/23
f 71/71/24 35/92/23 33/72/24
f 33/72/24 72/73/25 71/71/24
f 72/73/25 33/72/24 30/74/25
f 30/74/25 50/75/3 72/73/25
f 50/75/3 30/74/25 27/76/3
f 23/95/19 73/94/20 22/93/20
f 73/94/20 23/95/19 74/96/19
f 25/97/18 74/96/19 23/95/19
f 74/96/19 25/97/18 75/98/18
f 26/83/17 75/98/18 25/97/18
f 75/98/18 26/83/17 76/99/17
f 28/100/16 76/99/17 26/83/17
f 76/99/17 28/100/16 77/101/16
f 29/102/15 77/101/16 28/100/16
f 77/101/16 29/102/15 78/103/15
f 31/104/14 78/103/15 29/102/15
f 78/103/15 31/104/14 79/105/14
f 31/108/14 80/107/13 79/106/14
f 80/107/13 31/108/14 32/109/13
f 32/109/13 81/110/12 80/107/13
f 81/110/12 32/109/13 34/111/12
f 34/111/12 82/112/11 81/110/12
f 82/112/11 34/111/12 36/113/11
f 36/113/11 83/114/10 82/112/11
f 83/114/10 36/113/11 37/115/10
f 37/115/10 84/116/9 83/114/10
f 84/116/9 37/115/10 39/117/9
f 39/117/9 85/118/8 84/116/9
f 85/118/8 39/117/9 40/119/8
f 85/122/8 42/121/7 86/120/7
f 42/121/7 85/122/8 40/123/8
f 86/120/7 43/125/6 87/124/6
f 43/125/6 86/120/7 42/121/7
f 87/124/6 8/56/5 88/126/5
f 8/56/5 87/124/6 43/125/6
f 88/126/5 9/128/4 89/127/4
f 9/128/4 88/126/5 8/56/5
f 89/127/4 11/130/2 90/129/2
f 11/130/2 89/127/4 9/128/4
f 90/129/2 12/132/3 91/131/3
f 12/132/3 90/129/2 11/130/2
f 12/108/3 92/107/25 91/106/3
f 92/107/25 12/108/3 14/109/25
f 14/109/25 93/110/24 92/107/25
f 93/110/24 14/109/25 15/111/24
f 15/111/24 94/133/23 93/110/24
f 94/133/23 15/111/24 17/134/23
f 17/134/23 95/114/22 94/133/23
f 95/114/22 17/134/23 19/115/22
f 19/115/22 96/116/21 95/114/22
f 96/116/21 19/115/22 20/117/21
f 20/117/21 73/118/20 96/116/21
f 73/118/20 20/117/21 22/119/20

usemtl Sunflower

f 89/9/1 87/43/1 88/8/1
f 87/43/1 89/9/1 90/11/1
f 87/43/1 90/11/1 86/42/1
f 86/42/1 90/11/1 85/40/1
f 85/40/1 90/11/1 91/12/1
f 85/40/1 91/12/1 92/14/1
f 85/40/1 92/14/1 84/39/1
f 84/39/1 92/14/1 83/37/1
f 83/37/1 92/14/1 93/15/1
f 83/37/1 93/15/1 94/17/1
f 83/37/1 94/17/1 82/36/1
f 82/36/1 94/17/1 81/34/1
f 81/34/1 94/17/1 95/19/1
f 81/34/1 95/19/1 96/20/1
f 81/34/1 96/20/1 80/32/1
f 80/32/1 96/20/1 79/31/1
f 79/31/1 96/20/1 73/22/1
f 79/31/1 73/22/1 78/29/1
f 78/29/1 73/22/1 74/23/1
f 78/29/1 74/23/1 75/25/1
f 78/29/1 75/25/1 77/28/1
f 77/28/1 75/25/1 76/26/1

