# Created by Kenney (www.kenney.nl)

mtllib Glu.mtl

g mergedBlocks

v -0.02872434 0.61685 0.03116813
v -0.05317998 0.36475 0.1003266
v 0.09417997 0.36475 0.1003266
v 0.06972434 0.61685 0.03116783
v 0.06972434 0.61685 -0.1210137
v 0.09417997 0.36475 -0.1901724
v -0.05317998 0.36475 -0.1901724
v -0.02872434 0.61685 -0.1210137
v -0.05317998 0.36475 -0.07029735
v 0.09417997 0.36475 -0.07029735
v 0.09417997 0.36475 -0.01954848
v -0.05317998 0.36475 -0.01954848
v -0.1164423 0.36475 -0.01078247
v -0.0709888 0.61685 -0.0184081
v -0.1164423 0.36475 -0.07906306
v -0.0709888 0.61685 -0.07143746
v 0.1574423 0.36475 -0.07906306
v 0.1119888 0.61685 -0.07143746
v 0.06972434 0.61685 -0.02521595
v -0.02872434 0.61685 -0.02521595
v 0.1574423 0.36475 -0.01954848
v 0.1574423 0.36475 -0.01078247
v -0.1164423 0.36475 -0.01954848
v -0.1164423 0.36475 -0.07029735
v -0.0709888 0.61685 -0.06462964
v 0.1119888 0.61685 -0.0184081
v 0.1119888 0.61685 -0.02521595
v 0.1119888 0.61685 -0.06462964
v 0.1574423 0.36475 -0.07029735
v -0.02872434 0.61685 -0.06462964
v 0.06972434 0.61685 -0.06462964
v -0.0709888 0.61685 -0.02521595
v 0.05485955 0.5880291 -0.06462964
v 0.07236379 0.5880291 -0.06462964
v -0.0313638 0.5880291 -0.06462964
v -0.01385954 0.5880291 -0.06462964
v 0.05485955 0.5880291 -0.02521595
v -0.01385954 0.5880291 -0.02521595
v 0.07236379 0.5880291 -0.02521595
v -0.0313638 0.5880291 -0.02521595
v 0.07017079 0.5833439 -0.05178289
v 0.05338108 0.5834463 -0.05178289
v 0.05338108 0.5834463 -0.03806296
v 0.07017079 0.5833439 -0.03806296
v -0.01238108 0.5834463 -0.05178289
v -0.01238108 0.5834463 -0.03806296
v -0.02917079 0.5833439 -0.05178289
v -0.02917079 0.5833439 -0.03806296
v -0.1068035 0.3796062 -0.05695434
v -0.1068035 0.3796062 -0.0328912
v 0.1478035 0.3796062 -0.0328912
v 0.1478035 0.3796062 -0.05695434
v 0.05485955 0.5880291 -0.05499533
v 0.07239508 0.587947 -0.05499533
v -0.03139508 0.587947 -0.05499533
v -0.01385954 0.5880291 -0.05499533
v 0.05485955 0.5880291 -0.03485025
v -0.01385954 0.5880291 -0.03485025
v 0.07239508 0.587947 -0.03485025
v -0.03139508 0.587947 -0.03485025
v -0.1134346 0.372644 -0.06046061
v 0.1544346 0.372644 -0.06046061
v 0.1544346 0.372644 -0.02938519
v -0.1134346 0.372644 -0.02938519
v 0.024 -0.26558 -0.1103733
v 0.1125892 -0.26558 -0.0318
v 0.024 -0.1223436 -0.1575172
v 0.1657427 -0.1223436 -0.0318
v -0.06458922 -0.26558 -0.0318
v -0.1177427 -0.1223436 -0.0318
v 0.024 0.02089272 -0.1103733
v -0.06458922 0.02089272 -0.0318
v 0.1125892 0.02089272 -0.0318
v 0.024 -0.26558 0.04677327
v 0.024 -0.1223436 0.09391724
v 0.024 0.02089272 0.04677327
v 0.1125892 0.36466 -0.0318
v 0.024 0.36466 -0.1103733
v 0.024 0.36466 0.04677327
v -0.06458922 0.36466 -0.0318
v 0.024 0.1927764 -0.09465862
v 0.09487137 0.1927764 -0.0318
v 0.024 0.1927764 0.03105862
v -0.04687137 0.1927764 -0.0318

vn 0 0.2645858 0.9643621
vn 0 0.2645856 -0.9643622
vn 0 -1 1.192093E-07
vn -0.8197219 0.1956243 0.5383188
vn -0.8197219 0.1956242 -0.5383189
vn 0.8197219 0.1956242 -0.5383189
vn 0 1 -1.192093E-07
vn -0.9841371 0.1774099 -2.11489E-08
vn 0.8197219 0.1956243 0.5383188
vn 0.9841371 0.1774099 -2.11489E-08
vn 0 1.192093E-07 1
vn 0 -1.192093E-07 -1
vn 0.01449736 -0.0198112 -0.9996986
vn -0.01449736 -0.0198112 -0.9996986
vn 0.01449736 -0.01981096 0.9996986
vn -0.01449736 -0.01981096 0.9996986
vn 0.006063519 0.9999816 -1.192071E-07
vn -0.006063519 0.9999816 -1.192071E-07
vn -0.9344603 0.3560673 -4.244653E-08
vn 0.9344603 0.3560673 -4.244653E-08
vn 0.002388675 0.9999881 0.004253583
vn -0.002296803 0.9999883 0.004253584
vn 0.002296803 0.9999883 -0.004253822
vn -0.002296803 0.9999883 -0.004253822
vn 0.003044005 0.5723118 0.8200305
vn -0.003044005 0.5723118 0.8200305
vn 0 0.5739512 0.8188894
vn 0 0.5739511 -0.8188896
vn 0.003044005 0.5723117 -0.8200306
vn -0.003044005 0.5723117 -0.8200306
vn -0.6261464 0.2195965 0.7481431
vn 0.6261464 0.2195965 0.7481431
vn 0.6261464 0.2195964 -0.7481432
vn -0.6261464 0.2195964 -0.7481432
vn -0.7241442 0.6896487 -8.221251E-08
vn 0.7241442 0.6896487 -8.221251E-08
vn 0.6443034 -0.2390943 -0.7264345
vn -0.6443034 -0.2390943 -0.7264345
vn -0.6443034 0.2390943 -0.7264345
vn 0.6443034 0.2390943 -0.7264345
vn 0.6443034 -0.2390943 0.7264345
vn 0.6443034 0.2390943 0.7264345
vn -0.6443034 -0.2390943 0.7264345
vn -0.6443034 0.2390943 0.7264345
vn 0 -1 0
vn 0 1 0
vn 0.662002 0.06823946 -0.7463891
vn 0.662002 0.06823946 0.7463891
vn -0.662002 0.06823946 0.7463891
vn -0.662002 0.06823946 -0.7463891
vn -0.662002 -0.06823946 0.7463891
vn -0.662002 -0.06823946 -0.7463891
vn 0.662002 -0.06823946 -0.7463891
vn 0.662002 -0.06823946 0.7463891

vt 0 0
vt 2.051018 -6.633648
vt -3.973849 -6.633648
vt 3.281629 -0.9983548
vt -6.358159 -0.9983548
vt -2.051018 -6.633648
vt -3.281629 -0.9983548
vt 3.973849 -6.633648
vt 6.358159 -0.9983548
vt -3.281629 -3.775289
vt -2.051018 1.860004
vt 6.358159 -3.775289
vt 3.973849 1.860004
vt 3.281629 -3.775289
vt -6.358159 -3.775289
vt 2.051018 1.860004
vt -3.973849 1.860004
vt 7.828876 -5.953853E-13
vt -2.842171E-14 -5.624429
vt -2.842171E-14 5.624429
vt -7.828876 -5.953853E-13
vt 4.893047 2.436259E-12
vt -8.289819E-14 -3.515268
vt -8.289819E-14 3.515268
vt -4.893047 2.446917E-12
vt 4.893047 -1.039314E-11
vt 0 -3.515268
vt 0 3.515268
vt -4.893047 -1.039314E-11
vt 2.051018 2.600061
vt -3.973849 2.600061
vt 1.640814 9.067691
vt -3.179079 9.067691
vt 3.973849 2.600061
vt -2.051018 2.600061
vt 3.179079 9.067691
vt -1.640814 9.067691
vt -3.179079 9.470951
vt -3.973849 15.93858
vt 1.640814 9.470951
vt 2.051018 15.93858
vt -1.640814 9.470951
vt -2.051018 15.93858
vt 3.179079 9.470951
vt 3.973849 15.93858

usemtl _defaultMat.001

f 10/1/3 11/1/3 12/1/3
f 12/1/3 9/1/3 10/1/3
f 2/1/3 12/1/3 11/1/3
f 11/1/3 3/1/3 2/1/3
f 6/1/3 10/1/3 9/1/3
f 9/1/3 7/1/3 6/1/3
f 7/1/2 8/1/2 5/1/2
f 5/1/2 6/1/2 7/1/2
f 3/1/1 4/1/1 1/1/1
f 1/1/1 2/1/1 3/1/1
f 32/1/12 20/1/12 38/1/12
f 38/1/12 40/1/12 32/1/12
f 19/1/12 27/1/12 39/1/12
f 39/1/12 37/1/12 19/1/12
f 35/1/16 25/1/16 24/1/16
f 34/1/15 29/1/15 28/1/15
f 40/1/14 23/1/14 32/1/14
f 39/1/13 27/1/13 21/1/13
f 20/1/12 19/1/12 37/1/12
f 37/1/12 38/1/12 20/1/12
f 31/1/11 30/1/11 36/1/11
f 36/1/11 33/1/11 31/1/11
f 30/1/11 25/1/11 35/1/11
f 35/1/11 36/1/11 30/1/11
f 28/1/11 31/1/11 33/1/11
f 33/1/11 34/1/11 28/1/11
f 32/1/8 23/1/8 13/1/8
f 13/1/8 14/1/8 32/1/8
f 7/1/3 9/1/3 24/1/3
f 24/1/3 15/1/3 7/1/3
f 26/1/7 27/1/7 19/1/7
f 19/1/7 4/1/7 26/1/7
f 5/1/7 31/1/7 28/1/7
f 28/1/7 18/1/7 5/1/7
f 1/1/7 20/1/7 32/1/7
f 32/1/7 14/1/7 1/1/7
f 16/1/7 25/1/7 30/1/7
f 30/1/7 8/1/7 16/1/7
f 17/1/3 29/1/3 10/1/3
f 10/1/3 6/1/3 17/1/3
f 30/1/7 31/1/7 5/1/7
f 5/1/7 8/1/7 30/1/7
f 28/1/10 29/1/10 17/1/10
f 17/1/10 18/1/10 28/1/10
f 21/1/10 27/1/10 26/1/10
f 26/1/10 22/1/10 21/1/10
f 4/1/9 3/1/9 22/1/9
f 22/1/9 26/1/9 4/1/9
f 24/1/8 25/1/8 16/1/8
f 16/1/8 15/1/8 24/1/8
f 13/1/3 23/1/3 12/1/3
f 12/1/3 2/1/3 13/1/3
f 3/1/3 11/1/3 21/1/3
f 21/1/3 22/1/3 3/1/3
f 19/1/7 20/1/7 1/1/7
f 1/1/7 4/1/7 19/1/7
f 5/1/6 18/1/6 17/1/6
f 17/1/6 6/1/6 5/1/6
f 8/1/5 7/1/5 15/1/5
f 15/1/5 16/1/5 8/1/5
f 1/1/4 14/1/4 13/1/4
f 13/1/4 2/1/4 1/1/4
f 41/1/20 44/1/20 51/1/20
f 51/1/20 52/1/20 41/1/20
f 49/1/19 50/1/19 48/1/19
f 48/1/19 47/1/19 49/1/19
f 47/1/18 48/1/18 46/1/18
f 46/1/18 45/1/18 47/1/18
f 45/1/7 46/1/7 43/1/7
f 43/1/7 42/1/7 45/1/7
f 43/1/17 44/1/17 41/1/17
f 41/1/17 42/1/17 43/1/17
f 63/1/36 62/1/36 52/1/36
f 52/1/36 51/1/36 63/1/36
f 61/1/35 64/1/35 50/1/35
f 50/1/35 49/1/35 61/1/35
f 64/1/34 60/1/34 48/1/34
f 48/1/34 50/1/34 64/1/34
f 59/1/33 63/1/33 51/1/33
f 51/1/33 44/1/33 59/1/33
f 62/1/32 54/1/32 41/1/32
f 41/1/32 52/1/32 62/1/32
f 55/1/31 61/1/31 49/1/31
f 49/1/31 47/1/31 55/1/31
f 60/1/30 58/1/30 46/1/30
f 46/1/30 48/1/30 60/1/30
f 57/1/29 59/1/29 44/1/29
f 44/1/29 43/1/29 57/1/29
f 58/1/28 57/1/28 43/1/28
f 43/1/28 46/1/28 58/1/28
f 53/1/27 56/1/27 45/1/27
f 45/1/27 42/1/27 53/1/27
f 56/1/26 55/1/26 47/1/26
f 47/1/26 45/1/26 56/1/26
f 54/1/25 53/1/25 42/1/25
f 42/1/25 41/1/25 54/1/25
f 21/1/20 29/1/20 62/1/20
f 62/1/20 63/1/20 21/1/20
f 24/1/19 23/1/19 64/1/19
f 64/1/19 61/1/19 24/1/19
f 23/1/19 40/1/19 60/1/19
f 60/1/19 64/1/19 23/1/19
f 39/1/20 21/1/20 63/1/20
f 63/1/20 59/1/20 39/1/20
f 29/1/20 34/1/20 54/1/20
f 54/1/20 62/1/20 29/1/20
f 35/1/19 24/1/19 61/1/19
f 61/1/19 55/1/19 35/1/19
f 40/1/24 38/1/24 58/1/24
f 58/1/24 60/1/24 40/1/24
f 37/1/23 39/1/23 59/1/23
f 59/1/23 57/1/23 37/1/23
f 38/1/7 37/1/7 57/1/7
f 57/1/7 58/1/7 38/1/7
f 33/1/7 36/1/7 56/1/7
f 56/1/7 53/1/7 33/1/7
f 36/1/22 35/1/22 55/1/22
f 55/1/22 56/1/22 36/1/22
f 34/1/21 33/1/21 53/1/21
f 53/1/21 54/1/21 34/1/21
f 29/1/3 21/1/3 11/1/3
f 11/1/3 10/1/3 29/1/3
f 9/1/3 12/1/3 23/1/3
f 23/1/3 24/1/3 9/1/3
f 67/4/37 66/3/37 65/2/37
f 66/3/37 67/4/37 68/5/37
f 69/8/38 67/7/38 65/6/38
f 67/7/38 69/8/38 70/9/38
f 70/12/39 71/11/39 67/10/39
f 71/11/39 70/12/39 72/13/39
f 71/16/40 68/15/40 67/14/40
f 68/15/40 71/16/40 73/17/40
f 68/9/41 74/6/41 66/8/41
f 74/6/41 68/9/41 75/7/41
f 73/13/42 75/10/42 68/12/42
f 75/10/42 73/13/42 76/11/42
f 74/2/43 70/5/43 69/3/43
f 70/5/43 74/2/43 75/4/43
f 75/14/44 72/17/44 70/15/44
f 72/17/44 75/14/44 76/16/44
f 75/20/45 67/19/45 68/18/45
f 67/19/45 75/20/45 70/21/45
f 74/24/45 65/23/45 66/22/45
f 65/23/45 74/24/45 69/25/45
f 79/28/45 78/27/45 77/26/45
f 78/27/45 79/28/45 80/29/45
f 77/26/46 78/27/46 79/28/46
f 80/29/46 79/28/46 78/27/46
f 81/32/47 73/31/47 71/30/47
f 73/31/47 81/32/47 82/33/47
f 82/36/48 76/35/48 73/34/48
f 76/35/48 82/36/48 83/37/48
f 76/30/49 84/33/49 72/31/49
f 84/33/49 76/30/49 83/32/49
f 72/34/50 81/37/50 71/35/50
f 81/37/50 72/34/50 84/36/50
f 83/40/51 80/39/51 84/38/51
f 80/39/51 83/40/51 79/41/51
f 84/38/47 80/39/47 83/40/47
f 79/41/47 83/40/47 80/39/47
f 84/44/52 78/43/52 81/42/52
f 78/43/52 84/44/52 80/45/52
f 81/42/48 78/43/48 84/44/48
f 80/45/48 84/44/48 78/43/48
f 78/41/53 82/38/53 81/40/53
f 82/38/53 78/41/53 77/39/53
f 81/40/49 82/38/49 78/41/49
f 77/39/49 78/41/49 82/38/49
f 77/45/54 83/42/54 82/44/54
f 83/42/54 77/45/54 79/43/54
f 82/44/50 83/42/50 77/45/50
f 79/43/50 77/45/50 83/42/50

