# Created by Kenney (www.kenney.nl)

mtllib Ramen.mtl

g mergedBlocks

v -0.34 -0.14 -0.32
v -0.34 -0.04999998 -0.32
v -0.34 -0.14 0.4
v -0.34 -0.04999998 0.4
v 0.172 -0.2 0.4
v 0.172 -0.2 -0.32
v -0.212 -0.2 0.4
v -0.212 -0.2 -0.32
v 0.3 -0.04999998 -0.32
v 0.3 -0.14 -0.32
v 0.3 -0.04999998 0.4
v 0.3 -0.14 0.4
v -0.34 0.07000002 -0.32
v 0.3 0.07000002 -0.32
v -0.276 0.1 -0.32
v 0.236 0.1 -0.32
v 0.3 0.07000002 0.4
v -0.34 0.07000002 0.4
v 0.236 0.1 0.4
v -0.276 0.1 0.4

vn -1 0 0
vn 0 -1 0
vn 1 0 0
vn 0 0 -1
vn 0.4244338 -0.9054589 0
vn -0.4244338 -0.9054589 0
vn 0 0 1
vn 0.4244338 0.9054589 0
vn 0 1 0
vn -0.4244338 0.9054589 0

vt -0.32 0.06
vt -0.32 0.15
vt 0.4 0.06
vt 0.4 0.15
vt -0.172 -0.4
vt -0.172 0.32
vt 0.212 -0.4
vt 0.212 0.32
vt 0.32 0.15
vt 0.32 0.06
vt -0.4 0.15
vt -0.4 0.06
vt 0.212 1.619466E-17
vt -0.172 1.082867E-16
vt 0.34 0.06
vt -0.3 0.06
vt 0.34 0.15
vt -0.3 0.15
vt -0.3 -0.4
vt -0.3 0.32
vt 0.34 -0.4
vt 0.34 0.32
vt -0.212 1.619466E-17
vt -0.34 0.06
vt 0.172 1.082867E-16
vt 0.3 0.06
vt 0.3 0.15
vt -0.34 0.15
vt 0.34 0.27
vt -0.3 0.27
vt 0.2760001 0.3
vt -0.236 0.3
vt 0.3 0.27
vt -0.34 0.27
vt 0.236 0.3
vt -0.2760001 0.3
vt -0.236 -0.32
vt -0.3 -0.32
vt -0.236 0.4
vt -0.3 0.4
vt 0.2760001 -0.32
vt 0.2760001 0.4
vt 0.34 -0.32
vt 0.34 0.4
vt 0.32 0.27
vt -0.4 0.27
vt -0.32 0.27
vt 0.4 0.27

usemtl _defaultMat

f 3/3/1 2/2/1 1/1/1
f 2/2/1 3/3/1 4/4/1
f 7/7/2 6/6/2 5/5/2
f 6/6/2 7/7/2 8/8/2
f 11/11/3 10/10/3 9/9/3
f 10/10/3 11/11/3 12/12/3
f 1/15/4 6/14/4 8/13/4
f 6/14/4 1/15/4 10/16/4
f 10/16/4 1/15/4 2/17/4
f 10/16/4 2/17/4 9/18/4
f 5/5/5 10/20/5 12/19/5
f 10/20/5 5/5/5 6/6/5
f 3/21/6 8/8/6 7/7/6
f 8/8/6 3/21/6 1/22/6
f 5/25/7 3/24/7 7/23/7
f 3/24/7 5/25/7 12/26/7
f 3/24/7 12/26/7 11/27/7
f 3/24/7 11/27/7 4/28/7
f 13/29/4 9/18/4 2/17/4
f 9/18/4 13/29/4 14/30/4
f 14/30/4 13/29/4 15/31/4
f 14/30/4 15/31/4 16/32/4
f 17/33/7 4/28/7 11/27/7
f 4/28/7 17/33/7 18/34/7
f 18/34/7 17/33/7 19/35/7
f 18/34/7 19/35/7 20/36/7
f 19/39/8 14/38/8 16/37/8
f 14/38/8 19/39/8 17/40/8
f 15/41/9 19/39/9 16/37/9
f 19/39/9 15/41/9 20/42/9
f 18/44/10 15/41/10 13/43/10
f 15/41/10 18/44/10 20/42/10
f 17/46/3 9/9/3 14/45/3
f 9/9/3 17/46/3 11/11/3
f 4/4/1 13/47/1 2/2/1
f 13/47/1 4/4/1 18/48/1

