# Created by Kenney (www.kenney.nl)

mtllib Toilet-Mat.mtl

g mergedBlocks

v -8.5 0 15.5
v -8.5 0 15.08579
v -9.085787 0 14.5
v -9.5 0 14.5
v -9.5 0 15.5
v -7.199999 2.04493 2.5
v -7.199999 2.05946 2.5
v -7.7 2.0304 2.5
v -7.7 2.05946 2.5
v -7.82941 2.05946 3.650067
v -7.82941 2.0304 3.650067
v -7.95 2.05946 3.591625
v -7.95 2.0304 3.591625
v -8.053554 2.05946 3.498658
v -8.053554 2.0304 3.498658
v -8.133013 2.0304 3.3775
v -8.133013 2.05946 3.3775
v -8.182963 2.0304 3.236409
v -8.182963 2.05946 3.236409
v -8.200001 2.0304 3.085
v -8.200001 2.05946 3.085
v -7.199999 2.04493 3.085
v -7.199999 2.05946 3.085
v -7.7 2.0304 3.085
v -7.199999 2.0304 3.085
v -7.217036 2.0304 3.236409
v -7.217036 2.05946 3.236409
v -7.266987 2.0304 3.3775
v -7.266987 2.05946 3.3775
v -7.346446 2.0304 3.498658
v -7.346446 2.05946 3.498658
v -7.45 2.05946 3.591625
v -7.45 2.0304 3.591625
v -7.57059 2.05946 3.650067
v -7.57059 2.0304 3.650067
v -7.7 2.05946 3.670001
v -7.7 2.0304 3.670001
v -7.8 2.05946 3.085
v -7.7 2.05946 2.968
v -8.200001 2.0304 2.5
v -8.200001 2.05946 2.5

vn 0 1 0
vn 1.192093E-07 0 -1
vn -0.2991447 0 0.9542077
vn -0.5597574 0 0.8286566
vn -0.7601731 0 0.6497206
vn -0.8967602 0 0.4425168
vn -0.9747642 0 0.2232369
vn -0.9937288 0 0.1118177
vn 1 0 1.192093E-07
vn 0.02904771 -0.9995781 3.462756E-09
vn 0.9937287 0 0.111818
vn 0.9747642 0 0.2232371
vn 0.8967601 0 0.442517
vn 0.760173 0 0.6497207
vn 0.5597572 0 0.8286567
vn 0.2991445 0 0.9542078
vn -0.1522381 0 0.9883438
vn 0.1522378 0 0.9883439
vn 0 -1 0
vn -1 0 -1.192093E-07

vt 1 0
vt 1 0.4142136
vt 0.4142136 1
vt 0 1
vt 0 0
vt 7.199995 2.044926
vt 7.199995 2.059459
vt 7.7 2.030392
vt 7.7 2.059459
vt -7.829411 2.059459
vt -7.829411 2.030392
vt -7.950002 2.059459
vt -7.950002 2.030392
vt -8.053556 2.059459
vt -8.053556 2.030392
vt 3.498662 2.030392
vt 3.377503 2.030392
vt 3.498662 2.059459
vt 3.377503 2.059459
vt 3.236411 2.030392
vt 3.236411 2.059459
vt 3.085001 2.030392
vt 3.085001 2.059459
vt -2.499995 2.044926
vt -3.085001 2.044926
vt -2.499995 2.059459
vt -3.085001 2.059459
vt 7.7 -3.085001
vt 7.199995 -3.085001
vt 7.7 -2.499995
vt 7.199995 -2.499995
vt -3.085001 2.030392
vt -3.236411 2.030392
vt -3.236411 2.059459
vt -3.377503 2.030392
vt -3.377503 2.059459
vt -3.498662 2.030392
vt -3.498662 2.059459
vt -7.346443 2.059459
vt -7.346443 2.030392
vt -7.449997 2.059459
vt -7.449997 2.030392
vt -7.570589 2.059459
vt -7.570589 2.030392
vt -7.7 2.059459
vt -7.7 2.030392
vt 7.199995 2.030392
vt 7.199995 3.085001
vt 7.800001 3.085001
vt 7.199995 2.499995
vt 7.7 2.967999
vt 7.7 2.499995
vt 7.7 3.670006
vt 7.829411 3.650073
vt 7.570589 3.650073
vt 7.449997 3.59163
vt 7.950002 3.59163
vt 7.346443 3.498662
vt 8.053556 3.498662
vt 7.266983 3.377503
vt 8.133017 3.377503
vt 7.217032 3.236411
vt 8.182967 3.236411
vt 8.200005 3.085001
vt -7.800001 2.059459
vt -7.199995 2.059459
vt -8.200005 2.059459
vt 7.7 -3.670006
vt 7.570589 -3.650073
vt 7.829411 -3.650073
vt 7.950002 -3.59163
vt 7.449997 -3.59163
vt 8.053556 -3.498662
vt 7.346443 -3.498662
vt 8.133017 -3.377503
vt 7.266983 -3.377503
vt 8.182967 -3.236411
vt 7.217032 -3.236411
vt 8.200005 -3.085001
vt -8.200005 2.030392
vt -7.199995 2.030392
vt 8.200005 -2.499995
vt 2.499995 2.030392
vt 2.499995 2.059459
vt 8.200005 2.030392
vt 8.200005 2.059459
vt 8.200005 2.499995

usemtl Dark_Grey

f 3/3/1 5/5/1 1/1/1
f 3/3/1 4/4/1 5/5/1
f 1/1/1 2/2/1 3/3/1

usemtl custom28

f 8/8/2 7/7/2 6/6/2
f 7/7/2 8/8/2 9/9/2
f 12/12/4 11/11/3 10/10/3
f 11/11/3 12/12/4 13/13/4
f 14/14/5 13/13/4 12/12/4
f 13/13/4 14/14/5 15/15/5
f 14/18/5 16/17/6 15/16/5
f 16/17/6 14/18/5 17/19/6
f 17/19/6 18/20/7 16/17/6
f 18/20/7 17/19/6 19/21/7
f 19/21/7 20/22/8 18/20/7
f 20/22/8 19/21/7 21/23/8
f 7/26/9 22/25/9 6/24/9
f 22/25/9 7/26/9 23/27/9
f 8/30/10 22/29/10 24/28/10
f 22/29/10 8/30/10 6/31/10
f 22/25/11 26/33/12 25/32/11
f 26/33/12 22/25/11 27/34/12
f 27/34/12 22/25/11 23/27/11
f 27/34/12 28/35/13 26/33/12
f 28/35/13 27/34/12 29/36/13
f 29/36/13 30/37/14 28/35/13
f 30/37/14 29/36/13 31/38/14
f 32/41/15 30/40/14 31/39/14
f 30/40/14 32/41/15 33/42/15
f 34/43/16 33/42/15 32/41/15
f 33/42/15 34/43/16 35/44/16
f 10/10/3 37/46/17 36/45/17
f 37/46/17 10/10/3 11/11/3
f 36/45/18 35/44/16 34/43/16
f 35/44/16 36/45/18 37/46/18
f 24/8/2 22/6/2 25/47/2
f 7/50/1 38/49/1 23/48/1
f 38/49/1 7/50/1 39/51/1
f 39/51/1 7/50/1 9/52/1
f 34/55/1 10/54/1 36/53/1
f 10/54/1 34/55/1 32/56/1
f 10/54/1 32/56/1 12/57/1
f 12/57/1 32/56/1 31/58/1
f 12/57/1 31/58/1 14/59/1
f 14/59/1 31/58/1 29/60/1
f 14/59/1 29/60/1 17/61/1
f 17/61/1 29/60/1 27/62/1
f 17/61/1 27/62/1 19/63/1
f 19/63/1 27/62/1 23/48/1
f 19/63/1 23/48/1 21/64/1
f 21/67/1 23/66/1 38/65/1
f 11/70/19 35/69/19 37/68/19
f 35/69/19 11/70/19 13/71/19
f 35/69/19 13/71/19 33/72/19
f 33/72/19 13/71/19 15/73/19
f 33/72/19 15/73/19 30/74/19
f 30/74/19 15/73/19 16/75/19
f 30/74/19 16/75/19 28/76/19
f 28/76/19 16/75/19 18/77/19
f 28/76/19 18/77/19 26/78/19
f 26/78/19 18/77/19 20/79/19
f 26/78/19 20/79/19 25/29/19
f 25/81/19 20/80/19 24/46/19
f 40/82/19 24/28/19 20/79/19
f 24/28/19 40/82/19 8/30/19
f 21/23/20 40/83/20 20/22/20
f 40/83/20 21/23/20 41/84/20
f 40/85/2 9/9/2 8/8/2
f 9/9/2 40/85/2 41/86/2
f 39/51/1 21/64/1 38/49/1
f 21/64/1 39/51/1 41/87/1
f 41/87/1 39/51/1 9/52/1

