# Created by Kenney (www.kenney.nl)

mtllib Hammer1.mtl

g mergedBlocks

v -2.88 0.7 -1
v -2.915147 0.7 -0.9151472
v -2.915147 0.7 -1.084853
v -3 0.7 -1.12
v -3 0.7 -0.88
v -3.084853 0.7 -1.084853
v -3.084853 0.7 -0.9151472
v -3.12 0.7 -1
v -2.915147 -0.8 -1.084853
v -2.88 -0.8 -1
v -3.084853 -0.8 -1.084853
v -3 -0.8 -1.12
v -2.915147 -0.8 -0.9151472
v -3.12 -0.8 -1
v -3.084853 -0.8 -0.9151472
v -3 -0.8 -0.88
v -2.85 1 -1.5
v -2.8 0.9499999 -1.5
v -2.85 1 -1.3
v -2.8 0.9499999 -1.3
v -3.2 0.9499999 -0.7
v -3.15 1 -0.7
v -3.2 0.9499999 -0.5
v -3.15 1 -0.5
v -3.2 0.7079518 -1.5
v -2.8 0.7079518 -1.5
v -3.2 0.9499999 -1.5
v -3.15 1 -1.5
v -3.15 1 -1.3
v -2.8 0.7079518 -0.5
v -3.2 0.7079518 -0.5
v -2.8 0.9499999 -0.5
v -2.85 1 -0.5
v -2.85 1 -0.7
v -2.8 0.9499999 -0.7
v -2.8 0.85 -0.7
v -2.8 0.85 -1.3
v -3.2 0.9499999 -1.3
v -3.2 0.85 -1.3
v -3.2 0.85 -0.7
v -3.2 0.9 -0.7
v -2.9 0.85 -1.3
v -2.85 0.9 -1.3
v -2.85 0.9499999 -1.3
v -3.15 0.9499999 -1.3
v -3.15 0.9 -1.3
v -3.1 0.9 -1.3
v -3.1 0.85 -1.3
v -2.9 0.9 -1.3
v -3.1 0.85 -0.7
v -3.15 0.9 -0.7
v -3.15 0.9499999 -0.7
v -2.85 0.9499999 -0.7
v -2.85 0.9 -0.7
v -2.9 0.9 -0.7
v -2.9 0.85 -0.7
v -3.1 0.9 -0.7
v -3.2 0.5 -1.5
v -2.8 0.5 -1.5
v -2.8 0.5 -1.3
v -3.2 0.5 -1.3
v -2.8 0.6039759 -1.196024
v -2.8 0.6039759 -0.8039759
v -2.8 0.5 -0.5
v -2.8 0.5 -0.7
v -3.2 0.5 -0.5
v -3.2 0.6039759 -1.196024
v -3.2 0.6039759 -0.8039759
v -3.2 0.5 -0.7

vn 0 1 0
vn 0.9238795 0 -0.3826834
vn -0.3826834 0 -0.9238795
vn 0.9238795 0 0.3826834
vn -0.9238795 0 -0.3826834
vn -0.9238795 0 0.3826834
vn 0.3826834 0 0.9238795
vn 0.3826834 0 -0.9238795
vn 0 -1 0
vn -0.3826834 0 0.9238795
vn 0.7071068 0.7071068 0
vn -0.7071068 0.7071068 0
vn 0 0 -1
vn 0 0 1
vn 1 0 0
vn -1 0 0
vn 0 -0.7071068 -0.7071068
vn 0 -0.7071068 0.7071068

vt 2.85 -1.03
vt 2.885147 -0.9451472
vt 2.885147 -1.114853
vt 2.97 -1.15
vt 2.97 -0.91
vt 3.054853 -1.114853
vt 3.054853 -0.9451472
vt 3.09 -1.03
vt 1.114853 0.7
vt 1.114853 -0.8
vt 1.03 0.7
vt 1.03 -0.8
vt 3.054853 -0.8
vt 2.97 -0.8
vt 3.054853 0.7
vt 2.97 0.7
vt 0.9451472 0.7
vt 0.9451472 -0.8
vt -1.114853 -0.8
vt -1.114853 0.7
vt -1.03 -0.8
vt -1.03 0.7
vt -0.9451472 -0.8
vt -0.9451472 0.7
vt -2.885147 -0.8
vt -2.97 -0.8
vt -2.885147 0.7
vt -2.97 0.7
vt 2.885147 -0.8
vt 2.885147 0.7
vt 2.85 1.03
vt 2.885147 1.114853
vt 2.885147 0.9451472
vt 2.97 0.91
vt 2.97 1.15
vt 3.054853 1.114853
vt 3.054853 0.9451472
vt 3.09 1.03
vt -3.054853 -0.8
vt -3.054853 0.7
vt 1.5 1
vt 1.5 0.9499999
vt 1.3 1
vt 1.3 0.9499999
vt -0.7 0.9499999
vt -0.7 1
vt -0.5 0.9499999
vt -0.5 1
vt 3.2 0.7079518
vt 2.8 0.7079518
vt 3.2 0.9499999
vt 2.8 0.9499999
vt 3.15 1
vt 2.85 1
vt 2.85 -1.5
vt 2.85 -1.3
vt 3.15 -1.5
vt 3.15 -1.3
vt -2.8 0.7079518
vt -3.2 0.7079518
vt -2.8 0.9499999
vt -3.2 0.9499999
vt -2.85 1
vt -3.15 1
vt 2.85 -0.7
vt 2.85 -0.5
vt 3.15 -0.7
vt 3.15 -0.5
vt 0.7 1
vt 0.7 0.9499999
vt 0.5 1
vt 0.5 0.9499999
vt 0.7 0.85
vt 0.5 0.7079518
vt 1.3 0.85
vt 1.5 0.7079518
vt -1.5 0.9499999
vt -1.5 1
vt -1.3 0.9499999
vt -1.3 1
vt -1.3 0.85
vt -1.5 0.7079518
vt -0.5 0.7079518
vt -0.7 0.85
vt -0.7 0.9
vt -2.8 0.85
vt -2.9 0.85
vt -2.85 0.9
vt -2.85 0.9499999
vt -3.15 0.9499999
vt -3.15 0.9
vt -3.2 0.85
vt -3.1 0.9
vt -3.1 0.85
vt -2.9 0.9
vt 3.1 -1.3
vt 3.1 -0.7
vt 3.2 -1.3
vt 3.2 -0.7
vt 3.2 0.9
vt 3.15 0.9
vt 3.15 0.9499999
vt 2.85 0.9499999
vt 2.85 0.9
vt 2.8 0.85
vt 2.9 0.9
vt 2.9 0.85
vt -3.2 0.9
vt 3.1 0.9
vt 3.1 0.85
vt 3.2 0.85
vt 2.8 -1.3
vt 2.8 -0.7
vt 2.9 -1.3
vt 2.9 -0.7
vt 3.2 0.5
vt 2.8 0.5
vt 2.8 1.3
vt 2.8 1.5
vt 3.2 1.3
vt 3.2 1.5
vt 1.5 0.5
vt 1.196024 0.6039759
vt 1.3 0.5
vt 0.8039759 0.6039759
vt 0.5 0.5
vt 0.7 0.5
vt -2.8 0.5
vt -3.2 0.5
vt -1.5 0.5
vt -1.3 0.5
vt -1.196024 0.6039759
vt -0.8039759 0.6039759
vt -0.7 0.5
vt -0.5 0.5
vt 2.8 0.7
vt 2.8 0.8039759
vt 3.2 0.7
vt 3.2 0.8039759
vt 2.8 1.196024
vt 3.2 1.196024
vt -2.8 0.6039759
vt -3.2 0.6039759
vt 1.3 0.9
vt 0.7 0.9
vt 2.85 0.7
vt 2.85 1.3
vt 2.9 0.7
vt 2.9 1.3
vt -1.3 0.9
vt 3.1 0.7
vt 3.1 1.3
vt 3.15 0.7
vt 3.15 1.3

usemtl wood

f 3/3/1 2/2/1 1/1/1
f 2/2/1 3/3/1 4/4/1
f 2/2/1 4/4/1 5/5/1
f 5/5/1 4/4/1 6/6/1
f 5/5/1 6/6/1 7/7/1
f 7/7/1 6/6/1 8/8/1
f 1/11/2 9/10/2 3/9/2
f 9/10/2 1/11/2 10/12/2
f 6/15/3 12/14/3 11/13/3
f 12/14/3 6/15/3 4/16/3
f 2/17/4 10/12/4 1/11/4
f 10/12/4 2/17/4 13/18/4
f 14/21/5 6/20/5 11/19/5
f 6/20/5 14/21/5 8/22/5
f 15/23/6 8/22/6 14/21/6
f 8/22/6 15/23/6 7/24/6
f 2/27/7 16/26/7 13/25/7
f 16/26/7 2/27/7 5/28/7
f 4/16/8 9/29/8 12/14/8
f 9/29/8 4/16/8 3/30/8
f 13/33/9 9/32/9 10/31/9
f 9/32/9 13/33/9 16/34/9
f 9/32/9 16/34/9 12/35/9
f 12/35/9 16/34/9 11/36/9
f 11/36/9 16/34/9 15/37/9
f 11/36/9 15/37/9 14/38/9
f 5/28/10 15/39/10 16/26/10
f 15/39/10 5/28/10 7/40/10

usemtl dark

f 19/43/11 18/42/11 17/41/11
f 18/42/11 19/43/11 20/44/11
f 23/47/12 22/46/12 21/45/12
f 22/46/12 23/47/12 24/48/12
f 27/51/13 26/50/13 25/49/13
f 26/50/13 27/51/13 18/52/13
f 18/52/13 27/51/13 28/53/13
f 18/52/13 28/53/13 17/54/13
f 28/57/1 19/56/1 17/55/1
f 19/56/1 28/57/1 29/58/1
f 32/61/14 31/60/14 30/59/14
f 31/60/14 32/61/14 23/62/14
f 23/62/14 32/61/14 33/63/14
f 23/62/14 33/63/14 24/64/14
f 22/67/1 33/66/1 34/65/1
f 33/66/1 22/67/1 24/68/1
f 33/71/11 35/70/11 34/69/11
f 35/70/11 33/71/11 32/72/11
f 32/72/15 36/73/15 35/70/15
f 30/74/15 36/73/15 32/72/15
f 30/74/15 37/75/15 36/73/15
f 26/76/15 37/75/15 30/74/15
f 26/76/15 20/44/15 37/75/15
f 20/44/15 26/76/15 18/42/15
f 38/79/12 28/78/12 27/77/12
f 28/78/12 38/79/12 29/80/12
f 25/82/16 39/81/16 27/77/16
f 39/81/16 25/82/16 31/83/16
f 39/81/16 31/83/16 40/84/16
f 40/84/16 31/83/16 41/85/16
f 41/85/16 31/83/16 21/45/16
f 21/45/16 31/83/16 23/47/16
f 38/79/16 27/77/16 39/81/16
f 20/61/14 42/87/14 37/86/14
f 42/87/14 20/61/14 43/88/14
f 43/88/14 20/61/14 44/89/14
f 44/89/14 20/61/14 19/63/14
f 44/89/14 19/63/14 45/90/14
f 45/90/14 19/63/14 38/62/14
f 38/62/14 19/63/14 29/64/14
f 38/62/14 46/91/14 45/90/14
f 39/92/14 46/91/14 38/62/14
f 39/92/14 47/93/14 46/91/14
f 47/93/14 39/92/14 48/94/14
f 49/95/14 42/87/14 43/88/14
f 39/98/1 50/97/1 48/96/1
f 50/97/1 39/98/1 40/99/1
f 21/51/13 51/101/13 41/100/13
f 51/101/13 21/51/13 52/102/13
f 52/102/13 21/51/13 22/53/13
f 52/102/13 22/53/13 53/103/13
f 53/103/13 22/53/13 35/52/13
f 35/52/13 22/53/13 34/54/13
f 35/52/13 54/104/13 53/103/13
f 36/105/13 54/104/13 35/52/13
f 36/105/13 55/106/13 54/104/13
f 55/106/13 36/105/13 56/107/13
f 57/93/13 41/108/13 51/91/13
f 50/110/13 41/100/13 57/109/13
f 41/100/13 50/110/13 40/111/13
f 42/114/1 36/113/1 37/112/1
f 36/113/1 42/114/1 56/115/1
f 25/49/13 59/117/13 58/116/13
f 59/117/13 25/49/13 26/50/13
f 61/120/9 59/119/9 60/118/9
f 59/119/9 61/120/9 58/121/9
f 26/76/15 62/123/15 59/122/15
f 62/123/15 26/76/15 30/74/15
f 59/122/15 62/123/15 60/124/15
f 62/123/15 30/74/15 63/125/15
f 65/127/15 30/74/15 64/126/15
f 63/125/15 30/74/15 65/127/15
f 30/59/14 66/129/14 64/128/14
f 66/129/14 30/59/14 31/60/14
f 61/131/16 25/82/16 58/130/16
f 25/82/16 61/131/16 67/132/16
f 25/82/16 67/132/16 31/83/16
f 31/83/16 67/132/16 68/133/16
f 31/83/16 68/133/16 69/134/16
f 31/83/16 69/134/16 66/135/16
f 69/138/17 63/137/17 65/136/17
f 63/137/17 69/138/17 68/139/17
f 68/139/9 62/140/9 63/137/9
f 62/140/9 68/139/9 67/141/9
f 67/143/18 60/128/18 62/142/18
f 60/128/18 67/143/18 61/129/18
f 66/116/9 65/136/9 64/117/9
f 65/136/9 66/116/9 69/138/9
f 45/58/1 53/65/1 44/56/1
f 53/65/1 45/58/1 52/67/1
f 53/70/15 43/144/15 44/44/15
f 43/144/15 53/70/15 54/145/15
f 55/145/15 42/75/15 49/144/15
f 42/75/15 55/145/15 56/73/15
f 55/148/9 43/147/9 54/146/9
f 43/147/9 55/148/9 49/149/9
f 51/85/16 45/79/16 46/150/16
f 45/79/16 51/85/16 52/45/16
f 50/84/16 47/150/16 48/81/16
f 47/150/16 50/84/16 57/85/16
f 51/153/9 47/152/9 57/151/9
f 47/152/9 51/153/9 46/154/9

