# Created by Kenney (www.kenney.nl)

mtllib Shower-Mat.mtl

g mergedBlocks

v -8.581295 2.039 3.480353
v -9.124353 2.039 2.937295
v -9.531647 2.039 4.430705
v -10.07471 2.039 3.887647
v -10.07471 2.0635 3.887647
v -9.531647 2.0635 4.430705
v -9.124353 2.0635 2.937295
v -8.581295 2.0635 3.480353

vn 0 -1 0
vn -0.7071067 0 0.7071068
vn -0.7071068 0 -0.7071067
vn 0.7071068 0 0.7071067
vn 0.7071067 0 -0.7071068
vn 0 1 0

vt 8.581295 -3.480354
vt 9.124353 -2.937295
vt 9.531647 -4.430705
vt 10.07471 -3.887647
vt -10.07471 2.039009
vt -10.07471 2.063504
vt -9.531647 2.039009
vt -9.531647 2.063504
vt 10.07471 2.039009
vt 9.124353 2.039009
vt 10.07471 2.063504
vt 9.124353 2.063504
vt -8.581295 2.039009
vt -8.581295 2.063504
vt 8.581295 2.063504
vt 8.581295 2.039009
vt 9.124353 2.937295
vt 8.581295 3.480354
vt 10.07471 3.887647
vt 9.531647 4.430705

usemtl custom26

f 3/3/1 2/2/1 1/1/1
f 2/2/1 3/3/1 4/4/1
f 3/7/2 5/6/2 4/5/2
f 5/6/2 3/7/2 6/8/2
f 5/11/3 2/10/3 4/9/3
f 2/10/3 5/11/3 7/12/3
f 8/14/4 3/7/4 1/13/4
f 3/7/4 8/14/4 6/8/4
f 8/15/5 2/10/5 7/12/5
f 2/10/5 8/15/5 1/16/5
f 5/19/6 8/18/6 7/17/6
f 8/18/6 5/19/6 6/20/6

