# Created by Kenney (www.kenney.nl)

mtllib TVBig.mtl

g mergedBlocks

v -1.452 0.7 -0.4000001
v -1.452 0.7 -0.5200001
v -1.56 0.7 -0.4000001
v -1.56 0.7 -0.5200001
v -1.479 0.9 -0.4900001
v -1.479 0.9 -0.4300001
v -1.533 0.9 -0.4900001
v -1.533 0.9 -0.4300001
v -1.47756 0.7798938 -0.45
v -1.47756 0.7798938 -0.498
v -3.566814 0.7798938 -0.45
v -3.566814 0.7798938 -0.498
v -3.566814 1.959708 -0.498
v -3.566814 1.959708 -0.45
v -1.47756 1.959708 -0.498
v -1.47756 1.959708 -0.45
v -3.492 0.7 -0.4000001
v -3.492 0.7 -0.5200001
v -3.6 0.7 -0.4000001
v -3.6 0.7 -0.5200001
v -3.519 0.9 -0.4900001
v -3.519 0.9 -0.4300001
v -3.573 0.9 -0.4900001
v -3.573 0.9 -0.4300001
v -1.5 0.8000001 -0.5
v -1.5 0.8000001 -0.54
v -3.54 0.8000001 -0.5
v -3.54 0.8000001 -0.54
v -3.54 1.952 -0.54
v -3.54 1.952 -0.5
v -1.5 1.952 -0.54
v -1.5 1.952 -0.5

vn 0 -1 0
vn 0 1 0
vn 0.9910101 0.1337864 0
vn -0.9910101 0.1337864 0
vn 0 0.1483405 -0.9889364
vn 0 0.1483405 0.9889364
vn -1 0 0
vn 0 0 -1
vn 0 0 1
vn 1 0 0

vt 1.212 0.5000001
vt 1.212 0.6200001
vt 1.32 0.5000001
vt 1.32 0.6200001
vt 1.239 -0.5900001
vt 1.239 -0.5300002
vt 1.293 -0.5900001
vt 1.293 -0.5300002
vt 0.6200001 0
vt 0.5000001 0
vt 0.5900001 0.1999999
vt 0.5300002 0.1999999
vt -0.6200001 0
vt -0.5900001 0.1999999
vt -0.5000001 0
vt -0.5300002 0.1999999
vt 1.32 0
vt 1.212 0
vt 1.293 0.1999999
vt 1.239 0.1999999
vt -1.212 0
vt -1.32 0
vt -1.239 0.1999999
vt -1.293 0.1999999
vt 1.47756 0.45
vt 1.47756 0.498
vt 3.566814 0.45
vt 3.566814 0.498
vt -0.498 0.7798938
vt -0.498 1.959708
vt -0.45 0.7798938
vt -0.45 1.959708
vt 3.566814 0.7798938
vt 1.47756 0.7798938
vt 3.566814 1.959708
vt 1.47756 1.959708
vt -1.47756 0.7798938
vt -3.566814 0.7798938
vt -1.47756 1.959708
vt -3.566814 1.959708
vt 0.498 1.959708
vt 0.498 0.7798938
vt 0.45 1.959708
vt 0.45 0.7798938
vt 1.47756 -0.498
vt 1.47756 -0.45
vt 3.566814 -0.498
vt 3.566814 -0.45

usemtl _defaultMat

f 3/3/1 2/2/1 1/1/1
f 2/2/1 3/3/1 4/4/1
f 7/7/2 6/6/2 5/5/2
f 6/6/2 7/7/2 8/8/2
f 5/11/3 1/10/3 2/9/3
f 1/10/3 5/11/3 6/12/3
f 3/15/4 7/14/4 4/13/4
f 7/14/4 3/15/4 8/16/4
f 7/19/5 2/18/5 4/17/5
f 2/18/5 7/19/5 5/20/5
f 6/23/6 3/22/6 1/21/6
f 3/22/6 6/23/6 8/24/6
f 11/27/1 10/26/1 9/25/1
f 10/26/1 11/27/1 12/28/1
f 11/31/7 13/30/7 12/29/7
f 13/30/7 11/31/7 14/32/7
f 13/35/8 10/34/8 12/33/8
f 10/34/8 13/35/8 15/36/8
f 16/39/9 11/38/9 9/37/9
f 11/38/9 16/39/9 14/40/9
f 16/43/10 10/42/10 15/41/10
f 10/42/10 16/43/10 9/44/10
f 13/47/2 16/46/2 15/45/2
f 16/46/2 13/47/2 14/48/2
f 19/3/1 18/2/1 17/1/1
f 18/2/1 19/3/1 20/4/1
f 23/7/2 22/6/2 21/5/2
f 22/6/2 23/7/2 24/8/2
f 21/11/3 17/10/3 18/9/3
f 17/10/3 21/11/3 22/12/3
f 19/15/4 23/14/4 20/13/4
f 23/14/4 19/15/4 24/16/4
f 23/19/5 18/18/5 20/17/5
f 18/18/5 23/19/5 21/20/5
f 22/23/6 19/22/6 17/21/6
f 19/22/6 22/23/6 24/24/6

usemtl Iron_Grey_-_Dark

f 27/27/1 26/26/1 25/25/1
f 26/26/1 27/27/1 28/28/1
f 27/31/7 29/30/7 28/29/7
f 29/30/7 27/31/7 30/32/7
f 29/35/8 26/34/8 28/33/8
f 26/34/8 29/35/8 31/36/8
f 32/39/9 27/38/9 25/37/9
f 27/38/9 32/39/9 30/40/9
f 32/43/10 26/42/10 31/41/10
f 26/42/10 32/43/10 25/44/10
f 29/47/2 32/46/2 31/45/2
f 32/46/2 29/47/2 30/48/2

