# Created by Kenney (www.kenney.nl)

mtllib TVTableBig.mtl

g mergedBlocks

v -1.753125 0.7177385 0.5937002
v -1.753125 0.7177385 1.0377
v -1.753125 0.8713115 0.5937002
v -1.753125 0.8713115 1.0377
v -1.809375 0.7177385 1.0377
v -1.809375 0.7177385 0.5937002
v -1.809375 0.8713115 0.5937002
v -1.809375 0.8713115 1.0377
v -1.8375 0.31 0.5382001
v -1.725 0.31 0.5382001
v -1.8375 1.27905 0.5382001
v -1.725 1.27905 0.5382001
v 0.1593752 0.8713115 1.0377
v 0.1031252 0.8713115 1.0377
v 0.1593752 0.8713115 0.5937002
v 0.1031252 0.8713115 0.5937002
v 0.1593752 0.7177385 1.0377
v 0.1593752 0.7177385 0.5937002
v 0.1031252 0.7177385 1.0377
v 0.1031252 0.7177385 0.5937002
v 0.07500023 0.31 1.0377
v 0.09750026 0.31 1.0377
v 0.07500023 1.27905 1.0377
v 0.1875001 0.31 1.0377
v 0.1875001 1.27905 1.0377
v 0.07500023 0.7177385 1.079325
v 0.07500023 0.7177385 1.051575
v -1.725 0.7177385 1.079325
v -1.725 0.7177385 1.051575
v 0.07500023 0.8713115 1.051575
v -1.725 0.8713115 1.051575
v 0.07500023 0.7177385 0.5798252
v 0.07500023 0.7177385 0.5520751
v -1.725 0.7177385 0.5798252
v -1.725 0.7177385 0.5520751
v 0.1875001 0.31 1.0932
v 0.07500023 0.31 1.0932
v 0.1875001 1.27905 1.0932
v 0.07500023 1.27905 1.0932
v 0.07500023 0.8713115 1.079325
v -1.725 0.8713115 1.079325
v 0.07500023 0.8713115 0.5520751
v -1.725 0.8713115 0.5520751
v -1.725 0.31 1.0932
v -1.8375 0.31 1.0932
v -1.725 1.27905 1.0932
v -1.8375 1.27905 1.0932
v -1.725 0.31 1.0377
v -1.7475 0.31 1.0377
v -1.8375 0.31 1.0377
v -1.8375 0.31 0.5937002
v -1.8375 1.27905 0.5937002
v 0.1875001 0.31 0.5937002
v 0.1875001 0.31 0.5382001
v 0.07500023 0.31 0.5937002
v 0.07500023 0.31 0.5382001
v 0.07500023 0.8713115 0.5798252
v -1.725 0.8713115 0.5798252
v 0.07500023 1.27905 0.5382001
v 0.1875001 1.27905 0.5382001
v -1.8375 1.27905 1.0377
v -1.725 1.27905 1.0377
v -1.725 1.27905 0.5937002
v -1.725 0.31 0.5937002
v -1.7475 1.27905 0.5937002
v 0.1875001 1.27905 0.5937002
v 0.09750026 1.27905 0.5937002
v 0.07500023 1.27905 0.5937002
v 0.3000002 1.432623 1.17645
v -1.95 1.432623 1.17645
v 0.3000002 1.432623 0.4549502
v -1.95 1.432623 0.4549502
v 0.3000002 1.27905 1.17645
v -1.95 1.27905 1.17645
v 0.3000002 1.27905 0.4549502
v -1.95 1.27905 0.4549502

vn 1 0 0
vn 0 -1 0
vn -1 0 0
vn 0 0 -1
vn 0 1 0
vn 0 0 1

vt -0.5937002 0.7177385
vt -1.0377 0.7177385
vt -0.5937002 0.8713115
vt -1.0377 0.8713115
vt 1.753125 -1.0377
vt 1.753125 -0.5937002
vt 1.809375 -1.0377
vt 1.809375 -0.5937002
vt 0.5937002 0.7177385
vt 0.5937002 0.8713115
vt 1.0377 0.7177385
vt 1.0377 0.8713115
vt 1.8375 0.31
vt 1.725 0.31
vt 1.8375 1.27905
vt 1.725 1.27905
vt -0.1593752 1.0377
vt -0.1031252 1.0377
vt -0.1593752 0.5937002
vt -0.1031252 0.5937002
vt -0.1593752 -1.0377
vt -0.1593752 -0.5937002
vt -0.1031252 -1.0377
vt -0.1031252 -0.5937002
vt 1.753125 1.0377
vt 1.809375 1.0377
vt 1.753125 0.5937002
vt 1.809375 0.5937002
vt -0.0750002 0.31
vt -0.09750025 0.31
vt -0.0750002 1.27905
vt -0.1031252 0.7177385
vt -0.1031252 0.8713115
vt -0.1593752 0.8713115
vt -0.1593752 0.7177385
vt -0.1875002 0.31
vt -0.1875002 1.27905
vt -0.0750002 -1.079325
vt -0.0750002 -1.051575
vt 1.725 -1.079325
vt 1.725 -1.051575
vt -0.0750002 0.7177385
vt -0.0750002 0.8713115
vt 1.725 0.7177385
vt 1.725 0.8713115
vt -0.0750002 -0.5798252
vt -0.0750002 -0.5520752
vt 1.725 -0.5798252
vt 1.725 -0.5520752
vt 0.1875002 0.31
vt 0.0750002 0.31
vt 0.1875002 1.27905
vt 0.0750002 1.27905
vt -0.0750002 1.051575
vt -0.0750002 1.079325
vt 1.725 1.051575
vt 1.725 1.079325
vt -1.725 0.31
vt -1.8375 0.31
vt -1.725 1.27905
vt -1.8375 1.27905
vt -1.0377 1.27905
vt -1.0377 0.31
vt -1.0932 1.27905
vt -1.0932 0.31
vt 1.725 -1.0932
vt 1.725 -1.0377
vt 1.8375 -1.0932
vt 1.7475 -1.0377
vt 1.8375 -1.0377
vt 0.5382001 0.31
vt 0.5382001 1.27905
vt 0.5937002 0.31
vt 0.5937002 1.27905
vt -0.1875002 -0.5937002
vt -0.1875002 -0.5382001
vt -0.0750002 -0.5937002
vt -0.0750002 -0.5382001
vt 0.0750002 0.7177385
vt -1.725 0.7177385
vt 0.0750002 0.8713115
vt -1.725 0.8713115
vt -1.7475 0.31
vt 1.809375 0.7177385
vt 1.809375 0.8713115
vt 1.753125 0.8713115
vt 1.753125 0.7177385
vt -0.5382001 0.31
vt -0.5520752 0.8713115
vt -0.5382001 1.27905
vt -0.5937002 1.27905
vt -0.5798252 0.8713115
vt -0.5798252 0.7177385
vt -0.5520752 0.7177385
vt -0.5937002 0.31
vt -1.753125 0.7177385
vt -1.753125 0.8713115
vt -1.809375 0.8713115
vt -1.809375 0.7177385
vt -1.7475 1.27905
vt -0.0750002 0.5520752
vt -0.0750002 0.5798252
vt 1.725 0.5520752
vt 1.725 0.5798252
vt -0.1875002 -1.0932
vt -0.1875002 -1.0377
vt -0.0750002 -1.0932
vt -0.09750025 -1.0377
vt -0.0750002 -1.0377
vt 1.0377 0.31
vt 1.0377 1.27905
vt 1.0932 0.31
vt 1.0932 1.27905
vt 0.1593752 0.7177385
vt 0.1593752 0.8713115
vt 0.1031252 0.8713115
vt 0.09750025 1.27905
vt 0.1031252 0.7177385
vt -1.051575 0.8713115
vt -1.079325 0.8713115
vt -1.079325 0.7177385
vt -1.051575 0.7177385
vt 0.5520752 0.7177385
vt 0.5798252 0.7177385
vt 0.5798252 0.8713115
vt 0.5520752 0.8713115
vt 1.725 -0.5937002
vt 1.725 -0.5382001
vt 1.8375 -0.5937002
vt 1.8375 -0.5382001
vt 1.051575 0.7177385
vt 1.079325 0.7177385
vt 1.079325 0.8713115
vt 1.051575 0.8713115
vt -0.3000002 1.17645
vt 1.95 1.17645
vt -0.3000002 0.4549502
vt 1.95 0.4549502
vt 0.3000002 1.27905
vt -1.95 1.27905
vt 0.3000002 1.432623
vt -1.95 1.432623
vt -0.09750025 -0.5937002
vt -0.3000002 -0.4549502
vt -0.3000002 -1.17645
vt 1.95 -1.17645
vt 1.7475 -0.5937002
vt 1.95 -0.4549502
vt 0.4549502 1.27905
vt 0.4549502 1.432623
vt 1.17645 1.27905
vt 1.17645 1.432623
vt -0.4549502 1.27905
vt -1.17645 1.27905
vt -0.4549502 1.432623
vt -1.17645 1.432623
vt 1.95 1.27905
vt -0.3000002 1.27905
vt 1.95 1.432623
vt -0.3000002 1.432623

usemtl woodLight

f 3/3/1 2/2/1 1/1/1
f 2/2/1 3/3/1 4/4/1
f 5/7/2 1/6/2 2/5/2
f 1/6/2 5/7/2 6/8/2
f 5/11/3 7/10/3 6/9/3
f 7/10/3 5/11/3 8/12/3
f 11/15/4 10/14/4 9/13/4
f 10/14/4 11/15/4 12/16/4
f 15/19/5 14/18/5 13/17/5
f 14/18/5 15/19/5 16/20/5
f 19/23/2 18/22/2 17/21/2
f 18/22/2 19/23/2 20/24/2
f 19/11/3 16/10/3 20/9/3
f 16/10/3 19/11/3 14/12/3
f 3/27/5 8/26/5 4/25/5
f 8/26/5 3/27/5 7/28/5
f 15/3/1 17/2/1 18/1/1
f 17/2/1 15/3/1 13/4/1
f 23/31/4 22/30/4 21/29/4
f 22/30/4 23/31/4 19/32/4
f 19/32/4 23/31/4 14/33/4
f 14/33/4 23/31/4 13/34/4
f 17/35/4 22/30/4 19/32/4
f 17/35/4 24/36/4 22/30/4
f 24/36/4 17/35/4 25/37/4
f 25/37/4 17/35/4 13/34/4
f 25/37/4 13/34/4 23/31/4
f 28/40/2 27/39/2 26/38/2
f 27/39/2 28/40/2 29/41/2
f 29/44/4 30/43/4 27/42/4
f 30/43/4 29/44/4 31/45/4
f 34/48/2 33/47/2 32/46/2
f 33/47/2 34/48/2 35/49/2
f 38/52/6 37/51/6 36/50/6
f 37/51/6 38/52/6 39/53/6
f 31/56/5 40/55/5 30/54/5
f 40/55/5 31/56/5 41/57/5
f 35/44/4 42/43/4 33/42/4
f 42/43/4 35/44/4 43/45/4
f 46/60/6 45/59/6 44/58/6
f 45/59/6 46/60/6 47/61/6
f 38/64/1 24/63/1 25/62/1
f 24/63/1 38/64/1 36/65/1
f 45/68/2 48/67/2 44/66/2
f 48/67/2 45/68/2 49/69/2
f 49/69/2 45/68/2 50/70/2
f 51/73/3 11/72/3 9/71/3
f 11/72/3 51/73/3 52/74/3
f 55/77/2 54/76/2 53/75/2
f 54/76/2 55/77/2 56/78/2
f 57/81/6 34/80/6 32/79/6
f 34/80/6 57/81/6 58/82/6
f 59/31/4 54/36/4 56/29/4
f 54/36/4 59/31/4 60/37/4
f 50/59/4 48/58/4 49/83/4
f 48/14/4 50/13/4 5/84/4
f 5/84/4 50/13/4 61/15/4
f 5/84/4 61/15/4 8/85/4
f 8/85/4 61/15/4 4/86/4
f 2/87/4 48/14/4 5/84/4
f 48/14/4 2/87/4 62/16/4
f 62/16/4 2/87/4 4/86/4
f 62/16/4 4/86/4 61/15/4
f 12/90/1 43/89/1 10/88/1
f 43/89/1 12/90/1 63/91/1
f 43/89/1 63/91/1 58/92/1
f 58/92/1 63/91/1 34/93/1
f 35/94/1 10/88/1 43/89/1
f 10/88/1 35/94/1 64/95/1
f 64/95/1 35/94/1 34/93/1
f 64/95/1 34/93/1 63/91/1
f 64/58/6 1/96/6 51/59/6
f 1/96/6 64/58/6 63/60/6
f 1/96/6 63/60/6 3/97/6
f 3/97/6 63/60/6 7/98/6
f 6/99/6 51/59/6 1/96/6
f 51/59/6 6/99/6 52/61/6
f 52/61/6 6/99/6 7/98/6
f 52/61/6 7/98/6 63/60/6
f 52/61/6 63/60/6 65/100/6
f 40/81/6 28/80/6 26/79/6
f 28/80/6 40/81/6 41/82/6
f 66/91/1 54/88/1 60/90/1
f 54/88/1 66/91/1 53/95/1
f 43/103/5 57/102/5 42/101/5
f 57/102/5 43/103/5 58/104/5
f 37/107/2 24/106/2 36/105/2
f 24/106/2 37/107/2 22/108/2
f 22/108/2 37/107/2 21/109/2
f 45/112/3 61/111/3 50/110/3
f 61/111/3 45/112/3 47/113/3
f 53/50/6 18/114/6 55/51/6
f 18/114/6 53/50/6 66/52/6
f 18/114/6 66/52/6 15/115/6
f 15/115/6 66/52/6 16/116/6
f 16/116/6 66/52/6 67/117/6
f 20/118/6 55/51/6 18/114/6
f 55/51/6 20/118/6 68/53/6
f 68/53/6 20/118/6 16/116/6
f 68/53/6 16/116/6 67/117/6
f 62/62/1 31/119/1 48/63/1
f 31/119/1 62/62/1 46/64/1
f 31/119/1 46/64/1 41/120/1
f 41/120/1 46/64/1 28/121/1
f 29/122/1 48/63/1 31/119/1
f 48/63/1 29/122/1 44/65/1
f 44/65/1 29/122/1 28/121/1
f 44/65/1 28/121/1 46/64/1
f 56/71/3 33/123/3 59/72/3
f 33/123/3 56/71/3 55/73/3
f 33/123/3 55/73/3 32/124/3
f 32/124/3 55/73/3 57/125/3
f 42/126/3 59/72/3 33/123/3
f 59/72/3 42/126/3 68/74/3
f 68/74/3 42/126/3 57/125/3
f 68/74/3 57/125/3 55/73/3
f 51/129/2 10/128/2 64/127/2
f 10/128/2 51/129/2 9/130/2
f 21/110/3 27/131/3 23/111/3
f 27/131/3 21/110/3 37/112/3
f 27/131/3 37/112/3 26/132/3
f 26/132/3 37/112/3 40/133/3
f 30/134/3 23/111/3 27/131/3
f 23/111/3 30/134/3 39/113/3
f 39/113/3 30/134/3 40/133/3
f 39/113/3 40/133/3 37/112/3

usemtl wood

f 71/137/5 70/136/5 69/135/5
f 70/136/5 71/137/5 72/138/5
f 69/141/6 74/140/6 73/139/6
f 74/140/6 69/141/6 70/142/6
f 66/75/2 25/106/2 67/143/2
f 25/52/2 66/52/2 38/52/2
f 67/143/2 25/106/2 23/109/2
f 67/143/2 23/109/2 68/77/2
f 68/53/2 23/53/2 59/53/2
f 75/144/2 38/105/2 66/75/2
f 73/145/2 38/105/2 75/144/2
f 38/105/2 73/145/2 74/146/2
f 38/105/2 74/146/2 39/107/2
f 39/107/2 74/146/2 23/109/2
f 23/109/2 74/146/2 46/66/2
f 23/109/2 46/66/2 63/127/2
f 62/60/2 63/60/2 46/60/2
f 63/127/2 62/67/2 65/147/2
f 65/147/2 62/67/2 61/70/2
f 65/147/2 61/70/2 52/129/2
f 52/61/2 61/61/2 11/61/2
f 46/66/2 74/146/2 47/68/2
f 47/68/2 74/146/2 61/70/2
f 76/148/2 59/78/2 23/109/2
f 76/148/2 11/130/2 61/70/2
f 76/148/2 61/70/2 74/146/2
f 75/144/2 60/76/2 76/148/2
f 76/148/2 60/76/2 59/78/2
f 60/76/2 75/144/2 66/75/2
f 76/148/2 12/128/2 11/130/2
f 76/148/2 23/109/2 12/128/2
f 12/128/2 23/109/2 63/127/2
f 74/151/3 72/150/3 76/149/3
f 72/150/3 74/151/3 70/152/3
f 71/155/1 73/154/1 75/153/1
f 73/154/1 71/155/1 69/156/1
f 72/159/4 75/158/4 76/157/4
f 75/158/4 72/159/4 71/160/4

