# Created by Kenney (www.kenney.nl)

mtllib Glue.mtl

g mergedBlocks

v -2.216755 1.799994 -0.8721609
v -1.803245 1.799994 -0.8721609
v -1.803245 1.799994 -0.9875016
v -2.216755 1.799994 -0.9875016
v -2.216755 1.799994 -0.5997121
v -1.803245 1.799994 -0.5997121
v -1.803245 1.799994 -1.25995
v -2.216755 1.799994 -1.25995
v -1.871871 2.280006 -1.102768
v -2.148129 2.280006 -1.102768
v -2.148129 2.280006 -0.7568936
v -1.871871 2.280006 -0.7568943
v -2.106417 2.22513 -0.8850418
v -2.148129 2.280006 -0.8850418
v -2.266729 2.280006 -0.8850418
v -2.155536 2.22513 -0.8850418
v -1.864464 2.22513 -0.8850418
v -1.753271 2.280006 -0.8850418
v -1.871871 2.280006 -0.8850418
v -1.913583 2.22513 -0.8850418
v -2.394277 1.799994 -0.9875016
v -2.266729 2.280006 -0.9746202
v -2.155536 2.22513 -0.9746202
v -1.753271 2.280006 -0.9746202
v -1.625723 1.799994 -0.9875016
v -1.864464 2.22513 -0.9746202
v -2.394277 1.799994 -0.8721609
v -1.625723 1.799994 -0.8721609
v -2.106417 2.22513 -0.9746202
v -2.148129 2.280006 -0.9746202
v -1.871871 2.280006 -0.9746202
v -1.913583 2.22513 -0.9746202
v -2.394277 1.799994 -0.8522378
v -2.266729 2.280006 -0.8695691
v -2.394277 1.799994 -1.007424
v -1.753271 2.280006 -0.8695691
v -1.753271 2.280006 -0.9900928
v -2.266729 2.280006 -0.9900928
v -1.625723 1.799994 -1.007424
v -1.625723 1.799994 -0.8522378
v -1.652771 1.828281 -0.9024859
v -1.870618 2.216209 -0.9142401
v -1.870618 2.216209 -0.9454224
v -1.652771 1.828281 -0.957176
v -2.149382 2.216209 -0.9142401
v -2.367229 1.828281 -0.9024859
v -2.367229 1.828281 -0.957176
v -2.149382 2.216209 -0.9454224
v -2.102268 2.216403 -0.9142401
v -2.102268 2.216403 -0.9454224
v -1.917732 2.216403 -0.9142401
v -1.917732 2.216403 -0.9454224
v -1.634163 1.815024 -0.9651449
v -1.634163 1.815024 -0.8945175
v -2.385837 1.815024 -0.8945175
v -2.385837 1.815024 -0.9651449
v -2.155624 2.224973 -0.9069384
v -1.864376 2.224973 -0.9069384
v -1.864376 2.224973 -0.9527236
v -2.155624 2.224973 -0.9527236
v -2.106417 2.22513 -0.9069384
v -1.913583 2.22513 -0.9069384
v -2.106417 2.22513 -0.9527236
v -1.913583 2.22513 -0.9527236
v -2 0.6 -1.078576
v -1.751433 0.6 -0.9
v -2 0.8727273 -1.185721
v -1.602293 0.8727273 -0.9
v -2.248567 0.6 -0.9
v -2.397707 0.8727273 -0.9
v -2 1.145455 -1.078576
v -2.248567 1.145455 -0.9
v -1.751433 1.145455 -0.9
v -2 0.6 -0.7214243
v -2 0.8727273 -0.614279
v -2 1.145455 -0.7214243
v -1.751433 1.8 -0.9
v -2 1.8 -1.078576
v -2 1.8 -0.7214243
v -2.248567 1.8 -0.9
v -2 1.472727 -1.042861
v -1.801147 1.472727 -0.9
v -2 1.472727 -0.7571394
v -2.198853 1.472727 -0.9

vn 0 -1 1.192093E-07
vn 0 0.3112284 -0.9503351
vn 0 0.3112286 0.9503351
vn 0 -1.192093E-07 -1
vn -0.01174135 -0.02364623 0.9996515
vn 0.01174135 -0.02364623 0.9996515
vn -0.01174135 -0.02364647 -0.9996515
vn 0.01174135 -0.02364647 -0.9996515
vn 0 1.192093E-07 1
vn -0.9664733 0.256767 -3.060901E-08
vn 0 1 -1.192093E-07
vn 0.9664733 0.256767 -3.060901E-08
vn 0.7492948 0.2635336 0.6075421
vn 0.7492948 0.2635335 -0.6075422
vn -0.7492948 0.2635335 -0.6075422
vn -0.7492948 0.2635336 0.6075421
vn 0.8719245 0.4896404 -5.836968E-08
vn -0.8719245 0.4896404 -5.836968E-08
vn -0.004114357 0.9999915 -1.192083E-07
vn 0.004114357 0.9999915 -1.192083E-07
vn 0.5802617 0.8144301 -9.708763E-08
vn -0.5802617 0.8144301 -9.708763E-08
vn -0.5388937 0.2785348 -0.7949917
vn 0.5388937 0.2785348 -0.7949917
vn 0.5388937 0.278535 0.7949917
vn -0.5388937 0.278535 0.7949917
vn -0.002309974 0.6400611 -0.7683205
vn 0.002309974 0.6400611 -0.7683205
vn 0 0.6416689 -0.7669818
vn 0 0.641669 0.7669817
vn -0.002309974 0.6400613 0.7683203
vn 0.002309974 0.6400613 0.7683203
vn -0.00155847 0.9999924 -0.003563749
vn 0.00155847 0.9999924 -0.003563749
vn -0.00155847 0.9999924 0.003563511
vn 0.001620809 0.9999923 0.003563511
vn 0.5558522 -0.3039661 -0.7737137
vn -0.5558522 -0.3039661 -0.7737137
vn -0.5558522 0.3039661 -0.7737137
vn 0.5558522 0.3039661 -0.7737137
vn 0.5558522 -0.3039661 0.7737137
vn 0.5558522 0.3039661 0.7737137
vn -0.5558522 -0.3039661 0.7737137
vn -0.5558522 0.3039661 0.7737137
vn 0 -1 0
vn 0 1 0
vn 0.5811818 0.08828263 -0.8089709
vn 0.5811818 0.08828263 0.8089709
vn -0.5811818 0.08828263 0.8089709
vn -0.5811818 0.08828263 -0.8089709
vn -0.5811818 -0.08828263 0.8089709
vn -0.5811818 -0.08828263 -0.8089709
vn 0.5811818 -0.08828263 -0.8089709
vn 0.5811818 -0.08828263 0.8089709

vt 1.221539 2.072009
vt 0.8080289 2.072009
vt 0.8080289 2.187348
vt 1.221539 2.187348
vt 1.221539 1.799564
vt 0.8080289 1.799564
vt 0.8080289 2.459793
vt 1.221539 2.459793
vt 0.8766544 2.680001
vt 1.152914 2.680001
vt 1.221539 2.199997
vt 0.8080289 2.199997
vt -1.152914 2.680001
vt -0.8766544 2.680001
vt -0.8080289 2.199998
vt -1.221539 2.199998
vt 1.111201 2.625125
vt 1.271513 2.680001
vt 1.16032 2.625125
vt 0.8692478 2.625125
vt 0.7580552 2.680001
vt 0.9183669 2.625125
vt -1.399061 2.199997
vt -1.271513 2.680001
vt -1.16032 2.625125
vt -0.7580552 2.680001
vt -0.630507 2.199997
vt -0.8692478 2.625125
vt 1.399061 2.199997
vt 0.630507 2.199997
vt -1.111201 2.625125
vt -0.9183669 2.625125
vt -2.052086 2.199997
vt -2.072009 2.199997
vt -2.08489 2.680001
vt -2.069417 2.680001
vt 1.399061 2.187348
vt 1.399061 2.20727
vt 0.8766544 -2.08489
vt 0.7580552 -2.08489
vt 0.7580552 -2.069417
vt 0.8766544 -1.956744
vt 0.7580552 -2.174467
vt 0.8766544 -2.174467
vt 0.8766544 -2.302613
vt 0.7580552 -2.189939
vt 1.271513 -2.08489
vt 1.152914 -2.08489
vt 1.152914 -1.956743
vt 1.271513 -2.069417
vt 1.152914 -2.174467
vt 1.271513 -2.174467
vt 1.271513 -2.189939
vt 1.152914 -2.302613
vt 0.630507 2.187348
vt 0.630507 2.20727
vt 2.20727 2.199997
vt 2.187348 2.199997
vt 2.174467 2.680001
vt 2.189939 2.680001
vt 2.069417 2.680001
vt 2.08489 2.680001
vt 2.072009 2.199997
vt 2.052086 2.199997
vt 1.799564 2.199998
vt 1.956744 2.680001
vt -2.189939 2.680001
vt -2.174467 2.680001
vt -2.187348 2.199997
vt -2.20727 2.199997
vt 1.399061 2.072009
vt 1.399061 2.052086
vt 0.630507 2.072009
vt 0.630507 2.052086
vt 2.302613 2.680001
vt 2.459793 2.199997
vt -2.459793 2.199997
vt -2.302613 2.680001
vt -1.956743 2.680001
vt -1.799564 2.199998
vt 2.102333 2.228284
vt 2.114087 2.616204
vt 2.145269 2.616204
vt 2.157023 2.228284
vt -2.114087 2.616204
vt -2.102333 2.228284
vt -2.157023 2.228284
vt -2.145269 2.616204
vt 1.107052 -2.114087
vt 1.154166 -2.114087
vt 1.154166 -2.145269
vt 1.107052 -2.145269
vt 0.9225156 -2.114087
vt 0.9225156 -2.145269
vt 0.8754017 -2.145269
vt 0.8754017 -2.114087
vt 0.6575548 -2.157023
vt 0.638947 -2.164992
vt 0.638947 -2.094365
vt 0.6575548 -2.102333
vt 1.372013 -2.102333
vt 1.390621 -2.094365
vt 1.390621 -2.164992
vt 1.372013 -2.157023
vt 1.154166 2.616204
vt 1.160408 2.624969
vt 1.390621 2.215028
vt 1.372013 2.228284
vt 0.6575548 2.228284
vt 0.638947 2.215028
vt 0.8691601 2.624969
vt 0.8754017 2.616204
vt -0.8754017 2.616204
vt -0.8691601 2.624969
vt -0.638947 2.215028
vt -0.6575548 2.228284
vt -1.372013 2.228284
vt -1.390621 2.215028
vt -1.160408 2.624969
vt -1.154166 2.616204
vt 1.107052 2.616399
vt 0.9225156 2.616399
vt -1.107052 2.616399
vt -0.9225156 2.616399
vt 2.164992 2.215028
vt 2.094365 2.215028
vt -2.094365 2.215028
vt -2.164992 2.215028
vt -2.106786 2.624969
vt -2.08489 2.625125
vt 2.08489 2.625125
vt 2.106786 2.624969
vt 2.15257 2.624969
vt 2.174467 2.625125
vt -2.174467 2.625125
vt -2.15257 2.624969
vt 1.111201 -2.106786
vt 1.111201 -2.08489
vt 1.16032 -2.08489
vt 1.160408 -2.106786
vt 0.8691601 -2.106786
vt 0.8692478 -2.08489
vt 0.9183669 -2.08489
vt 0.9183669 -2.106786
vt 1.111201 -2.15257
vt 1.111201 -2.174467
vt 0.9183669 -2.174467
vt 0.9183669 -2.15257
vt 1.160408 -2.15257
vt 1.16032 -2.174467
vt 0.8692478 -2.174467
vt 0.8691601 -2.15257
vt 2 0.6
vt 1.751433 0.6
vt 2 0.8727273
vt 1.602293 0.8727273
vt 2.248567 0.6
vt 2.397707 0.8727273
vt 2 1.145455
vt 2.248567 1.145455
vt 1.751433 1.145455
vt -1.751433 0.6
vt -2 0.6
vt -1.602293 0.8727273
vt -2 0.8727273
vt -1.751433 1.145455
vt -2 1.145455
vt -2.248567 0.6
vt -2.397707 0.8727273
vt -2.248567 1.145455
vt 1.602293 1
vt 2 1.285721
vt 2 0.714279
vt 2.397707 1
vt 1.751433 1
vt 2 1.178576
vt 2 0.8214244
vt 2.248567 1
vt 2 -0.8214244
vt 2 -1.178576
vt 1.751433 -1
vt 2.248567 -1
vt 2 1.472727
vt 1.801147 1.472727
vt -1.801147 1.472727
vt -2 1.472727
vt -2.198853 1.472727
vt 2.198853 1.472727
vt -2.248567 1.8
vt -2 1.8
vt 2.248567 1.8
vt 2 1.8
vt 1.751433 1.8
vt -1.751433 1.8

usemtl _defaultMat.001

f 3/3/1 2/2/1 1/1/1
f 1/1/1 4/4/1 3/3/1
f 5/5/1 1/1/1 2/2/1
f 2/2/1 6/6/1 5/5/1
f 7/7/1 3/3/1 4/4/1
f 4/4/1 8/8/1 7/7/1
f 8/11/2 10/10/2 9/9/2
f 9/9/2 7/12/2 8/11/2
f 6/15/3 12/14/3 11/13/3
f 11/13/3 5/16/3 6/15/3
f 15/18/4 14/10/4 13/17/4
f 13/17/4 16/19/4 15/18/4
f 19/9/4 18/21/4 17/20/4
f 17/20/4 20/22/4 19/9/4
f 23/25/5 22/24/5 21/23/5
f 26/28/6 25/27/6 24/26/6
f 16/19/7 27/29/7 15/18/7
f 17/20/8 18/21/8 28/30/8
f 14/10/4 19/9/4 20/22/4
f 20/22/4 13/17/4 14/10/4
f 31/14/9 30/13/9 29/31/9
f 29/31/9 32/32/9 31/14/9
f 30/13/9 22/24/9 23/25/9
f 23/25/9 29/31/9 30/13/9
f 24/26/9 31/14/9 32/32/9
f 32/32/9 26/28/9 24/26/9
f 15/35/10 27/34/10 33/33/10
f 33/33/10 34/36/10 15/35/10
f 8/8/1 4/4/1 21/37/1
f 21/37/1 35/38/1 8/8/1
f 36/41/11 18/40/11 19/39/11
f 19/39/11 12/42/11 36/41/11
f 9/45/11 31/44/11 24/43/11
f 24/43/11 37/46/11 9/45/11
f 11/49/11 14/48/11 15/47/11
f 15/47/11 34/50/11 11/49/11
f 38/53/11 22/52/11 30/51/11
f 30/51/11 10/54/11 38/53/11
f 39/56/1 25/55/1 3/3/1
f 3/3/1 7/7/1 39/56/1
f 30/51/11 31/44/11 9/45/11
f 9/45/11 10/54/11 30/51/11
f 24/59/12 25/58/12 39/57/12
f 39/57/12 37/60/12 24/59/12
f 28/63/12 18/62/12 36/61/12
f 36/61/12 40/64/12 28/63/12
f 12/66/13 6/65/13 40/64/13
f 40/27/13 36/26/13 12/14/13
f 21/69/10 22/68/10 38/67/10
f 38/67/10 35/70/10 21/69/10
f 33/72/1 27/71/1 1/1/1
f 1/1/1 5/5/1 33/72/1
f 6/6/1 2/2/1 28/73/1
f 28/73/1 40/74/1 6/6/1
f 19/39/11 14/48/11 11/49/11
f 11/49/11 12/42/11 19/39/11
f 9/9/14 37/21/14 39/30/14
f 39/57/14 7/76/14 9/75/14
f 10/78/15 8/77/15 35/70/15
f 35/29/15 38/18/15 10/10/15
f 11/13/16 34/24/16 33/23/16
f 33/33/16 5/80/16 11/79/16
f 43/83/17 42/82/17 41/81/17
f 41/81/17 44/84/17 43/83/17
f 47/87/18 46/86/18 45/85/18
f 45/85/18 48/88/18 47/87/18
f 48/91/19 45/90/19 49/89/19
f 49/89/19 50/92/19 48/91/19
f 50/92/11 49/89/11 51/93/11
f 51/93/11 52/94/11 50/92/11
f 51/93/20 42/96/20 43/95/20
f 43/95/20 52/94/20 51/93/20
f 54/99/21 53/98/21 44/97/21
f 44/97/21 41/100/21 54/99/21
f 56/103/22 55/102/22 46/101/22
f 46/101/22 47/104/22 56/103/22
f 55/107/23 57/106/23 45/105/23
f 45/105/23 46/108/23 55/107/23
f 58/111/24 54/110/24 41/109/24
f 41/109/24 42/112/24 58/111/24
f 53/115/25 59/114/25 43/113/25
f 43/113/25 44/116/25 53/115/25
f 60/119/26 56/118/26 47/117/26
f 47/117/26 48/120/26 60/119/26
f 57/106/27 61/17/27 49/121/27
f 49/121/27 45/105/27 57/106/27
f 62/22/28 58/111/28 42/112/28
f 42/112/28 51/122/28 62/22/28
f 61/17/29 62/22/29 51/122/29
f 51/122/29 49/121/29 61/17/29
f 64/32/30 63/31/30 50/123/30
f 50/123/30 52/124/30 64/32/30
f 63/31/31 60/119/31 48/120/31
f 48/120/31 50/123/31 63/31/31
f 59/114/32 64/32/32 52/124/32
f 52/124/32 43/113/32 59/114/32
f 28/63/17 25/58/17 53/125/17
f 53/125/17 54/126/17 28/63/17
f 21/69/18 27/34/18 55/127/18
f 55/127/18 56/128/18 21/69/18
f 27/34/18 16/130/18 57/129/18
f 57/129/18 55/127/18 27/34/18
f 17/131/17 28/63/17 54/126/17
f 54/126/17 58/132/17 17/131/17
f 25/58/17 26/134/17 59/133/17
f 59/133/17 53/125/17 25/58/17
f 23/135/18 21/69/18 56/128/18
f 56/128/18 60/136/18 23/135/18
f 16/139/33 13/138/33 61/137/33
f 61/137/33 57/140/33 16/139/33
f 20/143/34 17/142/34 58/141/34
f 58/141/34 62/144/34 20/143/34
f 13/138/11 20/143/11 62/144/11
f 62/144/11 61/137/11 13/138/11
f 32/147/11 29/146/11 63/145/11
f 63/145/11 64/148/11 32/147/11
f 29/146/35 23/150/35 60/149/35
f 60/149/35 63/145/35 29/146/35
f 26/151/36 32/147/36 64/148/36
f 64/148/36 59/152/36 26/151/36
f 25/55/1 28/73/1 2/2/1
f 2/2/1 3/3/1 25/55/1
f 4/4/1 1/1/1 27/71/1
f 27/71/1 21/37/1 4/4/1
f 67/155/37 66/154/37 65/153/37
f 66/154/37 67/155/37 68/156/37
f 69/157/38 67/155/38 65/153/38
f 67/155/38 69/157/38 70/158/38
f 70/158/39 71/159/39 67/155/39
f 71/159/39 70/158/39 72/160/39
f 71/159/40 68/156/40 67/155/40
f 68/156/40 71/159/40 73/161/40
f 68/164/41 74/163/41 66/162/41
f 74/163/41 68/164/41 75/165/41
f 73/166/42 75/165/42 68/164/42
f 75/165/42 73/166/42 76/167/42
f 74/163/43 70/169/43 69/168/43
f 70/169/43 74/163/43 75/165/43
f 75/165/44 72/170/44 70/169/44
f 72/170/44 75/165/44 76/167/44
f 75/173/45 67/172/45 68/171/45
f 67/172/45 75/173/45 70/174/45
f 74/177/45 65/176/45 66/175/45
f 65/176/45 74/177/45 69/178/45
f 79/177/45 78/176/45 77/175/45
f 78/176/45 79/177/45 80/178/45
f 77/181/46 78/180/46 79/179/46
f 80/182/46 79/179/46 78/180/46
f 81/183/47 73/161/47 71/159/47
f 73/161/47 81/183/47 82/184/47
f 82/185/48 76/167/48 73/166/48
f 76/167/48 82/185/48 83/186/48
f 76/167/49 84/187/49 72/170/49
f 84/187/49 76/167/49 83/186/49
f 72/160/50 81/183/50 71/159/50
f 81/183/50 72/160/50 84/188/50
f 83/186/51 80/189/51 84/187/51
f 80/189/51 83/186/51 79/190/51
f 84/188/47 80/191/47 83/183/47
f 79/192/47 83/183/47 80/191/47
f 84/188/52 78/192/52 81/183/52
f 78/192/52 84/188/52 80/191/52
f 81/186/48 78/190/48 84/187/48
f 80/189/48 84/187/48 78/190/48
f 78/192/53 82/184/53 81/183/53
f 82/184/53 78/192/53 77/193/53
f 81/186/49 82/185/49 78/190/49
f 77/194/49 78/190/49 82/185/49
f 77/194/54 83/186/54 82/185/54
f 83/186/54 77/194/54 79/190/54
f 82/184/50 83/183/50 77/193/50
f 79/192/50 77/193/50 83/183/50

