# Created by Kenney (www.kenney.nl)

mtllib Book1.mtl

g mergedBlocks

v -1.1714 0.200899 -2.270825
v -1.1714 0.200899 -2.299175
v -1.234401 0.200899 -2.270825
v -1.2344 0.200899 -2.299175
v -1.234401 0.4541257 -2.2661
v -1.1714 0.4541257 -2.2661
v -1.234401 0.2370743 -2.2661
v -1.1714 0.2370743 -2.2661
v -1.2449 0.4541257 -2.270825
v -1.2449 0.2370743 -2.270825
v -1.2449 0.4541257 -2.299175
v -1.2449 0.2370743 -2.299175
v -1.1714 0.490301 -2.299175
v -1.1714 0.490301 -2.270825
v -1.2344 0.490301 -2.299175
v -1.234401 0.490301 -2.270825
v -1.1609 0.2370743 -2.270825
v -1.1609 0.4541257 -2.270825
v -1.1609 0.2370743 -2.299175
v -1.1609 0.4541257 -2.299175
v -1.1714 0.4541257 -2.3039
v -1.2344 0.4541257 -2.3039
v -1.1714 0.2370743 -2.3039
v -1.2344 0.2370743 -2.3039
v -1.21865 0.198299 -2.115387
v -1.21865 0.198299 -2.277013
v -1.24115 0.198299 -2.115387
v -1.24115 0.198299 -2.277013
v -1.24115 0.4566007 -2.088449
v -1.21865 0.4566007 -2.088449
v -1.24115 0.2351993 -2.088449
v -1.21865 0.2351993 -2.088449
v -1.2449 0.4566007 -2.115387
v -1.2449 0.2351993 -2.115387
v -1.2449 0.4566007 -2.277013
v -1.2449 0.2351993 -2.277013
v -1.21865 0.4935009 -2.277013
v -1.21865 0.4935009 -2.115387
v -1.24115 0.4935009 -2.277013
v -1.24115 0.4935009 -2.115387
v -1.2149 0.2351993 -2.115387
v -1.2149 0.4566007 -2.115387
v -1.2149 0.2351993 -2.277013
v -1.2149 0.4566007 -2.277013
v -1.21865 0.4566007 -2.303951
v -1.24115 0.4566007 -2.303951
v -1.21865 0.2351993 -2.303951
v -1.24115 0.2351993 -2.303951
v -1.15865 0.1982994 -2.115387
v -1.15865 0.1982994 -2.277013
v -1.18115 0.1982994 -2.115387
v -1.18115 0.1982994 -2.277013
v -1.18115 0.4566005 -2.088449
v -1.15865 0.4566005 -2.088449
v -1.18115 0.2351995 -2.088449
v -1.15865 0.2351995 -2.088449
v -1.1849 0.4566005 -2.115387
v -1.1849 0.2351995 -2.115387
v -1.1849 0.4566005 -2.277013
v -1.1849 0.2351995 -2.277013
v -1.15865 0.4935006 -2.277013
v -1.15865 0.4935006 -2.115387
v -1.18115 0.4935006 -2.277013
v -1.18115 0.4935006 -2.115387
v -1.1549 0.2351995 -2.115387
v -1.1549 0.4566005 -2.115387
v -1.1549 0.2351995 -2.277013
v -1.1549 0.4566005 -2.277013
v -1.15865 0.4566005 -2.303951
v -1.18115 0.4566005 -2.303951
v -1.15865 0.2351995 -2.303951
v -1.18115 0.2351995 -2.303951
v -1.1645 0.2040988 -2.112599
v -1.1645 0.4877012 -2.112599
v -1.1645 0.2040988 -2.268001
v -1.1645 0.4877012 -2.268001
v -1.2233 0.4877012 -2.268001
v -1.2233 0.2040988 -2.268001
v -1.223301 0.4877012 -2.112599
v -1.223301 0.2040988 -2.1126

vn 1.192093E-07 -1 2.273736E-13
vn -1.788139E-06 -1.192093E-07 1
vn -1 2.273736E-13 -1.907349E-06
vn -1.192093E-07 1 -2.273736E-13
vn 1 -2.273736E-13 1.907349E-06
vn 1.788139E-06 1.192093E-07 -1
vn -0.4074861 0.1182745 0.9055198
vn -1.788518E-06 0.1295148 0.9915774
vn 0.9603635 0.2787507 1.831748E-06
vn 0.4074829 0.1182745 0.9055213
vn 0.4103633 -1.087096E-07 0.911922
vn -0.4103666 -1.087094E-07 0.9119207
vn -0.4074861 -0.1182747 0.9055198
vn -1.757639E-06 -0.129515 0.9915774
vn 0.4074829 -0.1182747 0.9055213
vn -0.9603635 -0.2787507 -1.831748E-06
vn -0.4074829 -0.1182745 -0.9055213
vn 0.4103666 1.087094E-07 -0.9119207
vn 0.9603635 -0.2787507 1.831748E-06
vn 1.788518E-06 -0.1295148 -0.9915774
vn 0.4074861 -0.1182745 -0.9055198
vn 0.4074861 0.1182747 -0.9055198
vn 1.757639E-06 0.129515 -0.9915774
vn -0.4103633 1.087096E-07 -0.911922
vn -0.9603635 0.2787507 -1.831748E-06
vn -0.4074829 0.1182747 -0.9055213
vn 1.192093E-07 -1 2.273736E-13
vn -1.788139E-06 -1.192093E-07 1
vn -1 2.273736E-13 -1.907348E-06
vn -1.192093E-07 1 -2.273736E-13
vn 1 -2.273736E-13 1.907348E-06
vn 1.788139E-06 1.192093E-07 -1
vn -0.9854695 0.1001494 0.1371863
vn -1.514534E-06 0.5896195 0.8076811
vn 0.9948757 0.1011054 1.897575E-06
vn 0.9854689 0.1001494 0.13719
vn 0.9904485 -1.643696E-08 0.1378832
vn -0.990449 -1.643651E-08 0.1378795
vn -0.9854695 -0.1001495 0.1371863
vn -1.373958E-06 -0.5896197 0.807681
vn 0.9854689 -0.1001495 0.13719
vn -0.9948757 -0.1011054 -1.897575E-06
vn -0.9854689 -0.1001494 -0.13719
vn 0.990449 1.643651E-08 -0.1378795
vn 0.9948757 -0.1011054 1.897575E-06
vn 1.514534E-06 -0.5896195 -0.8076811
vn 0.9854695 -0.1001494 -0.1371863
vn 0.9854695 0.1001495 -0.1371863
vn 1.373958E-06 0.5896197 -0.807681
vn -0.9904485 1.643696E-08 -0.1378832
vn -0.9948757 0.1011054 -1.897575E-06
vn -0.9854689 0.1001495 -0.13719
vn -0.9854695 0.1001494 0.1371863
vn -1.514535E-06 0.5896192 0.8076815
vn 0.9948757 0.1011053 1.897575E-06
vn 0.9854689 0.1001494 0.1371901
vn 0.9904485 -1.643697E-08 0.1378833
vn -0.990449 -1.643652E-08 0.1378795
vn -0.9854695 -0.1001494 0.1371863
vn -1.373959E-06 -0.5896193 0.8076813
vn 0.9854689 -0.1001494 0.1371901
vn -0.9948757 -0.1011053 -1.897575E-06
vn -0.9854689 -0.1001494 -0.1371901
vn 0.990449 1.643652E-08 -0.1378795
vn 0.9948757 -0.1011053 1.897575E-06
vn 1.514535E-06 -0.5896192 -0.8076815
vn 0.9854695 -0.1001494 -0.1371863
vn 0.9854695 0.1001494 -0.1371863
vn 1.373959E-06 0.5896193 -0.8076813
vn -0.9904485 1.643697E-08 -0.1378833
vn -0.9948757 0.1011053 -1.897575E-06
vn -0.9854689 0.1001494 -0.1371901
vn -1.192093E-07 1 -2.273736E-13
vn 1.192093E-07 -1 2.273736E-13

vt 0.7586502 2.115386
vt 0.7586499 2.277013
vt 0.7811504 2.115386
vt 0.7811501 2.277013
vt -0.7811505 0.4566009
vt -0.7586502 0.4566009
vt -0.7811505 0.235199
vt -0.7586502 0.235199
vt -2.115386 0.4566009
vt -2.115386 0.235199
vt -2.277013 0.4566009
vt -2.277013 0.235199
vt 0.7586499 -2.277013
vt 0.7586502 -2.115386
vt 0.7811501 -2.277013
vt 0.7811504 -2.115386
vt 2.115386 0.235199
vt 2.115386 0.4566009
vt 2.277013 0.235199
vt 2.277013 0.4566009
vt 0.7586498 0.4566009
vt 0.78115 0.4566009
vt 0.7586498 0.235199
vt 0.78115 0.235199
vt -2.115386 0.4935012
vt -2.088449 0.4566009
vt -0.7586502 0.4935012
vt -0.7811504 0.4935012
vt 2.115386 0.4935012
vt 2.277013 0.4935012
vt 2.088449 0.4566009
vt 2.088449 0.235199
vt -2.088449 0.235199
vt -2.115386 0.1982987
vt -0.7586502 0.1982987
vt -0.7811504 0.1982987
vt 2.115386 0.1982987
vt -2.277013 0.1982987
vt -2.303951 0.235199
vt 2.303951 0.4566009
vt 2.303951 0.235199
vt 2.277013 0.1982987
vt 0.7586499 0.1982987
vt 0.7811501 0.1982987
vt 0.7586499 0.4935012
vt 0.7811501 0.4935012
vt -2.303951 0.4566009
vt -2.277013 0.4935012
vt 2.112599 0.2040986
vt 2.112599 0.4877014
vt 2.268001 0.2040986
vt 2.268001 0.4877014
vt 0.7644999 0.4877014
vt 0.8233005 0.4877014
vt 0.7644999 0.2040986
vt 0.8233005 0.2040986
vt 0.7644999 -2.268001
vt 0.7645001 -2.112599
vt 0.8233005 -2.268001
vt 0.8233008 -2.112599
vt 0.7645001 2.112599
vt 0.7644999 2.268001
vt 0.8233008 2.112599
vt 0.8233005 2.268001
vt -0.8233008 0.4877014
vt -0.7645001 0.4877014
vt -0.8233008 0.2040986
vt -0.7645001 0.2040986
vt -2.112599 0.4877014
vt -2.112599 0.2040986
vt -2.268001 0.4877014
vt -2.268001 0.2040986

usemtl woodDark

f 3/3/1 2/2/1 1/1/1
f 2/2/1 3/3/1 4/4/1
f 7/7/2 6/6/2 5/5/2
f 6/6/2 7/7/2 8/8/2
f 11/11/3 10/10/3 9/9/3
f 10/10/3 11/11/3 12/12/3
f 15/15/4 14/14/4 13/13/4
f 14/14/4 15/15/4 16/16/4
f 19/19/5 18/18/5 17/17/5
f 18/18/5 19/19/5 20/20/5
f 23/23/6 22/22/6 21/21/6
f 22/22/6 23/23/6 24/24/6
f 9/9/7 5/26/7 16/25/7
f 16/28/8 6/6/8 14/27/8
f 6/6/8 16/28/8 5/5/8
f 20/20/9 14/29/9 18/18/9
f 14/29/9 20/20/9 13/30/9
f 14/29/10 6/31/10 18/18/10
f 17/17/11 6/31/11 8/32/11
f 6/31/11 17/17/11 18/18/11
f 9/9/12 7/33/12 5/26/12
f 7/33/12 9/9/12 10/10/12
f 10/10/13 3/34/13 7/33/13
f 7/7/14 1/35/14 8/8/14
f 1/35/14 7/7/14 3/36/14
f 1/37/15 17/17/15 8/32/15
f 10/10/16 4/38/16 3/34/16
f 4/38/16 10/10/16 12/12/16
f 4/38/17 12/12/17 24/39/17
f 19/19/18 21/40/18 20/20/18
f 21/40/18 19/19/18 23/41/18
f 1/37/19 19/19/19 17/17/19
f 19/19/19 1/37/19 2/42/19
f 2/43/20 24/24/20 23/23/20
f 24/24/20 2/43/20 4/44/20
f 2/42/21 23/41/21 19/19/21
f 21/40/22 13/30/22 20/20/22
f 21/21/23 15/46/23 13/45/23
f 15/46/23 21/21/23 22/22/23
f 24/39/24 11/11/24 22/47/24
f 11/11/24 24/39/24 12/12/24
f 15/48/25 9/9/25 16/25/25
f 9/9/25 15/48/25 11/11/25
f 11/11/26 15/48/26 22/47/26
f 27/3/27 26/2/27 25/1/27
f 26/2/27 27/3/27 28/4/27
f 31/7/28 30/6/28 29/5/28
f 30/6/28 31/7/28 32/8/28
f 35/11/29 34/10/29 33/9/29
f 34/10/29 35/11/29 36/12/29
f 39/15/30 38/14/30 37/13/30
f 38/14/30 39/15/30 40/16/30
f 43/19/31 42/18/31 41/17/31
f 42/18/31 43/19/31 44/20/31
f 47/23/32 46/22/32 45/21/32
f 46/22/32 47/23/32 48/24/32
f 33/9/33 29/26/33 40/25/33
f 40/28/34 30/6/34 38/27/34
f 30/6/34 40/28/34 29/5/34
f 44/20/35 38/29/35 42/18/35
f 38/29/35 44/20/35 37/30/35
f 38/29/36 30/31/36 42/18/36
f 41/17/37 30/31/37 32/32/37
f 30/31/37 41/17/37 42/18/37
f 33/9/38 31/33/38 29/26/38
f 31/33/38 33/9/38 34/10/38
f 34/10/39 27/34/39 31/33/39
f 31/7/40 25/35/40 32/8/40
f 25/35/40 31/7/40 27/36/40
f 25/37/41 41/17/41 32/32/41
f 34/10/42 28/38/42 27/34/42
f 28/38/42 34/10/42 36/12/42
f 28/38/43 36/12/43 48/39/43
f 43/19/44 45/40/44 44/20/44
f 45/40/44 43/19/44 47/41/44
f 25/37/45 43/19/45 41/17/45
f 43/19/45 25/37/45 26/42/45
f 26/43/46 48/24/46 47/23/46
f 48/24/46 26/43/46 28/44/46
f 26/42/47 47/41/47 43/19/47
f 45/40/48 37/30/48 44/20/48
f 45/21/49 39/46/49 37/45/49
f 39/46/49 45/21/49 46/22/49
f 48/39/50 35/11/50 46/47/50
f 35/11/50 48/39/50 36/12/50
f 39/48/51 33/9/51 40/25/51
f 33/9/51 39/48/51 35/11/51
f 35/11/52 39/48/52 46/47/52
f 51/3/27 50/2/27 49/1/27
f 50/2/27 51/3/27 52/4/27
f 55/7/28 54/6/28 53/5/28
f 54/6/28 55/7/28 56/8/28
f 59/11/29 58/10/29 57/9/29
f 58/10/29 59/11/29 60/12/29
f 63/15/30 62/14/30 61/13/30
f 62/14/30 63/15/30 64/16/30
f 67/19/31 66/18/31 65/17/31
f 66/18/31 67/19/31 68/20/31
f 71/23/32 70/22/32 69/21/32
f 70/22/32 71/23/32 72/24/32
f 57/9/53 53/26/53 64/25/53
f 64/28/54 54/6/54 62/27/54
f 54/6/54 64/28/54 53/5/54
f 68/20/55 62/29/55 66/18/55
f 62/29/55 68/20/55 61/30/55
f 62/29/56 54/31/56 66/18/56
f 65/17/57 54/31/57 56/32/57
f 54/31/57 65/17/57 66/18/57
f 57/9/58 55/33/58 53/26/58
f 55/33/58 57/9/58 58/10/58
f 58/10/59 51/34/59 55/33/59
f 55/7/60 49/35/60 56/8/60
f 49/35/60 55/7/60 51/36/60
f 49/37/61 65/17/61 56/32/61
f 58/10/62 52/38/62 51/34/62
f 52/38/62 58/10/62 60/12/62
f 52/38/63 60/12/63 72/39/63
f 67/19/64 69/40/64 68/20/64
f 69/40/64 67/19/64 71/41/64
f 49/37/65 67/19/65 65/17/65
f 67/19/65 49/37/65 50/42/65
f 50/43/66 72/24/66 71/23/66
f 72/24/66 50/43/66 52/44/66
f 50/42/67 71/41/67 67/19/67
f 69/40/68 61/30/68 68/20/68
f 69/21/69 63/46/69 61/45/69
f 63/46/69 69/21/69 70/22/69
f 72/39/70 59/11/70 70/47/70
f 59/11/70 72/39/70 60/12/70
f 63/48/71 57/9/71 64/25/71
f 57/9/71 63/48/71 59/11/71
f 59/11/72 63/48/72 70/47/72

usemtl _defaultMat

f 75/51/31 74/50/31 73/49/31
f 74/50/31 75/51/31 76/52/31
f 75/55/6 77/54/6 76/53/6
f 77/54/6 75/55/6 78/56/6
f 77/59/73 74/58/73 76/57/73
f 74/58/73 77/59/73 79/60/73
f 80/63/74 75/62/74 73/61/74
f 75/62/74 80/63/74 78/64/74
f 80/67/2 74/66/2 79/65/2
f 74/66/2 80/67/2 73/68/2
f 77/71/29 80/70/29 79/69/29
f 80/70/29 77/71/29 78/72/29

