# Created by Kenney (www.kenney.nl)

mtllib Book5.mtl

g mergedBlocks

v -0.2586502 0.1983 -2.115387
v -0.2586499 0.1983 -2.277012
v -0.2811502 0.1983 -2.115387
v -0.2811499 0.1983 -2.277012
v -0.2811502 0.4566 -2.08845
v -0.2586502 0.4566 -2.08845
v -0.2811502 0.2352 -2.08845
v -0.2586502 0.2352 -2.08845
v -0.2849002 0.4566 -2.115387
v -0.2849002 0.2352 -2.115387
v -0.2848999 0.4566 -2.277012
v -0.2848999 0.2352 -2.277013
v -0.2586499 0.4935 -2.277012
v -0.2586502 0.4935 -2.115387
v -0.2811499 0.4935 -2.277012
v -0.2811502 0.4935 -2.115387
v -0.2549002 0.2352 -2.115387
v -0.2549002 0.4566 -2.115387
v -0.2548999 0.2352 -2.277012
v -0.2548999 0.4566 -2.277012
v -0.2586498 0.4566 -2.30395
v -0.2811498 0.4566 -2.30395
v -0.2586498 0.2352 -2.30395
v -0.2811498 0.2352 -2.30395
v -0.3186502 0.1983 -2.115387
v -0.3186499 0.1983 -2.277012
v -0.3411502 0.1983 -2.115387
v -0.3411499 0.1983 -2.277012
v -0.3411502 0.4566 -2.08845
v -0.3186502 0.4566 -2.08845
v -0.3411502 0.2352 -2.08845
v -0.3186502 0.2352 -2.08845
v -0.3449002 0.4566 -2.115387
v -0.3449002 0.2352 -2.115387
v -0.3448999 0.4566 -2.277012
v -0.3448999 0.2352 -2.277013
v -0.3186499 0.4935 -2.277012
v -0.3186502 0.4935 -2.115387
v -0.3411499 0.4935 -2.277012
v -0.3411502 0.4935 -2.115387
v -0.3149002 0.2352 -2.115387
v -0.3149002 0.4566 -2.115387
v -0.3148999 0.2352 -2.277012
v -0.3148999 0.4566 -2.277012
v -0.3186498 0.4566 -2.30395
v -0.3411498 0.4566 -2.30395
v -0.3186498 0.2352 -2.30395
v -0.3411498 0.2352 -2.30395
v -0.2714 0.2009 -2.270825
v -0.2714 0.2009 -2.299175
v -0.3344 0.2009 -2.270825
v -0.3344 0.2009 -2.299175
v -0.3344 0.454125 -2.2661
v -0.2714 0.454125 -2.2661
v -0.3344 0.237075 -2.2661
v -0.2714 0.237075 -2.2661
v -0.3449 0.454125 -2.270825
v -0.3449 0.237075 -2.270825
v -0.3449 0.454125 -2.299175
v -0.3449 0.237075 -2.299175
v -0.2714 0.4903 -2.299175
v -0.2714 0.4903 -2.270825
v -0.3344 0.4903 -2.299175
v -0.3344 0.4903 -2.270825
v -0.2609 0.237075 -2.270825
v -0.2609 0.454125 -2.270825
v -0.2609 0.237075 -2.299175
v -0.2609 0.454125 -2.299175
v -0.2713999 0.454125 -2.3039
v -0.3344 0.454125 -2.3039
v -0.2713999 0.237075 -2.3039
v -0.3344 0.237075 -2.3039
v -0.2645001 0.2041 -2.1126
v -0.2645001 0.4877 -2.1126
v -0.2644998 0.2041 -2.268
v -0.2644998 0.4877 -2.268
v -0.3232999 0.4877 -2.268
v -0.3232999 0.2041 -2.268
v -0.3233002 0.4877 -2.1126
v -0.3233002 0.2041 -2.1126

vn 1.192093E-07 -1 2.273736E-13
vn -1.788139E-06 -1.192093E-07 1
vn -1 2.273736E-13 -1.907348E-06
vn -1.192093E-07 1 -2.273736E-13
vn 1 -2.273736E-13 1.907348E-06
vn 1.788139E-06 1.192093E-07 -1
vn -0.9854695 0.1001493 0.1371864
vn -1.514535E-06 0.5896186 0.8076817
vn 0.9948757 0.1011053 1.897575E-06
vn 0.9854689 0.1001493 0.1371902
vn 0.9904485 -1.643698E-08 0.1378834
vn -0.990449 -1.643653E-08 0.1378796
vn -0.9854695 -0.1001493 0.1371864
vn -1.373959E-06 -0.5896187 0.8076817
vn 0.9854689 -0.1001493 0.1371902
vn -0.9948757 -0.1011053 -1.897575E-06
vn -0.9854689 -0.1001493 -0.1371902
vn 0.990449 1.643653E-08 -0.1378796
vn 0.9948757 -0.1011053 1.897575E-06
vn 1.514535E-06 -0.5896186 -0.8076817
vn 0.9854695 -0.1001493 -0.1371864
vn 0.9854695 0.1001493 -0.1371864
vn 1.373959E-06 0.5896187 -0.8076817
vn -0.9904485 1.643698E-08 -0.1378834
vn -0.9948757 0.1011053 -1.897575E-06
vn -0.9854689 0.1001493 -0.1371902
vn 1.192093E-07 -1 2.273736E-13
vn -1.788139E-06 -1.192093E-07 1
vn -1 2.273736E-13 -1.907349E-06
vn -1.192093E-07 1 -2.273736E-13
vn 1 -2.273736E-13 1.907349E-06
vn 1.788139E-06 1.192093E-07 -1
vn -0.4074859 0.1182745 0.9055199
vn -1.788518E-06 0.1295148 0.9915775
vn 0.9603634 0.2787509 1.831748E-06
vn 0.4074827 0.1182745 0.9055214
vn 0.410363 -1.087096E-07 0.9119222
vn -0.4103663 -1.087094E-07 0.9119207
vn -0.4074859 -0.1182747 0.9055199
vn -1.757639E-06 -0.1295151 0.9915774
vn 0.4074827 -0.1182747 0.9055214
vn -0.9603634 -0.2787509 -1.831748E-06
vn -0.4074827 -0.1182745 -0.9055214
vn 0.4103663 1.087094E-07 -0.9119207
vn 0.9603634 -0.2787509 1.831748E-06
vn 1.788518E-06 -0.1295148 -0.9915775
vn 0.4074859 -0.1182745 -0.9055199
vn 0.4074859 0.1182747 -0.9055199
vn 1.757639E-06 0.1295151 -0.9915774
vn -0.410363 1.087096E-07 -0.9119222
vn -0.9603634 0.2787509 -1.831748E-06
vn -0.4074827 0.1182747 -0.9055214
vn 1.788139E-06 1.192093E-07 -1
vn -1.192093E-07 1 -2.273736E-13
vn 1.192093E-07 -1 2.273736E-13
vn -1.788139E-06 -1.192093E-07 1

vt 0.7586502 2.115386
vt 0.7586499 2.277013
vt 0.7811504 2.115386
vt 0.7811501 2.277013
vt -0.7811505 0.4566009
vt -0.7586502 0.4566009
vt -0.7811505 0.235199
vt -0.7586502 0.235199
vt -2.115386 0.4566009
vt -2.115386 0.235199
vt -2.277013 0.4566009
vt -2.277013 0.235199
vt 0.7586499 -2.277013
vt 0.7586502 -2.115386
vt 0.7811501 -2.277013
vt 0.7811504 -2.115386
vt 2.115386 0.235199
vt 2.115386 0.4566009
vt 2.277013 0.235199
vt 2.277013 0.4566009
vt 0.7586498 0.4566009
vt 0.78115 0.4566009
vt 0.7586498 0.235199
vt 0.78115 0.235199
vt -2.115386 0.4935012
vt -2.088449 0.4566009
vt -0.7586502 0.4935012
vt -0.7811504 0.4935012
vt 2.115386 0.4935012
vt 2.277013 0.4935012
vt 2.088449 0.4566009
vt 2.088449 0.235199
vt -2.088449 0.235199
vt -2.115386 0.1982987
vt -0.7586502 0.1982987
vt -0.7811504 0.1982987
vt 2.115386 0.1982987
vt -2.277013 0.1982987
vt -2.303951 0.235199
vt 2.303951 0.4566009
vt 2.303951 0.235199
vt 2.277013 0.1982987
vt 0.7586499 0.1982987
vt 0.7811501 0.1982987
vt 0.7586499 0.4935012
vt 0.7811501 0.4935012
vt -2.303951 0.4566009
vt -2.277013 0.4935012
vt 2.112599 0.2040986
vt 2.112599 0.4877014
vt 2.268001 0.2040986
vt 2.268001 0.4877014
vt 0.7644999 0.4877014
vt 0.8233005 0.4877014
vt 0.7644999 0.2040986
vt 0.8233005 0.2040986
vt 0.7644999 -2.268001
vt 0.7645001 -2.112599
vt 0.8233005 -2.268001
vt 0.8233008 -2.112599
vt 0.7645001 2.112599
vt 0.7644999 2.268001
vt 0.8233008 2.112599
vt 0.8233005 2.268001
vt -0.8233008 0.4877014
vt -0.7645001 0.4877014
vt -0.8233008 0.2040986
vt -0.7645001 0.2040986
vt -2.112599 0.4877014
vt -2.112599 0.2040986
vt -2.268001 0.4877014
vt -2.268001 0.2040986

usemtl initialShadingGroup

f 3/3/1 2/2/1 1/1/1
f 2/2/1 3/3/1 4/4/1
f 7/7/2 6/6/2 5/5/2
f 6/6/2 7/7/2 8/8/2
f 11/11/3 10/10/3 9/9/3
f 10/10/3 11/11/3 12/12/3
f 15/15/4 14/14/4 13/13/4
f 14/14/4 15/15/4 16/16/4
f 19/19/5 18/18/5 17/17/5
f 18/18/5 19/19/5 20/20/5
f 23/23/6 22/22/6 21/21/6
f 22/22/6 23/23/6 24/24/6
f 9/9/7 5/26/7 16/25/7
f 16/28/8 6/6/8 14/27/8
f 6/6/8 16/28/8 5/5/8
f 20/20/9 14/29/9 18/18/9
f 14/29/9 20/20/9 13/30/9
f 14/29/10 6/31/10 18/18/10
f 17/17/11 6/31/11 8/32/11
f 6/31/11 17/17/11 18/18/11
f 9/9/12 7/33/12 5/26/12
f 7/33/12 9/9/12 10/10/12
f 10/10/13 3/34/13 7/33/13
f 7/7/14 1/35/14 8/8/14
f 1/35/14 7/7/14 3/36/14
f 1/37/15 17/17/15 8/32/15
f 10/10/16 4/38/16 3/34/16
f 4/38/16 10/10/16 12/12/16
f 4/38/17 12/12/17 24/39/17
f 19/19/18 21/40/18 20/20/18
f 21/40/18 19/19/18 23/41/18
f 1/37/19 19/19/19 17/17/19
f 19/19/19 1/37/19 2/42/19
f 2/43/20 24/24/20 23/23/20
f 24/24/20 2/43/20 4/44/20
f 2/42/21 23/41/21 19/19/21
f 21/40/22 13/30/22 20/20/22
f 21/21/23 15/46/23 13/45/23
f 15/46/23 21/21/23 22/22/23
f 24/39/24 11/11/24 22/47/24
f 11/11/24 24/39/24 12/12/24
f 15/48/25 9/9/25 16/25/25
f 9/9/25 15/48/25 11/11/25
f 11/11/26 15/48/26 22/47/26
f 27/3/1 26/2/1 25/1/1
f 26/2/1 27/3/1 28/4/1
f 31/7/2 30/6/2 29/5/2
f 30/6/2 31/7/2 32/8/2
f 35/11/3 34/10/3 33/9/3
f 34/10/3 35/11/3 36/12/3
f 39/15/4 38/14/4 37/13/4
f 38/14/4 39/15/4 40/16/4
f 43/19/5 42/18/5 41/17/5
f 42/18/5 43/19/5 44/20/5
f 47/23/6 46/22/6 45/21/6
f 46/22/6 47/23/6 48/24/6
f 33/9/7 29/26/7 40/25/7
f 40/28/8 30/6/8 38/27/8
f 30/6/8 40/28/8 29/5/8
f 44/20/9 38/29/9 42/18/9
f 38/29/9 44/20/9 37/30/9
f 38/29/10 30/31/10 42/18/10
f 41/17/11 30/31/11 32/32/11
f 30/31/11 41/17/11 42/18/11
f 33/9/12 31/33/12 29/26/12
f 31/33/12 33/9/12 34/10/12
f 34/10/13 27/34/13 31/33/13
f 31/7/14 25/35/14 32/8/14
f 25/35/14 31/7/14 27/36/14
f 25/37/15 41/17/15 32/32/15
f 34/10/16 28/38/16 27/34/16
f 28/38/16 34/10/16 36/12/16
f 28/38/17 36/12/17 48/39/17
f 43/19/18 45/40/18 44/20/18
f 45/40/18 43/19/18 47/41/18
f 25/37/19 43/19/19 41/17/19
f 43/19/19 25/37/19 26/42/19
f 26/43/20 48/24/20 47/23/20
f 48/24/20 26/43/20 28/44/20
f 26/42/21 47/41/21 43/19/21
f 45/40/22 37/30/22 44/20/22
f 45/21/23 39/46/23 37/45/23
f 39/46/23 45/21/23 46/22/23
f 48/39/24 35/11/24 46/47/24
f 35/11/24 48/39/24 36/12/24
f 39/48/25 33/9/25 40/25/25
f 33/9/25 39/48/25 35/11/25
f 35/11/26 39/48/26 46/47/26
f 51/3/27 50/2/27 49/1/27
f 50/2/27 51/3/27 52/4/27
f 55/7/28 54/6/28 53/5/28
f 54/6/28 55/7/28 56/8/28
f 59/11/29 58/10/29 57/9/29
f 58/10/29 59/11/29 60/12/29
f 63/15/30 62/14/30 61/13/30
f 62/14/30 63/15/30 64/16/30
f 67/19/31 66/18/31 65/17/31
f 66/18/31 67/19/31 68/20/31
f 71/23/32 70/22/32 69/21/32
f 70/22/32 71/23/32 72/24/32
f 57/9/33 53/26/33 64/25/33
f 64/28/34 54/6/34 62/27/34
f 54/6/34 64/28/34 53/5/34
f 68/20/35 62/29/35 66/18/35
f 62/29/35 68/20/35 61/30/35
f 62/29/36 54/31/36 66/18/36
f 65/17/37 54/31/37 56/32/37
f 54/31/37 65/17/37 66/18/37
f 57/9/38 55/33/38 53/26/38
f 55/33/38 57/9/38 58/10/38
f 58/10/39 51/34/39 55/33/39
f 55/7/40 49/35/40 56/8/40
f 49/35/40 55/7/40 51/36/40
f 49/37/41 65/17/41 56/32/41
f 58/10/42 52/38/42 51/34/42
f 52/38/42 58/10/42 60/12/42
f 52/38/43 60/12/43 72/39/43
f 67/19/44 69/40/44 68/20/44
f 69/40/44 67/19/44 71/41/44
f 49/37/45 67/19/45 65/17/45
f 67/19/45 49/37/45 50/42/45
f 50/43/46 72/24/46 71/23/46
f 72/24/46 50/43/46 52/44/46
f 50/42/47 71/41/47 67/19/47
f 69/40/48 61/30/48 68/20/48
f 69/21/49 63/46/49 61/45/49
f 63/46/49 69/21/49 70/22/49
f 72/39/50 59/11/50 70/47/50
f 59/11/50 72/39/50 60/12/50
f 63/48/51 57/9/51 64/25/51
f 57/9/51 63/48/51 59/11/51
f 59/11/52 63/48/52 70/47/52

usemtl _defaultMat

f 75/51/5 74/50/5 73/49/5
f 74/50/5 75/51/5 76/52/5
f 75/55/53 77/54/53 76/53/53
f 77/54/53 75/55/53 78/56/53
f 77/59/54 74/58/54 76/57/54
f 74/58/54 77/59/54 79/60/54
f 80/63/55 75/62/55 73/61/55
f 75/62/55 80/63/55 78/64/55
f 80/67/56 74/66/56 79/65/56
f 74/66/56 80/67/56 73/68/56
f 77/71/3 80/70/3 79/69/3
f 80/70/3 77/71/3 78/72/3

