# Created by Kenney (www.kenney.nl)

mtllib Duct.mtl

g mergedBlocks

v -1.033494 0.86 -1.775
v -1.033494 0.5 -1.775
v -1.008519 0.86 -1.714705
v -1.008519 0.5 -1.714705
v -1 0.86 -1.65
v -1 0.5 -1.65
v -1.008519 0.86 -1.585295
v -1.008519 0.5 -1.585295
v -1.033494 0.86 -1.525
v -1.033494 0.5 -1.525
v -1.073223 0.5 -1.826777
v -1.073223 0.86 -1.826777
v -1.073223 0.86 -1.473223
v -1.073223 0.5 -1.473223
v -1.125 0.5 -1.433494
v -1.125 0.86 -1.433494
v -1.185295 0.5 -1.408519
v -1.185295 0.86 -1.408519
v -1.25 0.5 -1.4
v -1.25 0.86 -1.4
v -1.314705 0.5 -1.408519
v -1.314705 0.86 -1.408519
v -1.125 0.86 -1.866506
v -1.125 0.5 -1.866506
v -1.185295 0.86 -1.891481
v -1.185295 0.5 -1.891481
v -1.25 0.86 -1.9
v -1.25 0.5 -1.9
v -1.314705 0.86 -1.891481
v -1.314705 0.5 -1.891481
v -1.375 0.5 -1.433494
v -1.375 0.86 -1.433494
v -1.426777 0.5 -1.473223
v -1.426777 0.86 -1.473223
v -1.466506 0.86 -1.525
v -1.466506 0.5 -1.525
v -1.491481 0.86 -1.585295
v -1.491481 0.5 -1.585295
v -1.5 0.86 -1.65
v -1.5 0.5 -1.65
v -1.491481 0.86 -1.714705
v -1.491481 0.5 -1.714705
v -1.466506 0.86 -1.775
v -1.466506 0.5 -1.775
v -1.426777 0.86 -1.826777
v -1.426777 0.5 -1.826777
v -1.375 0.5 -1.866506
v -1.375 0.86 -1.866506
v -1.101705 0.5 -1.65
v -1.106758 0.5 -1.611618
v -1.121573 0.5 -1.575852
v -1.145139 0.5 -1.54514
v -1.175852 0.5 -1.521573
v -1.211618 0.5 -1.506758
v -1.25 0.5 -1.501705
v -1.288382 0.5 -1.506758
v -1.324148 0.5 -1.521573
v -1.354861 0.5 -1.54514
v -1.378427 0.5 -1.575852
v -1.393242 0.5 -1.611618
v -1.398295 0.5 -1.65
v -1.393242 0.5 -1.688382
v -1.378427 0.5 -1.724148
v -1.354861 0.5 -1.75486
v -1.324148 0.5 -1.778427
v -1.288382 0.5 -1.793242
v -1.25 0.5 -1.798295
v -1.211618 0.5 -1.793242
v -1.175852 0.5 -1.778427
v -1.145139 0.5 -1.75486
v -1.121573 0.5 -1.724148
v -1.106758 0.5 -1.688382
v -1.101705 0.86 -1.65
v -1.106758 0.86 -1.688382
v -1.121573 0.86 -1.724148
v -1.145139 0.86 -1.75486
v -1.175852 0.86 -1.778427
v -1.211618 0.86 -1.793242
v -1.25 0.86 -1.798295
v -1.288382 0.86 -1.793242
v -1.324148 0.86 -1.778427
v -1.354861 0.86 -1.75486
v -1.378427 0.86 -1.724148
v -1.393242 0.86 -1.688382
v -1.398295 0.86 -1.65
v -1.393242 0.86 -1.611618
v -1.378427 0.86 -1.575852
v -1.354861 0.86 -1.54514
v -1.324148 0.86 -1.521573
v -1.288382 0.86 -1.506758
v -1.25 0.86 -1.501705
v -1.211618 0.86 -1.506758
v -1.175852 0.86 -1.521573
v -1.145139 0.86 -1.54514
v -1.121573 0.86 -1.575852
v -1.106758 0.86 -1.611618
v -1.120096 0.86 -1.725
v -1.120096 0.5 -1.725
v -1.105111 0.86 -1.688823
v -1.105111 0.5 -1.688823
v -1.1 0.86 -1.65
v -1.1 0.5 -1.65
v -1.105111 0.86 -1.611177
v -1.105111 0.5 -1.611177
v -1.120096 0.86 -1.575
v -1.120096 0.5 -1.575
v -1.143934 0.5 -1.756066
v -1.143934 0.86 -1.756066
v -1.143934 0.86 -1.543934
v -1.143934 0.5 -1.543934
v -1.175 0.5 -1.520096
v -1.175 0.86 -1.520096
v -1.211177 0.5 -1.505111
v -1.211177 0.86 -1.505111
v -1.25 0.5 -1.5
v -1.25 0.86 -1.5
v -1.288823 0.5 -1.505111
v -1.288823 0.86 -1.505111
v -1.175 0.86 -1.779904
v -1.175 0.5 -1.779904
v -1.211177 0.86 -1.794889
v -1.211177 0.5 -1.794889
v -1.25 0.86 -1.8
v -1.25 0.5 -1.8
v -1.288823 0.86 -1.794889
v -1.288823 0.5 -1.794889
v -1.325 0.5 -1.520096
v -1.325 0.86 -1.520096
v -1.356066 0.5 -1.543934
v -1.356066 0.86 -1.543934
v -1.379904 0.86 -1.575
v -1.379904 0.5 -1.575
v -1.394889 0.86 -1.611177
v -1.394889 0.5 -1.611177
v -1.4 0.86 -1.65
v -1.4 0.5 -1.65
v -1.394889 0.86 -1.688823
v -1.394889 0.5 -1.688823
v -1.379904 0.86 -1.725
v -1.379904 0.5 -1.725
v -1.356066 0.86 -1.756066
v -1.356066 0.5 -1.756066
v -1.325 0.5 -1.779904
v -1.325 0.86 -1.779904
v -1.161023 0.5 -1.65
v -1.164055 0.5 -1.626971
v -1.172944 0.5 -1.605511
v -1.187084 0.5 -1.587084
v -1.205511 0.5 -1.572944
v -1.226971 0.5 -1.564055
v -1.25 0.5 -1.561023
v -1.273029 0.5 -1.564055
v -1.294489 0.5 -1.572944
v -1.312916 0.5 -1.587084
v -1.327056 0.5 -1.605511
v -1.335945 0.5 -1.626971
v -1.338977 0.5 -1.65
v -1.335945 0.5 -1.673029
v -1.327056 0.5 -1.694489
v -1.312916 0.5 -1.712916
v -1.294489 0.5 -1.727056
v -1.273029 0.5 -1.735945
v -1.25 0.5 -1.738977
v -1.226971 0.5 -1.735945
v -1.205511 0.5 -1.727056
v -1.187084 0.5 -1.712916
v -1.172944 0.5 -1.694489
v -1.164055 0.5 -1.673029
v -1.161023 0.86 -1.65
v -1.164055 0.86 -1.673029
v -1.172944 0.86 -1.694489
v -1.187084 0.86 -1.712916
v -1.205511 0.86 -1.727056
v -1.226971 0.86 -1.735945
v -1.25 0.86 -1.738977
v -1.273029 0.86 -1.735945
v -1.294489 0.86 -1.727056
v -1.312916 0.86 -1.712916
v -1.327056 0.86 -1.694489
v -1.335945 0.86 -1.673029
v -1.338977 0.86 -1.65
v -1.335945 0.86 -1.626971
v -1.327056 0.86 -1.605511
v -1.312916 0.86 -1.587084
v -1.294489 0.86 -1.572944
v -1.273029 0.86 -1.564055
v -1.25 0.86 -1.561023
v -1.226971 0.86 -1.564055
v -1.205511 0.86 -1.572944
v -1.187084 0.86 -1.587084
v -1.172944 0.86 -1.605511
v -1.164055 0.86 -1.626971

vn 0.8660254 0 -0.5
vn 0.9659259 0 -0.2588191
vn 1 0 0
vn 0.9659259 0 0.2588191
vn 0.8660254 0 0.5
vn 0.7071068 0 -0.7071068
vn 0.7071068 0 0.7071068
vn 0.5 0 0.8660254
vn 0.2588191 0 0.9659259
vn 0 0 1
vn -0.2588191 0 0.9659259
vn 0.5 0 -0.8660254
vn 0.2588191 0 -0.9659259
vn 0 0 -1
vn -0.2588191 0 -0.9659259
vn -0.5 0 0.8660254
vn -0.7071068 0 0.7071068
vn -0.8660254 0 0.5
vn -0.9659259 0 0.2588191
vn -1 0 0
vn -0.9659259 0 -0.2588191
vn -0.8660254 0 -0.5
vn -0.7071068 0 -0.7071068
vn -0.5 0 -0.8660254
vn 0 -1 0
vn 0 1 0
vn 0.8660254 0 -0.5
vn 0.8660254 0 0.5
vn 0.7071068 0 -0.7071068
vn 0.7071068 0 0.7071068
vn 0.5 0 0.8660254
vn 0.5 0 -0.8660254
vn -0.5 0 0.8660254
vn -0.7071068 0 0.7071068
vn -0.8660254 0 0.5
vn -0.8660254 0 -0.5
vn -0.7071068 0 -0.7071068
vn -0.5 0 -0.8660254

vt 1.725 0.86
vt 1.725 0.5
vt 1.688823 0.86
vt 1.688823 0.5
vt 1.65 0.86
vt 1.65 0.5
vt 1.611177 0.86
vt 1.611177 0.5
vt 1.575 0.86
vt 1.575 0.5
vt 1.756066 0.5
vt 1.756066 0.86
vt 1.543934 0.86
vt 1.543934 0.5
vt -1.153934 0.5
vt -1.185 0.5
vt -1.153934 0.86
vt -1.185 0.86
vt -1.221177 0.5
vt -1.221177 0.86
vt -1.26 0.5
vt -1.26 0.86
vt -1.298823 0.5
vt -1.298823 0.86
vt 1.153934 0.86
vt 1.185 0.86
vt 1.153934 0.5
vt 1.185 0.5
vt 1.221177 0.86
vt 1.221177 0.5
vt 1.26 0.86
vt 1.26 0.5
vt 1.298823 0.86
vt 1.298823 0.5
vt -1.335 0.5
vt -1.335 0.86
vt -1.366066 0.5
vt -1.366066 0.86
vt -1.543934 0.86
vt -1.543934 0.5
vt -1.575 0.86
vt -1.575 0.5
vt -1.611177 0.86
vt -1.611177 0.5
vt -1.65 0.86
vt -1.65 0.5
vt -1.688823 0.86
vt -1.688823 0.5
vt -1.725 0.86
vt -1.725 0.5
vt -1.756066 0.86
vt -1.756066 0.5
vt 1.366066 0.5
vt 1.335 0.5
vt 1.366066 0.86
vt 1.335 0.86
vt 1.153934 1.543934
vt 1.171023 1.65
vt 1.185 1.520096
vt 1.174055 1.626971
vt 1.182944 1.605511
vt 1.197084 1.587084
vt 1.221177 1.505111
vt 1.215511 1.572944
vt 1.236971 1.564055
vt 1.26 1.5
vt 1.26 1.561023
vt 1.298823 1.505111
vt 1.283029 1.564055
vt 1.304489 1.572944
vt 1.335 1.520096
vt 1.322916 1.587084
vt 1.337056 1.605511
vt 1.366066 1.543934
vt 1.345945 1.626971
vt 1.348977 1.65
vt 1.366066 1.756066
vt 1.345945 1.673029
vt 1.337056 1.694489
vt 1.335 1.779904
vt 1.322916 1.712916
vt 1.304489 1.727056
vt 1.298823 1.794889
vt 1.283029 1.735945
vt 1.26 1.8
vt 1.26 1.738977
vt 1.236971 1.735945
vt 1.221177 1.794889
vt 1.215511 1.727056
vt 1.197084 1.712916
vt 1.185 1.779904
vt 1.182944 1.694489
vt 1.174055 1.673029
vt 1.153934 1.756066
vt 1.130096 1.575
vt 1.130096 1.725
vt 1.115111 1.611177
vt 1.115111 1.688823
vt 1.11 1.65
vt 1.389904 1.575
vt 1.389904 1.725
vt 1.404889 1.611177
vt 1.404889 1.688823
vt 1.41 1.65
vt 1.11 -1.65
vt 1.115111 -1.611177
vt 1.115111 -1.688823
vt 1.130096 -1.725
vt 1.130096 -1.575
vt 1.153934 -1.756066
vt 1.153934 -1.543934
vt 1.185 -1.779904
vt 1.171023 -1.65
vt 1.174055 -1.673029
vt 1.182944 -1.694489
vt 1.197084 -1.712916
vt 1.221177 -1.794889
vt 1.215511 -1.727056
vt 1.236971 -1.735945
vt 1.26 -1.8
vt 1.26 -1.738977
vt 1.283029 -1.735945
vt 1.298823 -1.794889
vt 1.304489 -1.727056
vt 1.335 -1.779904
vt 1.322916 -1.712916
vt 1.337056 -1.694489
vt 1.366066 -1.756066
vt 1.345945 -1.673029
vt 1.348977 -1.65
vt 1.366066 -1.543934
vt 1.345945 -1.626971
vt 1.337056 -1.605511
vt 1.335 -1.520096
vt 1.322916 -1.587084
vt 1.304489 -1.572944
vt 1.298823 -1.505111
vt 1.283029 -1.564055
vt 1.26 -1.561023
vt 1.26 -1.5
vt 1.236971 -1.564055
vt 1.221177 -1.505111
vt 1.215511 -1.572944
vt 1.197084 -1.587084
vt 1.185 -1.520096
vt 1.182944 -1.605511
vt 1.174055 -1.626971
vt 1.389904 -1.725
vt 1.389904 -1.575
vt 1.404889 -1.688823
vt 1.404889 -1.611177
vt 1.41 -1.65
vt 1.215511 0.5
vt 1.197084 0.5
vt 1.215511 0.86
vt 1.197084 0.86
vt -1.587084 0.86
vt -1.587084 0.5
vt -1.605511 0.86
vt -1.605511 0.5
vt -1.626971 0.86
vt -1.626971 0.5
vt -1.673029 0.86
vt -1.673029 0.5
vt -1.694489 0.86
vt -1.694489 0.5
vt -1.712916 0.86
vt -1.712916 0.5
vt -1.197084 0.5
vt -1.215511 0.5
vt -1.197084 0.86
vt -1.215511 0.86
vt -1.236971 0.5
vt -1.236971 0.86
vt -1.283029 0.5
vt -1.283029 0.86
vt -1.304489 0.5
vt -1.304489 0.86
vt -1.322916 0.5
vt -1.322916 0.86
vt 1.712916 0.86
vt 1.712916 0.5
vt 1.694489 0.86
vt 1.694489 0.5
vt 1.673029 0.86
vt 1.673029 0.5
vt 1.626971 0.86
vt 1.626971 0.5
vt 1.605511 0.86
vt 1.605511 0.5
vt 1.587084 0.86
vt 1.587084 0.5
vt 1.322916 0.5
vt 1.304489 0.5
vt 1.322916 0.86
vt 1.304489 0.86
vt 1.283029 0.5
vt 1.283029 0.86
vt 1.236971 0.5
vt 1.236971 0.86

usemtl Iron_Grey_-_Dark

f 3/3/2 2/2/1 1/1/1
f 2/2/1 3/3/2 4/4/2
f 5/5/3 4/4/2 3/3/2
f 4/4/2 5/5/3 6/6/3
f 7/7/4 6/6/3 5/5/3
f 6/6/3 7/7/4 8/8/4
f 9/9/5 8/8/4 7/7/4
f 8/8/4 9/9/5 10/10/5
f 11/11/6 1/1/1 2/2/1
f 1/1/1 11/11/6 12/12/6
f 13/13/7 10/10/5 9/9/5
f 10/10/5 13/13/7 14/14/7
f 13/17/7 15/16/8 14/15/7
f 15/16/8 13/17/7 16/18/8
f 16/18/8 17/19/9 15/16/8
f 17/19/9 16/18/8 18/20/9
f 18/20/9 19/21/10 17/19/9
f 19/21/10 18/20/9 20/22/10
f 20/22/10 21/23/11 19/21/10
f 21/23/11 20/22/10 22/24/11
f 11/27/6 23/26/12 12/25/6
f 23/26/12 11/27/6 24/28/12
f 24/28/12 25/29/13 23/26/12
f 25/29/13 24/28/12 26/30/13
f 26/30/13 27/31/14 25/29/13
f 27/31/14 26/30/13 28/32/14
f 28/32/14 29/33/15 27/31/14
f 29/33/15 28/32/14 30/34/15
f 22/24/11 31/35/16 21/23/11
f 31/35/16 22/24/11 32/36/16
f 32/36/16 33/37/17 31/35/16
f 33/37/17 32/36/16 34/38/17
f 35/41/18 33/40/17 34/39/17
f 33/40/17 35/41/18 36/42/18
f 37/43/19 36/42/18 35/41/18
f 36/42/18 37/43/19 38/44/19
f 39/45/20 38/44/19 37/43/19
f 38/44/19 39/45/20 40/46/20
f 41/47/21 40/46/20 39/45/20
f 40/46/20 41/47/21 42/48/21
f 43/49/22 42/48/21 41/47/21
f 42/48/21 43/49/22 44/50/22
f 45/51/23 44/50/22 43/49/22
f 44/50/22 45/51/23 46/52/23
f 45/55/23 47/54/24 46/53/23
f 47/54/24 45/55/23 48/56/24
f 48/56/24 30/34/15 47/54/24
f 30/34/15 48/56/24 29/33/15
f 15/59/25 49/58/25 14/57/25
f 49/58/25 15/59/25 50/60/25
f 50/60/25 15/59/25 51/61/25
f 51/61/25 15/59/25 52/62/25
f 52/62/25 15/59/25 17/63/25
f 52/62/25 17/63/25 53/64/25
f 53/64/25 17/63/25 54/65/25
f 54/65/25 17/63/25 19/66/25
f 54/65/25 19/66/25 55/67/25
f 55/67/25 19/66/25 21/68/25
f 55/67/25 21/68/25 56/69/25
f 56/69/25 21/68/25 57/70/25
f 57/70/25 21/68/25 31/71/25
f 57/70/25 31/71/25 58/72/25
f 58/72/25 31/71/25 59/73/25
f 59/73/25 31/71/25 33/74/25
f 59/73/25 33/74/25 60/75/25
f 60/75/25 33/74/25 61/76/25
f 46/77/25 61/76/25 33/74/25
f 46/77/25 62/78/25 61/76/25
f 46/77/25 63/79/25 62/78/25
f 47/80/25 63/79/25 46/77/25
f 47/80/25 64/81/25 63/79/25
f 47/80/25 65/82/25 64/81/25
f 30/83/25 65/82/25 47/80/25
f 30/83/25 66/84/25 65/82/25
f 28/85/25 66/84/25 30/83/25
f 28/85/25 67/86/25 66/84/25
f 28/85/25 68/87/25 67/86/25
f 26/88/25 68/87/25 28/85/25
f 26/88/25 69/89/25 68/87/25
f 26/88/25 70/90/25 69/89/25
f 24/91/25 70/90/25 26/88/25
f 24/91/25 71/92/25 70/90/25
f 24/91/25 72/93/25 71/92/25
f 24/91/25 49/58/25 72/93/25
f 24/91/25 14/57/25 49/58/25
f 11/94/25 14/57/25 24/91/25
f 11/94/25 10/95/25 14/57/25
f 2/96/25 10/95/25 11/94/25
f 2/96/25 8/97/25 10/95/25
f 4/98/25 8/97/25 2/96/25
f 8/97/25 4/98/25 6/99/25
f 46/77/25 33/74/25 36/100/25
f 46/77/25 36/100/25 44/101/25
f 44/101/25 36/100/25 38/102/25
f 44/101/25 38/102/25 42/103/25
f 42/103/25 38/102/25 40/104/25
f 3/107/26 7/106/26 5/105/26
f 7/106/26 3/107/26 1/108/26
f 7/106/26 1/108/26 9/109/26
f 9/109/26 1/108/26 12/110/26
f 9/109/26 12/110/26 13/111/26
f 13/111/26 12/110/26 23/112/26
f 13/111/26 23/112/26 73/113/26
f 73/113/26 23/112/26 74/114/26
f 74/114/26 23/112/26 75/115/26
f 75/115/26 23/112/26 76/116/26
f 76/116/26 23/112/26 25/117/26
f 76/116/26 25/117/26 77/118/26
f 77/118/26 25/117/26 78/119/26
f 78/119/26 25/117/26 27/120/26
f 78/119/26 27/120/26 79/121/26
f 79/121/26 27/120/26 80/122/26
f 80/122/26 27/120/26 29/123/26
f 80/122/26 29/123/26 81/124/26
f 81/124/26 29/123/26 48/125/26
f 81/124/26 48/125/26 82/126/26
f 82/126/26 48/125/26 83/127/26
f 83/127/26 48/125/26 45/128/26
f 83/127/26 45/128/26 84/129/26
f 84/129/26 45/128/26 85/130/26
f 34/131/26 85/130/26 45/128/26
f 34/131/26 86/132/26 85/130/26
f 34/131/26 87/133/26 86/132/26
f 32/134/26 87/133/26 34/131/26
f 32/134/26 88/135/26 87/133/26
f 32/134/26 89/136/26 88/135/26
f 22/137/26 89/136/26 32/134/26
f 22/137/26 90/138/26 89/136/26
f 22/137/26 91/139/26 90/138/26
f 20/140/26 91/139/26 22/137/26
f 20/140/26 92/141/26 91/139/26
f 18/142/26 92/141/26 20/140/26
f 18/142/26 93/143/26 92/141/26
f 18/142/26 94/144/26 93/143/26
f 16/145/26 94/144/26 18/142/26
f 16/145/26 95/146/26 94/144/26
f 16/145/26 96/147/26 95/146/26
f 16/145/26 73/113/26 96/147/26
f 73/113/26 16/145/26 13/111/26
f 34/131/26 45/128/26 43/148/26
f 34/131/26 43/148/26 35/149/26
f 35/149/26 43/148/26 41/150/26
f 35/149/26 41/150/26 37/151/26
f 37/151/26 41/150/26 39/152/26
f 93/155/24 52/154/23 53/153/24
f 52/154/23 93/155/24 94/156/23
f 95/159/22 52/158/23 94/157/23
f 52/158/23 95/159/22 51/160/22
f 96/161/21 51/160/22 95/159/22
f 51/160/22 96/161/21 50/162/21
f 73/45/20 50/162/21 96/161/21
f 50/162/21 73/45/20 49/46/20
f 74/163/19 49/46/20 73/45/20
f 49/46/20 74/163/19 72/164/19
f 75/165/18 72/164/19 74/163/19
f 72/164/19 75/165/18 71/166/18
f 76/167/17 71/166/18 75/165/18
f 71/166/18 76/167/17 70/168/17
f 76/171/17 69/170/16 70/169/17
f 69/170/16 76/171/17 77/172/16
f 77/172/16 68/173/11 69/170/16
f 68/173/11 77/172/16 78/174/11
f 78/174/11 67/21/10 68/173/11
f 67/21/10 78/174/11 79/22/10
f 79/22/10 66/175/9 67/21/10
f 66/175/9 79/22/10 80/176/9
f 80/176/9 65/177/8 66/175/9
f 65/177/8 80/176/9 81/178/8
f 81/178/8 64/179/7 65/177/8
f 64/179/7 81/178/8 82/180/7
f 83/183/5 64/182/7 82/181/7
f 64/182/7 83/183/5 63/184/5
f 84/185/4 63/184/5 83/183/5
f 63/184/5 84/185/4 62/186/4
f 85/5/3 62/186/4 84/185/4
f 62/186/4 85/5/3 61/6/3
f 86/187/2 61/6/3 85/5/3
f 61/6/3 86/187/2 60/188/2
f 87/189/1 60/188/2 86/187/2
f 60/188/2 87/189/1 59/190/1
f 88/191/6 59/190/1 87/189/1
f 59/190/1 88/191/6 58/192/6
f 88/195/6 57/194/12 58/193/6
f 57/194/12 88/195/6 89/196/12
f 89/196/12 56/197/13 57/194/12
f 56/197/13 89/196/12 90/198/13
f 90/198/13 55/32/14 56/197/13
f 55/32/14 90/198/13 91/31/14
f 91/31/14 54/199/15 55/32/14
f 54/199/15 91/31/14 92/200/15
f 92/200/15 53/153/24 54/199/15
f 53/153/24 92/200/15 93/155/24

usemtl Wood_Darker

f 99/3/2 98/2/27 97/1/27
f 98/2/27 99/3/2 100/4/2
f 101/5/3 100/4/2 99/3/2
f 100/4/2 101/5/3 102/6/3
f 103/7/4 102/6/3 101/5/3
f 102/6/3 103/7/4 104/8/4
f 105/9/28 104/8/4 103/7/4
f 104/8/4 105/9/28 106/10/28
f 107/11/29 97/1/27 98/2/27
f 97/1/27 107/11/29 108/12/29
f 109/13/30 106/10/28 105/9/28
f 106/10/28 109/13/30 110/14/30
f 109/17/30 111/16/31 110/15/30
f 111/16/31 109/17/30 112/18/31
f 112/18/31 113/19/9 111/16/31
f 113/19/9 112/18/31 114/20/9
f 114/20/9 115/21/10 113/19/9
f 115/21/10 114/20/9 116/22/10
f 116/22/10 117/23/11 115/21/10
f 117/23/11 116/22/10 118/24/11
f 107/27/29 119/26/32 108/25/29
f 119/26/32 107/27/29 120/28/32
f 120/28/32 121/29/13 119/26/32
f 121/29/13 120/28/32 122/30/13
f 122/30/13 123/31/14 121/29/13
f 123/31/14 122/30/13 124/32/14
f 124/32/14 125/33/15 123/31/14
f 125/33/15 124/32/14 126/34/15
f 118/24/11 127/35/33 117/23/11
f 127/35/33 118/24/11 128/36/33
f 128/36/33 129/37/34 127/35/33
f 129/37/34 128/36/33 130/38/34
f 131/41/35 129/40/34 130/39/34
f 129/40/34 131/41/35 132/42/35
f 133/43/19 132/42/35 131/41/35
f 132/42/35 133/43/19 134/44/19
f 135/45/20 134/44/19 133/43/19
f 134/44/19 135/45/20 136/46/20
f 137/47/21 136/46/20 135/45/20
f 136/46/20 137/47/21 138/48/21
f 139/49/36 138/48/21 137/47/21
f 138/48/21 139/49/36 140/50/36
f 141/51/37 140/50/36 139/49/36
f 140/50/36 141/51/37 142/52/37
f 141/55/37 143/54/38 142/53/37
f 143/54/38 141/55/37 144/56/38
f 144/56/38 126/34/15 143/54/38
f 126/34/15 144/56/38 125/33/15
f 111/59/25 145/58/25 110/57/25
f 145/58/25 111/59/25 146/60/25
f 146/60/25 111/59/25 147/61/25
f 147/61/25 111/59/25 148/62/25
f 148/62/25 111/59/25 113/63/25
f 148/62/25 113/63/25 149/64/25
f 149/64/25 113/63/25 150/65/25
f 150/65/25 113/63/25 115/66/25
f 150/65/25 115/66/25 151/67/25
f 151/67/25 115/66/25 117/68/25
f 151/67/25 117/68/25 152/69/25
f 152/69/25 117/68/25 153/70/25
f 153/70/25 117/68/25 127/71/25
f 153/70/25 127/71/25 154/72/25
f 154/72/25 127/71/25 155/73/25
f 155/73/25 127/71/25 129/74/25
f 155/73/25 129/74/25 156/75/25
f 156/75/25 129/74/25 157/76/25
f 142/77/25 157/76/25 129/74/25
f 142/77/25 158/78/25 157/76/25
f 142/77/25 159/79/25 158/78/25
f 143/80/25 159/79/25 142/77/25
f 143/80/25 160/81/25 159/79/25
f 143/80/25 161/82/25 160/81/25
f 126/83/25 161/82/25 143/80/25
f 126/83/25 162/84/25 161/82/25
f 124/85/25 162/84/25 126/83/25
f 124/85/25 163/86/25 162/84/25
f 124/85/25 164/87/25 163/86/25
f 122/88/25 164/87/25 124/85/25
f 122/88/25 165/89/25 164/87/25
f 122/88/25 166/90/25 165/89/25
f 120/91/25 166/90/25 122/88/25
f 120/91/25 167/92/25 166/90/25
f 120/91/25 168/93/25 167/92/25
f 120/91/25 145/58/25 168/93/25
f 120/91/25 110/57/25 145/58/25
f 107/94/25 110/57/25 120/91/25
f 107/94/25 106/95/25 110/57/25
f 98/96/25 106/95/25 107/94/25
f 98/96/25 104/97/25 106/95/25
f 100/98/25 104/97/25 98/96/25
f 104/97/25 100/98/25 102/99/25
f 142/77/25 129/74/25 132/100/25
f 142/77/25 132/100/25 140/101/25
f 140/101/25 132/100/25 134/102/25
f 140/101/25 134/102/25 138/103/25
f 138/103/25 134/102/25 136/104/25
f 99/107/26 103/106/26 101/105/26
f 103/106/26 99/107/26 97/108/26
f 103/106/26 97/108/26 105/109/26
f 105/109/26 97/108/26 108/110/26
f 105/109/26 108/110/26 109/111/26
f 109/111/26 108/110/26 119/112/26
f 109/111/26 119/112/26 169/113/26
f 169/113/26 119/112/26 170/114/26
f 170/114/26 119/112/26 171/115/26
f 171/115/26 119/112/26 172/116/26
f 172/116/26 119/112/26 121/117/26
f 172/116/26 121/117/26 173/118/26
f 173/118/26 121/117/26 174/119/26
f 174/119/26 121/117/26 123/120/26
f 174/119/26 123/120/26 175/121/26
f 175/121/26 123/120/26 176/122/26
f 176/122/26 123/120/26 125/123/26
f 176/122/26 125/123/26 177/124/26
f 177/124/26 125/123/26 144/125/26
f 177/124/26 144/125/26 178/126/26
f 178/126/26 144/125/26 179/127/26
f 179/127/26 144/125/26 141/128/26
f 179/127/26 141/128/26 180/129/26
f 180/129/26 141/128/26 181/130/26
f 130/131/26 181/130/26 141/128/26
f 130/131/26 182/132/26 181/130/26
f 130/131/26 183/133/26 182/132/26
f 128/134/26 183/133/26 130/131/26
f 128/134/26 184/135/26 183/133/26
f 128/134/26 185/136/26 184/135/26
f 118/137/26 185/136/26 128/134/26
f 118/137/26 186/138/26 185/136/26
f 118/137/26 187/139/26 186/138/26
f 116/140/26 187/139/26 118/137/26
f 116/140/26 188/141/26 187/139/26
f 114/142/26 188/141/26 116/140/26
f 114/142/26 189/143/26 188/141/26
f 114/142/26 190/144/26 189/143/26
f 112/145/26 190/144/26 114/142/26
f 112/145/26 191/146/26 190/144/26
f 112/145/26 192/147/26 191/146/26
f 112/145/26 169/113/26 192/147/26
f 169/113/26 112/145/26 109/111/26
f 130/131/26 141/128/26 139/148/26
f 130/131/26 139/148/26 131/149/26
f 131/149/26 139/148/26 137/150/26
f 131/149/26 137/150/26 133/151/26
f 133/151/26 137/150/26 135/152/26
f 189/155/38 148/154/37 149/153/38
f 148/154/37 189/155/38 190/156/37
f 191/159/36 148/158/37 190/157/37
f 148/158/37 191/159/36 147/160/36
f 192/161/21 147/160/36 191/159/36
f 147/160/36 192/161/21 146/162/21
f 169/45/20 146/162/21 192/161/21
f 146/162/21 169/45/20 145/46/20
f 170/163/19 145/46/20 169/45/20
f 145/46/20 170/163/19 168/164/19
f 171/165/35 168/164/19 170/163/19
f 168/164/19 171/165/35 167/166/35
f 172/167/34 167/166/35 171/165/35
f 167/166/35 172/167/34 166/168/34
f 172/171/34 165/170/33 166/169/34
f 165/170/33 172/171/34 173/172/33
f 173/172/33 164/173/11 165/170/33
f 164/173/11 173/172/33 174/174/11
f 174/174/11 163/21/10 164/173/11
f 163/21/10 174/174/11 175/22/10
f 175/22/10 162/175/9 163/21/10
f 162/175/9 175/22/10 176/176/9
f 176/176/9 161/177/31 162/175/9
f 161/177/31 176/176/9 177/178/31
f 177/178/31 160/179/30 161/177/31
f 160/179/30 177/178/31 178/180/30
f 179/183/28 160/182/30 178/181/30
f 160/182/30 179/183/28 159/184/28
f 180/185/4 159/184/28 179/183/28
f 159/184/28 180/185/4 158/186/4
f 181/5/3 158/186/4 180/185/4
f 158/186/4 181/5/3 157/6/3
f 182/187/2 157/6/3 181/5/3
f 157/6/3 182/187/2 156/188/2
f 183/189/27 156/188/2 182/187/2
f 156/188/2 183/189/27 155/190/27
f 184/191/29 155/190/27 183/189/27
f 155/190/27 184/191/29 154/192/29
f 184/195/29 153/194/32 154/193/29
f 153/194/32 184/195/29 185/196/32
f 185/196/32 152/197/13 153/194/32
f 152/197/13 185/196/32 186/198/13
f 186/198/13 151/32/14 152/197/13
f 151/32/14 186/198/13 187/31/14
f 187/31/14 150/199/15 151/32/14
f 150/199/15 187/31/14 188/200/15
f 188/200/15 149/153/38 150/199/15
f 149/153/38 188/200/15 189/155/38

