# Created by Kenney (www.kenney.nl)

mtllib BucketMop.mtl

g mergedBlocks

v -1.300293 0.3 -0.09529784
v -1.300293 0.3 -0.03930216
v -1.300293 0.09999999 -0.03930216
v -1.300293 0.09999999 -0.09529784
v -1.260698 0.3 -0.1348928
v -1.2327 0.3 -0.1348928
v -1.2327 0.3 -0.1670356
v -1.191388 0.3 -0.1670356
v -1.204702 0.3 -0.1348928
v -1.132964 0.3 -0.1086119
v -1.165107 0.3 -0.09529784
v -1.165107 0.3 -0.03930216
v -1.132964 0.3 -0.02598815
v -1.191388 0.3 0.03243564
v -1.204702 0.3 0.0002927631
v -1.2327 0.3 0.03243564
v -1.274012 0.3 0.03243564
v -1.260698 0.3 0.0002927631
v -1.332436 0.3 -0.02598815
v -1.332436 0.3 -0.1086119
v -1.274012 0.3 -0.1670356
v -1.2327 0.3 0.0002927631
v -1.204702 0.09999999 0.0002927631
v -1.260698 0.09999999 0.0002927631
v -1.2327 0.09999999 0.0002927631
v -1.165107 0.09999999 -0.03930216
v -1.165107 0.09999999 -0.09529784
v -1.204702 0.09999999 -0.1348928
v -1.2327 0.09999999 -0.1348928
v -1.260698 0.09999999 -0.1348928
v -1.274012 0.09999999 -0.1670356
v -1.332436 0.09999999 -0.1086119
v -1.191388 0.09999999 -0.1670356
v -1.2327 0.09999999 -0.1670356
v -1.132964 0.09999999 -0.1086119
v -1.132964 0.09999999 -0.02598815
v -1.191388 0.09999999 0.03243564
v -1.274012 0.09999999 0.03243564
v -1.2327 0.09999999 0.03243564
v -1.332436 0.09999999 -0.02598815
v -1.330351 0.8861318 -0.03666667
v -1.322751 0.8871452 -0.04433333
v -1.331364 0.8937312 -0.04433333
v -1.342598 0.8922334 -0.04433333
v -1.341585 0.8846339 -0.03666667
v -1.349184 0.8836207 -0.04433333
v -1.342598 0.8922334 -0.05566667
v -1.349184 0.8836207 -0.05566667
v -1.341585 0.8846339 -0.06333333
v -1.264181 0.3041048 -0.06333333
v -1.27178 0.3030916 -0.05566667
v -1.330351 0.8861318 -0.06333333
v -1.252947 0.3056027 -0.06333333
v -1.258564 0.3048537 -0.06333333
v -1.322751 0.8871452 -0.05566667
v -1.245347 0.3066159 -0.05566667
v -1.245347 0.3066159 -0.04433333
v -1.331364 0.8937312 -0.05566667
v -1.27178 0.3030916 -0.04433333
v -1.264181 0.3041048 -0.03666667
v -1.258564 0.3048537 -0.03666667
v -1.252947 0.3056027 -0.03666667
v -1.258564 0.3048537 -0.034
v -1.26538 0.3039449 -0.034
v -1.274424 0.3027391 -0.05687648
v -1.274424 0.3027391 -0.04312352
v -1.26538 0.3039449 -0.066
v -1.258564 0.3048537 -0.066
v -1.251748 0.3057626 -0.066
v -1.242704 0.3069684 -0.05687648
v -1.242704 0.3069684 -0.04312352
v -1.251748 0.3057626 -0.034
v -1.238211 0.3035321 -0.04146667
v -1.238211 0.3035321 -0.05853333
v -1.237506 0.2982456 -0.04146667
v -1.237506 0.2982456 -0.05853333
v -1.248872 0.2967301 -0.03
v -1.249577 0.3020166 -0.03
v -1.249985 0.2925462 -0.034
v -1.240942 0.293752 -0.04312352
v -1.256802 0.2916374 -0.034
v -1.265789 0.2944745 -0.03
v -1.263618 0.2907286 -0.034
v -1.277155 0.292959 -0.04146667
v -1.272661 0.2895228 -0.04312352
v -1.272661 0.2895228 -0.05687648
v -1.277155 0.292959 -0.05853333
v -1.265789 0.2944745 -0.07
v -1.263618 0.2907286 -0.066
v -1.248872 0.2967301 -0.07
v -1.249985 0.2925462 -0.066
v -1.256802 0.2916374 -0.066
v -1.240942 0.293752 -0.05687648
v -1.249577 0.3020166 -0.07
v -1.266494 0.2997611 -0.07
v -1.27786 0.2982456 -0.05853333
v -1.27786 0.2982456 -0.04146667
v -1.266494 0.2997611 -0.03
v -1.263192 0.2907853 -0.03444444
v -1.256802 0.2916374 -0.03444444
v -1.250411 0.2924895 -0.03444444
v -1.244246 0.2933115 -0.04096801
v -1.244246 0.2933115 -0.05903199
v -1.250411 0.2924895 -0.06555556
v -1.263192 0.2907853 -0.06555556
v -1.269357 0.2899633 -0.05903199
v -1.269357 0.2899633 -0.04096801
v -1.256802 0.2916374 -0.06555556
v -1.242264 0.2330448 -0.07903199
v -1.242264 0.2330448 -0.05
v -1.23962 0.2333973 -0.05
v -1.23962 0.2333973 -0.0113511
v -1.242264 0.2330448 -0.02096801
v -1.258123 0.2309302 -0.0113511
v -1.248429 0.2322228 -0.01444444
v -1.258123 0.2309302 -0.05
v -1.25548 0.2312826 -0.02096801
v -1.25548 0.2312826 -0.05
v -1.258123 0.2309302 -0.0886489
v -1.25548 0.2312826 -0.07903199
v -1.249315 0.2321046 -0.08555556
v -1.248429 0.2322228 -0.08555556
v -1.23962 0.2333973 -0.0886489
v -1.249315 0.2321046 -0.01444444
v -1.26156 0.2264366 -0.0113511
v -1.26156 0.2264366 -0.0886489
v -1.257786 0.2283995 -0.09237804
v -1.257081 0.223113 -0.0944474
v -1.260855 0.2211501 -0.09071827
v -1.256361 0.2177138 -0.09071827
v -1.238578 0.22558 -0.0944474
v -1.237858 0.2201809 -0.09071827
v -1.256361 0.2177138 -0.05
v -1.253718 0.2180662 -0.05
v -1.253718 0.2180662 -0.009999998
v -1.256361 0.2177138 -0.009281728
v -1.240502 0.2198284 -0.009999998
v -1.237858 0.2201809 -0.05
v -1.237858 0.2201809 -0.009281728
v -1.240502 0.2198284 -0.09
v -1.253718 0.2180662 -0.09
v -1.240502 0.2198284 -0.05
v -1.234422 0.2246744 -0.009281728
v -1.234422 0.2246744 -0.09071827
v -1.238578 0.22558 -0.005552601
v -1.235127 0.229961 -0.0113511
v -1.239283 0.2308666 -0.00762197
v -1.257081 0.223113 -0.005552601
v -1.257786 0.2283995 -0.00762197
v -1.260855 0.2211501 -0.009281728
v -1.235127 0.229961 -0.0886489
v -1.239283 0.2308666 -0.09237804
v -1.237858 0.0991189 -0.02333333
v -1.237858 0.0991189 -0.07666668
v -1.235215 0.1129227 0.03
v -1.230809 0.1135101 0.03
v -1.224642 0.1008811 -0.02333333
v -1.224642 0.1008811 -0.07666668
v -1.230809 0.1135101 -0.13
v -1.235215 0.1129227 -0.13

vn 1 0 0
vn 0 1 0
vn 0 0 -1
vn -0.7071068 0 -0.7071068
vn -1 0 0
vn -0.7071068 0 0.7071068
vn 0 0 1
vn 0.7071068 0 -0.7071068
vn 0.7071068 0 0.7071068
vn 0 -1 0
vn 0.4959809 0.6485906 0.5773503
vn -0.09345386 0.7009039 0.7071068
vn -0.6485906 0.4959809 0.5773503
vn -0.7943578 0.6074502 0
vn -0.6485906 0.4959809 -0.5773503
vn -0.7009039 -0.09345386 -0.7071068
vn 0.7009039 0.09345386 -0.7071068
vn 0.9912279 0.1321637 0
vn 0.4959809 0.6485906 -0.5773503
vn -0.09345386 0.7009039 -0.7071068
vn -0.9912279 -0.1321637 0
vn -0.7009039 -0.09345386 0.7071068
vn -0.1321637 0.9912279 0
vn 0.6074502 0.7943578 0
vn 0.7009039 0.09345386 0.7071068
vn 0.5890678 -0.6348222 0.5
vn 0.09345386 -0.7009039 0.7071068
vn -0.4021601 -0.7669858 0.5
vn -0.6074502 -0.7943578 0
vn -0.4021601 -0.7669858 -0.5
vn 0.09345386 -0.7009039 -0.7071068
vn 0.5890678 -0.6348222 -0.5
vn 0.1321637 -0.9912279 0
vn -0.7149825 0.5467514 -0.4357325
vn -0.7347093 0.1600856 -0.659223
vn -0.4225399 -0.5525522 -0.7184331
vn 0.07466187 -0.5599639 -0.8251461
vn 0.7943578 -0.6074502 0
vn 0.5525522 -0.4225399 0.7184331
vn 0.6670988 0.3469933 0.659223
vn 0.5467514 0.7149825 0.4357325
vn -0.04780785 0.3585589 0.9322821
vn -0.7347093 0.1600856 0.659223
vn -0.4225399 -0.5525522 0.7184331
vn 0.6670988 0.3469933 -0.659223
vn 0.5467514 0.7149825 -0.4357325
vn 0.07466187 -0.5599639 0.8251461
vn 0.5525522 -0.4225399 -0.7184331
vn -0.04780785 0.3585589 -0.9322821
vn -0.7149825 0.5467514 0.4357325
vn -0.1090544 0.8179078 -0.5649195
vn -0.1090544 0.8179078 0.5649195
vn 0.4021601 0.7669858 0.5
vn -0.5890678 0.6348222 0.5
vn -0.5890678 0.6348222 -0.5
vn 0.4021601 0.7669858 -0.5
vn -0.04179384 0.3134538 -0.9486833
vn -0.9863081 -0.1410803 0.08539731
vn 0.1282177 -0.9616323 0.2425356
vn 0.9888163 0.1222696 0.08539731
vn 0.1282177 -0.9616323 -0.2425356
vn 0.9888163 0.1222696 -0.08539731
vn -0.9863081 -0.1410803 -0.08539731
vn -0.04640578 0.3480434 -0.9363292
vn -0.04640578 0.3480434 0.9363292
vn 0.6880839 0.2488391 -0.6816301
vn 0.9994595 0.03287695 0
vn 0.6880839 0.2488391 0.6816301
vn -0.04179384 0.3134538 0.9486833
vn -0.729244 0.05986201 0.6816301
vn -0.9731579 -0.2301387 0
vn -0.729244 0.05986201 -0.6816301

vt 0 1
vt 0 0
vt 1 0
vt 1 1
vt 0.8388598 0.3596398
vt 0.8388598 0.5
vt 1 0.5
vt 1 0.7071068
vt 0.8388598 0.6403603
vt 0.7071068 1
vt 0.6403603 0.8388598
vt 0.3596398 0.8388598
vt 0.2928933 1
vt 0 0.7071068
vt 0.1611403 0.6403603
vt 0 0.5
vt 0 0.2928933
vt 0.1611403 0.3596398
vt 0.2928933 0
vt 0.3596398 0.1611403
vt 0.6403603 0.1611403
vt 0.7071068 0
vt 1 0.2928933
vt 0.1611403 0.5
vt 0.5 0
vt 0.5 1
vt 0.5 0.08333334
vt 0.3229167 0.08333334
vt 0.28511 0
vt 0.08333334 0.3229167
vt 0 0.7148899
vt 0 0.28511
vt 0.08333334 0.6770834
vt 0.28511 1
vt 0.3229167 0.9166667
vt 0.7148899 1
vt 0.6770834 0.9166667
vt 1 0.7148899
vt 0.9166667 0.6770834
vt 0.9166667 0.3229167
vt 1 0.28511
vt 0.7148899 0
vt 0.6770834 0.08333334
vt 0.5 0.9166667
vt 0.0970813 1
vt 0.9029187 1
vt 0.102172 0
vt 0.897828 0
vt 0.9029187 0
vt 0.0970813 0
vt 0.2985311 0.01388889
vt 0.5 0.01388889
vt 0.7014689 0.01388889
vt 0.8958334 0.2177502
vt 0.8958334 0.7822497
vt 0.7014689 0.9861112
vt 0.2985311 0.9861112
vt 0.1041667 0.7822497
vt 0.1041667 0.2177502
vt 0.5 0.9861112
vt 0.8571429 0.1244137
vt 0.8571429 0.5
vt 0.8571429 0.8755863
vt 0.5239466 0.9599815
vt 0.1428571 0.8755863
vt 0.1428571 0.5
vt 0.1428571 0.1244137
vt 0.4760534 0.04001854
vt 0.5239466 0.04001854
vt 0.4760534 0.9599815
vt 1 0.6808661
vt 0.1428571 0.00882002
vt 0.8571429 0.00882002
vt 0.8571429 0.99118
vt 0.1428571 0.99118
vt 0 0.319134
vt 0 0.6808661
vt 0.02541084 1
vt 0.9745892 1
vt 1 0.319134
vt 0.5346676 1
vt 0.4653324 1
vt 0.1666667 0
vt 0.8333334 0
vt 0.25 1
vt 1 0.1107584
vt 0.6666667 0
vt 0.3333333 0
vt 0 0.8892416
vt 0.75 0
vt 0.6666667 1
vt 0.3333333 1
vt 0.9600863 0
vt 0.03991381 1
vt 0.6555525 0
vt 0.3444476 0
vt 0.9600863 1
vt 0.03991381 0
vt 0.4653324 0
vt 0.5346676 0

usemtl Stone_Brit_Gray_Dark

f 18/2/8 24/3/8 3/4/8
f 2/1/8 18/2/8 3/4/8
f 31/23/10 34/7/10 30/5/10
f 28/9/10 29/6/10 34/7/10
f 28/9/10 34/7/10 33/8/10
f 32/22/10 31/23/10 4/21/10
f 40/19/10 32/22/10 3/20/10
f 3/20/10 24/18/10 38/17/10
f 24/18/10 25/24/10 39/16/10
f 39/16/10 25/24/10 23/15/10
f 37/14/10 23/15/10 26/12/10
f 36/13/10 26/12/10 27/11/10
f 27/11/10 33/8/10 35/10/10
f 27/11/10 28/9/10 33/8/10
f 35/10/10 36/13/10 27/11/10
f 36/13/10 37/14/10 26/12/10
f 37/14/10 39/16/10 23/15/10
f 24/18/10 39/16/10 38/17/10
f 3/20/10 38/17/10 40/19/10
f 32/22/10 4/21/10 3/20/10
f 31/23/10 30/5/10 4/21/10
f 34/7/10 29/6/10 30/5/10
f 5/1/9 4/3/9 30/4/9
f 5/1/9 1/2/9 4/3/9
f 40/3/5 19/2/5 20/1/5
f 32/4/5 40/3/5 20/1/5
f 40/4/6 17/2/6 19/1/6
f 40/4/6 38/3/6 17/2/6
f 39/7/7 37/3/7 16/16/7
f 38/4/7 39/7/7 16/16/7
f 38/4/7 16/16/7 17/1/7
f 37/3/7 14/2/7 16/16/7
f 36/3/9 13/2/9 14/1/9
f 37/4/9 36/3/9 14/1/9
f 35/3/1 10/2/1 13/1/1
f 36/4/1 35/3/1 13/1/1
f 35/4/8 8/2/8 10/1/8
f 35/4/8 33/3/8 8/2/8
f 7/16/3 33/4/3 34/7/3
f 34/7/3 31/3/3 21/2/3
f 34/7/3 21/2/3 7/16/3
f 7/16/3 8/1/3 33/4/3
f 32/3/4 20/2/4 21/1/4
f 31/4/4 32/3/4 21/1/4
f 29/7/7 28/4/7 6/16/7
f 5/2/7 30/3/7 29/7/7
f 6/16/7 5/2/7 29/7/7
f 28/4/7 9/1/7 6/16/7
f 9/2/6 28/3/6 27/4/6
f 11/1/6 9/2/6 27/4/6
f 12/1/5 27/3/5 26/4/5
f 12/1/5 11/2/5 27/3/5
f 15/1/4 26/3/4 23/4/4
f 15/1/4 12/2/4 26/3/4
f 22/16/3 23/3/3 25/7/3
f 22/16/3 25/7/3 24/4/3
f 18/1/3 22/16/3 24/4/3
f 22/16/3 15/2/3 23/3/3
f 5/5/2 7/7/2 21/23/2
f 1/21/2 5/5/2 21/23/2
f 7/7/2 6/6/2 9/9/2
f 8/8/2 9/9/2 11/11/2
f 11/11/2 13/13/2 10/10/2
f 12/12/2 15/15/2 14/14/2
f 15/15/2 22/24/2 16/16/2
f 16/16/2 22/24/2 18/18/2
f 17/17/2 18/18/2 2/20/2
f 2/20/2 20/22/2 19/19/2
f 1/21/2 21/23/2 20/22/2
f 2/20/2 1/21/2 20/22/2
f 19/19/2 17/17/2 2/20/2
f 17/17/2 16/16/2 18/18/2
f 15/15/2 16/16/2 14/14/2
f 12/12/2 14/14/2 13/13/2
f 11/11/2 12/12/2 13/13/2
f 10/10/2 8/8/2 11/11/2
f 8/8/2 7/7/2 9/9/2
f 5/5/2 6/6/2 7/7/2
f 1/1/1 3/3/1 4/4/1
f 1/1/1 2/2/1 3/3/1

usemtl Wood_Medium

f 41/2/25 57/4/25 42/1/25
f 41/2/25 62/3/25 57/4/25
f 58/2/24 43/3/24 42/4/24
f 55/1/24 58/2/24 42/4/24
f 45/2/7 60/1/7 61/26/7
f 45/2/7 61/26/7 41/3/7
f 61/26/7 62/4/7 41/3/7
f 58/3/23 47/2/23 44/1/23
f 43/4/23 58/3/23 44/1/23
f 46/2/22 60/4/22 45/1/22
f 46/2/22 59/3/22 60/4/22
f 48/4/21 59/2/21 46/1/21
f 48/4/21 51/3/21 59/2/21
f 49/1/20 58/3/20 52/4/20
f 49/1/20 47/2/20 58/3/20
f 52/7/19 58/2/19 55/1/19
f 42/1/18 56/3/18 55/4/18
f 42/1/18 57/2/18 56/3/18
f 55/4/17 53/2/17 52/3/17
f 55/4/17 56/1/17 53/2/17
f 52/4/3 54/25/3 49/1/3
f 54/25/3 50/2/3 49/1/3
f 52/4/3 53/3/3 54/25/3
f 49/4/16 51/2/16 48/3/16
f 49/4/16 50/1/16 51/2/16
f 47/1/15 49/7/15 48/2/15
f 48/2/14 46/3/14 44/4/14
f 47/1/14 48/2/14 44/4/14
f 46/3/13 45/16/13 44/4/13
f 44/1/12 41/3/12 43/4/12
f 44/1/12 45/2/12 41/3/12
f 41/16/11 42/4/11 43/3/11

usemtl Burlap

f 69/47/56 70/48/56 74/4/56
f 94/1/56 69/47/56 74/4/56
f 95/1/20 67/50/20 68/25/20
f 95/1/20 68/25/20 94/4/20
f 68/25/20 69/49/20 94/4/20
f 96/1/55 67/48/55 95/4/55
f 96/1/55 65/47/55 67/48/55
f 97/1/14 65/49/14 96/4/14
f 97/1/14 66/50/14 65/49/14
f 98/1/54 66/48/54 97/4/54
f 98/1/54 64/47/54 66/48/54
f 98/2/12 78/3/12 63/26/12
f 63/26/12 64/45/12 98/2/12
f 78/3/12 72/46/12 63/26/12
f 71/47/53 72/48/53 78/4/53
f 73/1/53 71/47/53 78/4/53
f 80/50/38 93/49/38 76/4/38
f 75/1/38 80/50/38 76/4/38
f 94/1/17 74/2/17 76/3/17
f 90/4/17 94/1/17 76/3/17
f 82/1/7 77/4/7 78/3/7
f 98/2/7 82/1/7 78/3/7
f 114/1/52 147/3/52 112/4/52
f 114/1/52 149/2/52 147/3/52
f 151/1/24 123/2/24 111/25/24
f 151/1/24 111/25/24 146/4/24
f 111/25/24 112/3/24 146/4/24
f 127/1/51 123/3/51 152/4/51
f 127/1/51 119/2/51 123/3/51
f 126/79/21 150/2/21 125/78/21
f 126/79/21 129/3/21 150/2/21
f 149/77/50 114/4/50 125/3/50
f 127/1/49 131/3/49 128/2/49
f 127/1/49 152/4/49 131/3/49
f 129/3/29 130/4/29 133/26/29
f 150/2/29 129/3/29 133/26/29
f 133/26/29 136/1/29 150/2/29
f 131/80/48 144/2/48 132/1/48
f 148/1/47 139/3/47 145/4/47
f 148/1/47 136/2/47 139/3/47
f 123/2/46 151/1/46 152/80/46
f 131/2/45 152/3/45 151/4/45
f 144/1/45 131/2/45 151/4/45
f 144/3/18 151/79/18 146/78/18
f 143/2/18 144/3/18 146/78/18
f 150/4/44 136/3/44 148/77/44
f 125/2/43 150/3/43 148/4/43
f 149/1/43 125/2/43 148/4/43
f 147/3/42 149/2/42 148/1/42
f 145/4/42 147/3/42 148/1/42
f 146/4/41 112/3/41 147/76/41
f 146/1/40 145/3/40 143/4/40
f 146/1/40 147/2/40 145/3/40
f 143/3/39 145/76/39 139/4/39
f 143/1/38 138/25/38 144/4/38
f 138/25/38 132/3/38 144/4/38
f 143/1/38 139/2/38 138/25/38
f 136/2/33 133/16/33 135/72/33
f 141/75/33 134/66/33 133/16/33
f 141/75/33 133/16/33 130/1/33
f 139/3/33 136/2/33 137/73/33
f 137/73/33 142/62/33 138/7/33
f 138/7/33 142/62/33 140/74/33
f 140/74/33 130/1/33 132/4/33
f 140/74/33 141/75/33 130/1/33
f 132/4/33 138/7/33 140/74/33
f 138/7/33 139/3/33 137/73/33
f 136/2/33 135/72/33 137/73/33
f 133/16/33 134/66/33 135/72/33
f 130/1/37 131/3/37 132/4/37
f 130/1/37 128/2/37 131/3/37
f 130/2/36 129/1/36 128/71/36
f 128/1/35 126/3/35 127/4/35
f 128/1/35 129/2/35 126/3/35
f 127/71/34 126/2/34 119/1/34
f 126/2/14 125/3/14 116/26/14
f 116/26/14 119/1/14 126/2/14
f 125/3/14 114/4/14 116/26/14
f 109/61/23 111/7/23 123/3/23
f 122/69/23 109/61/23 123/3/23
f 111/7/23 110/62/23 113/63/23
f 112/4/23 113/63/23 115/64/23
f 114/1/23 115/64/23 124/70/23
f 114/1/23 124/70/23 117/65/23
f 116/16/23 118/66/23 120/67/23
f 122/69/23 123/3/23 119/2/23
f 121/68/23 122/69/23 119/2/23
f 120/67/23 121/68/23 119/2/23
f 119/2/23 116/16/23 120/67/23
f 117/65/23 118/66/23 116/16/23
f 116/16/23 114/1/23 117/65/23
f 114/1/23 112/4/23 115/64/23
f 112/4/23 111/7/23 113/63/23
f 109/61/23 110/62/23 111/7/23
f 99/51/33 81/25/33 83/29/33
f 107/59/33 99/51/33 83/29/33
f 81/25/33 100/52/33 101/53/33
f 79/42/33 101/53/33 102/54/33
f 93/38/33 80/41/33 102/54/33
f 91/36/33 93/38/33 103/55/33
f 104/56/33 108/60/33 92/26/33
f 92/26/33 108/60/33 105/57/33
f 89/34/33 105/57/33 106/58/33
f 107/59/33 85/32/33 86/31/33
f 107/59/33 83/29/33 85/32/33
f 106/58/33 107/59/33 86/31/33
f 86/31/33 89/34/33 106/58/33
f 89/34/33 92/26/33 105/57/33
f 104/56/33 92/26/33 91/36/33
f 103/55/33 104/56/33 91/36/33
f 93/38/33 102/54/33 103/55/33
f 80/41/33 79/42/33 102/54/33
f 79/42/33 81/25/33 101/53/33
f 99/51/33 100/52/33 81/25/33
f 98/1/22 97/2/22 84/3/22
f 82/4/22 98/1/22 84/3/22
f 96/3/21 84/1/21 97/2/21
f 96/3/21 87/4/21 84/1/21
f 96/1/16 95/2/16 88/3/16
f 87/4/16 96/1/16 88/3/16
f 90/4/3 88/1/3 95/2/3
f 94/3/3 90/4/3 95/2/3
f 93/47/32 91/48/32 90/4/32
f 76/1/32 93/47/32 90/4/32
f 88/2/31 90/3/31 92/26/31
f 92/26/31 89/45/31 88/2/31
f 90/3/31 91/46/31 92/26/31
f 88/1/30 86/48/30 87/4/30
f 88/1/30 89/47/30 86/48/30
f 84/2/29 87/3/29 86/46/29
f 85/45/29 84/2/29 86/46/29
f 84/1/28 83/48/28 82/4/28
f 84/1/28 85/47/28 83/48/28
f 82/1/27 83/50/27 81/25/27
f 82/1/27 81/25/27 77/4/27
f 81/25/27 79/49/27 77/4/27
f 79/47/26 80/48/26 75/4/26
f 77/1/26 79/47/26 75/4/26
f 73/1/25 78/2/25 77/3/25
f 75/4/25 73/1/25 77/3/25
f 73/2/18 76/4/18 74/3/18
f 73/2/18 75/1/18 76/4/18
f 71/45/24 74/3/24 70/46/24
f 71/45/24 73/2/24 74/3/24
f 64/29/23 63/25/23 60/28/23
f 62/43/23 61/27/23 63/25/23
f 62/43/23 63/25/23 72/42/23
f 66/32/23 64/29/23 59/30/23
f 59/30/23 51/33/23 65/31/23
f 51/33/23 50/35/23 67/34/23
f 50/35/23 54/44/23 68/26/23
f 68/26/23 54/44/23 53/37/23
f 69/36/23 53/37/23 56/39/23
f 70/38/23 56/39/23 57/40/23
f 57/40/23 62/43/23 72/42/23
f 57/40/23 72/42/23 71/41/23
f 57/40/23 71/41/23 70/38/23
f 70/38/23 69/36/23 56/39/23
f 69/36/23 68/26/23 53/37/23
f 50/35/23 68/26/23 67/34/23
f 51/33/23 67/34/23 65/31/23
f 59/30/23 65/31/23 66/32/23
f 64/29/23 60/28/23 59/30/23
f 63/25/23 61/27/23 60/28/23

usemtl Straw

f 120/98/72 105/97/72 121/1/72
f 120/98/72 106/3/72 105/97/72
f 117/1/71 106/95/71 118/26/71
f 106/95/71 120/4/71 118/26/71
f 117/1/71 107/96/71 106/95/71
f 99/93/70 107/4/70 117/94/70
f 124/2/70 99/93/70 117/94/70
f 100/26/69 99/1/69 124/99/69
f 101/4/69 100/26/69 124/99/69
f 124/99/69 115/100/69 101/4/69
f 113/97/68 101/98/68 115/3/68
f 113/97/68 102/1/68 101/98/68
f 110/26/67 109/4/67 103/95/67
f 103/95/67 113/1/67 110/26/67
f 103/95/67 102/96/67 113/1/67
f 104/93/66 103/4/66 109/94/66
f 122/2/66 104/93/66 109/94/66
f 135/2/65 155/92/65 156/91/65
f 137/3/65 135/2/65 156/91/65
f 158/84/18 140/4/18 142/26/18
f 142/26/18 157/83/18 158/84/18
f 142/26/18 137/1/18 157/83/18
f 160/88/64 141/1/64 140/4/64
f 159/87/64 160/88/64 140/4/64
f 160/89/63 154/4/63 141/90/63
f 140/85/62 158/2/62 159/86/62
f 154/2/61 160/92/61 159/91/61
f 158/3/61 154/2/61 159/91/61
f 153/2/33 154/1/33 158/4/33
f 157/3/33 153/2/33 158/4/33
f 156/89/60 157/4/60 137/90/60
f 155/88/59 153/1/59 157/4/59
f 156/87/59 155/88/59 157/4/59
f 135/85/58 153/2/58 155/86/58
f 134/26/21 154/84/21 153/83/21
f 134/26/21 141/4/21 154/84/21
f 153/83/21 135/1/21 134/26/21
f 108/25/57 104/3/57 122/81/57
f 105/2/57 108/25/57 122/81/57
f 122/81/57 121/82/57 105/2/57

